<svg version="1.1" id="Layer_1" xmlns="http://www.w3.org/2000/svg" xmlns:xlink="http://www.w3.org/1999/xlink" x="0px" y="0px"
	 width="100%" viewBox="0 0 950 296" enable-background="new 0 0 950 296" xml:space="preserve">
<path fill="#000000" opacity="1.000000" stroke="none" 
	d="
M615.000000,297.000000 
	C410.000000,297.000000 205.500000,297.000000 1.000000,297.000000 
	C1.000000,198.333328 1.000000,99.666664 1.000000,1.000000 
	C317.666656,1.000000 634.333313,1.000000 951.000000,1.000000 
	C951.000000,99.666664 951.000000,198.333328 951.000000,297.000000 
	C839.166687,297.000000 727.333313,297.000000 615.000000,297.000000 
M199.973068,141.221985 
	C199.843094,140.177078 199.713120,139.132172 199.542862,137.763474 
	C191.129135,141.621689 183.189514,145.364304 175.167374,148.920731 
	C156.301804,157.284378 137.376129,165.513184 118.557617,173.980652 
	C117.393425,174.504486 116.947014,176.623581 116.025986,178.928360 
	C116.025986,213.717560 116.025986,248.506760 116.025986,283.783051 
	C118.230354,282.932434 120.203011,282.284637 122.078941,281.425598 
	C127.260780,279.052795 132.355301,276.485474 137.567963,274.184479 
	C157.490082,265.390350 177.464340,256.713684 197.341293,247.819199 
	C198.569870,247.269440 199.885086,245.224854 199.888489,243.872528 
	C199.973969,209.915558 199.888596,175.958176 199.973068,141.221985 
M199.861908,15.643512 
	C198.854507,15.455235 197.658630,14.820644 196.871185,15.153198 
	C192.665695,16.929295 188.596909,19.025686 184.417191,20.866819 
	C170.557068,26.972118 156.611801,32.887573 142.813431,39.128433 
	C133.828491,43.192226 125.042030,47.694870 116.032761,52.929607 
	C116.077339,88.286110 116.121918,123.642616 116.226448,159.593735 
	C116.855629,159.410004 117.484810,159.226273 118.848915,158.977524 
	C130.162979,153.973648 141.509277,149.041107 152.783279,143.948563 
	C168.224121,136.973816 183.610046,129.877533 199.512619,122.866013 
	C199.872864,122.681938 199.979782,122.401329 199.967194,121.092316 
	C199.921234,86.274445 199.875275,51.456573 199.861908,15.643512 
M214.000000,23.583759 
	C214.000015,55.239780 214.048340,86.895996 213.923187,118.551521 
	C213.911026,121.621422 214.802856,123.092941 217.633347,124.356003 
	C238.620621,133.721207 259.506134,143.314102 280.455200,152.765442 
	C286.106659,155.315155 291.866791,157.623962 297.753876,160.118271 
	C297.878510,159.045593 297.985809,158.552521 297.985962,158.059418 
	C297.996063,123.571106 297.966644,89.082710 298.063019,54.594654 
	C298.070160,52.040741 297.168396,50.933994 294.935150,49.938900 
	C275.125397,41.112034 255.389969,32.118420 235.592010,23.264824 
	C228.551270,20.116215 221.398926,17.217192 214.000000,14.078007 
	C214.000000,17.289795 214.000000,19.953087 214.000000,23.583759 
M18.000000,185.500000 
	C18.000010,204.496979 18.149361,223.496170 17.867912,242.488983 
	C17.814716,246.078735 19.345045,247.345886 22.047665,248.547302 
	C43.242027,257.968811 64.407997,267.454163 85.598564,276.884216 
	C90.917801,279.251343 96.294464,281.489410 101.999458,283.939117 
	C101.999458,248.284073 102.033104,213.143539 101.871704,178.003891 
	C101.865501,176.651840 100.273071,174.684189 98.928452,174.057343 
	C85.251274,167.681412 71.485573,161.494217 57.717262,155.315231 
	C44.728447,149.486069 31.706781,143.730103 18.000000,137.630630 
	C18.000000,153.668793 18.000000,169.084396 18.000000,185.500000 
M456.500000,157.000000 
	C420.013702,157.000275 383.527435,156.992111 347.041138,157.010010 
	C341.620361,157.012665 341.309753,157.499680 342.983887,162.610138 
	C539.492554,162.610138 736.001282,162.610138 932.932007,162.610138 
	C932.831238,160.637161 932.751404,159.075119 932.645386,157.000000 
	C773.974121,157.000000 615.737061,157.000000 456.500000,157.000000 
M922.000000,52.533356 
	C922.000000,69.196754 922.000000,85.860146 922.000000,102.523544 
	C919.935730,101.640312 919.023438,100.675575 918.326294,99.574623 
	C907.613892,82.656738 896.793396,65.804619 886.322693,48.738010 
	C883.241699,43.716095 879.804749,41.190365 873.616943,41.820206 
	C869.841919,42.204460 868.916504,43.293156 868.934143,46.867535 
	C869.059937,72.354424 869.105652,97.843063 868.902405,123.328949 
	C868.867126,127.756287 870.888306,128.060562 874.329773,128.077728 
	C877.907837,128.095596 880.181213,127.930885 880.107056,123.168068 
	C879.834534,105.680885 879.991882,88.186890 880.012207,70.695480 
	C880.014221,68.959419 880.184937,67.223564 880.351562,64.094696 
	C882.123535,66.233780 883.121582,67.213501 883.857910,68.361137 
	C895.834290,87.027206 907.794373,105.703743 919.711975,124.407349 
	C921.762634,127.625755 927.680969,129.741013 931.964478,127.662971 
	C933.331360,126.999878 933.904846,123.579742 933.916504,121.416153 
	C934.048218,96.928856 933.863770,72.439201 934.114746,47.953770 
	C934.164978,43.053001 932.701782,41.853390 927.952148,41.819599 
	C923.049927,41.784733 921.237915,43.292728 921.973999,48.054901 
	C922.150024,49.193779 922.000000,50.383053 922.000000,52.533356 
M572.000000,211.670532 
	C572.634521,200.748672 563.079102,192.187164 552.773743,191.226730 
	C542.952820,190.311432 532.978455,190.986084 523.072449,191.070786 
	C519.530945,191.101059 518.950439,193.450241 518.959534,196.521027 
	C519.033752,221.677444 519.148071,246.835754 518.879272,271.989502 
	C518.824341,277.129578 521.354980,277.068878 524.994080,277.062988 
	C528.616638,277.057129 531.350586,277.173553 531.117798,271.997589 
	C530.699158,262.686890 530.904297,253.341461 531.115601,244.016571 
	C531.145935,242.678055 532.588257,240.280228 533.502563,240.218094 
	C545.589355,239.396774 553.989502,241.623169 557.039734,255.048340 
	C558.465881,261.325745 560.141479,267.552002 561.922424,273.738586 
	C562.268188,274.939941 563.535522,276.638214 564.531433,276.751129 
	C567.872131,277.129852 571.282349,276.894958 575.784790,276.894958 
	C568.921753,262.655975 571.786072,245.932053 558.064697,235.544342 
	C568.220703,230.764511 572.965027,223.335480 572.000000,211.670532 
M813.000000,54.497532 
	C812.776245,53.873596 812.542480,53.253036 812.330261,52.625214 
	C808.593811,41.571754 808.596680,41.716560 797.009338,41.903885 
	C794.007935,41.952404 792.988525,43.274624 792.162598,45.679638 
	C786.192322,63.064110 780.153076,80.424843 774.156738,97.800354 
	C770.769104,107.616463 767.421387,117.446297 763.805725,127.999588 
	C766.731445,127.999588 768.898804,127.753609 770.988464,128.051620 
	C775.130859,128.642365 776.910217,126.702621 777.984436,122.932709 
	C779.342651,118.166290 781.446411,113.614235 782.847656,108.857498 
	C783.702515,105.955475 785.135864,104.886208 788.145020,104.946358 
	C796.306396,105.109482 804.477295,105.153229 812.635559,104.924759 
	C815.737000,104.837898 817.056702,106.092117 817.885132,108.821098 
	C819.472900,114.051483 821.163025,119.257980 823.057190,124.383286 
	C823.556702,125.734734 824.861511,127.644119 825.962280,127.763062 
	C829.812134,128.179016 833.734375,127.924210 838.350342,127.924210 
	C829.732178,103.060188 821.450623,79.167290 813.000000,54.497532 
M604.489746,120.981171 
	C596.428223,97.845230 588.335754,74.719994 580.320007,51.568226 
	C576.977783,41.914909 577.048340,42.087166 566.727783,41.899414 
	C562.807861,41.828106 561.245911,43.359306 560.073364,46.848412 
	C552.162415,70.388664 544.070312,93.868111 536.020264,117.361557 
	C534.866882,120.727554 533.623962,124.062874 532.211731,127.999916 
	C535.066345,127.999916 537.087341,127.743385 539.018250,128.051529 
	C543.498474,128.766510 545.677368,126.844734 546.761353,122.594849 
	C547.863831,118.272545 549.861633,114.167038 550.824585,109.824066 
	C551.742126,105.685867 553.909485,104.656540 557.825134,104.922241 
	C562.633789,105.248550 567.481384,105.000008 572.312195,105.000000 
	C585.132935,104.999992 585.132996,104.999992 589.111755,117.012482 
	C592.941956,128.576477 592.942017,128.579071 605.231445,127.881378 
	C605.520935,127.864944 605.797180,127.615211 606.339294,127.344734 
	C605.841736,125.489784 605.331970,123.589317 604.489746,120.981171 
M368.502991,58.994373 
	C360.643250,81.743050 352.783478,104.491722 344.661407,127.999619 
	C347.686340,127.999619 349.853088,127.757759 351.944824,128.050995 
	C356.045197,128.625809 357.924347,126.796227 358.965759,122.982170 
	C360.315063,118.040497 361.917480,113.131378 363.923645,108.426888 
	C364.562561,106.928482 366.803131,105.215790 368.367859,105.158463 
	C377.012146,104.841743 385.678589,104.866776 394.325562,105.144241 
	C395.757629,105.190193 397.857666,106.770500 398.403534,108.138672 
	C400.546448,113.509720 402.046387,119.135094 404.120148,124.537422 
	C404.652191,125.923515 406.307465,127.645210 407.626282,127.814590 
	C411.172943,128.270096 414.816620,127.970192 418.909271,127.970192 
	C418.248108,125.732925 417.850189,124.160301 417.321808,122.632812 
	C409.210327,99.182861 401.082123,75.738686 392.957184,52.293385 
	C389.257629,41.617920 389.258820,41.702721 377.997406,41.941856 
	C375.263550,41.999912 373.721283,42.782452 372.950623,45.513939 
	C371.738220,49.811192 370.220245,54.022217 368.502991,58.994373 
M736.432495,227.000000 
	C729.766724,226.999100 723.098511,226.891663 716.436279,227.044998 
	C713.384094,227.115250 711.814514,226.407578 711.943359,222.924179 
	C712.164978,216.933182 712.130981,210.924347 711.953735,204.930420 
	C711.861267,201.803360 713.137878,200.916901 716.080627,200.958633 
	C724.910950,201.083862 733.747559,200.857147 742.574707,201.066742 
	C746.160583,201.151871 747.265503,199.812424 747.052734,196.417648 
	C746.872375,193.540695 747.474304,190.840469 742.917053,190.922440 
	C729.923035,191.156143 716.921326,191.077988 703.924316,190.952545 
	C700.797180,190.922363 699.952332,192.151306 699.960876,195.085114 
	C700.036255,221.081360 700.044067,247.078049 699.954346,273.074188 
	C699.943604,276.197418 701.146362,277.062897 704.083496,277.040710 
	C717.580872,276.938660 731.082092,276.847229 744.576050,277.086365 
	C748.746399,277.160217 749.015015,275.190552 749.087891,271.921906 
	C749.166199,268.408264 748.379272,266.805878 744.415039,266.917358 
	C735.090393,267.179565 725.752014,266.911987 716.421936,267.046570 
	C713.355286,267.090790 711.844543,266.374481 711.941895,262.910736 
	C712.147827,255.584183 712.118103,248.245300 711.952454,240.916702 
	C711.881470,237.776428 713.166443,236.909027 716.094116,236.959457 
	C723.757385,237.091476 731.441467,236.692184 739.084106,237.110016 
	C744.063782,237.382248 745.330444,235.635391 745.105591,230.902359 
	C744.798584,224.439346 740.137451,227.909454 736.432495,227.000000 
M447.903931,226.897156 
	C447.270782,225.561676 446.138306,224.243622 446.091003,222.887695 
	C445.887726,217.061600 446.185638,211.216537 445.936157,205.394028 
	C445.780304,201.756989 447.277069,200.872375 450.619659,200.943283 
	C458.948975,201.119980 467.290314,200.818344 475.615265,201.078445 
	C479.602692,201.203033 481.171875,200.213608 481.151062,195.878128 
	C481.131226,191.738220 479.612885,190.876556 475.874451,190.931976 
	C463.544128,191.114761 451.207825,191.111313 438.877441,190.932114 
	C435.302429,190.880157 433.898254,191.748077 433.921722,195.633636 
	C434.076752,221.298676 434.041504,246.965256 433.952515,272.630920 
	C433.941681,275.756042 434.748077,277.095123 438.141388,277.057526 
	C451.639374,276.907990 465.142731,276.845001 478.638062,277.086029 
	C482.884247,277.161865 482.961823,275.037567 483.085144,271.860291 
	C483.225159,268.251892 482.225128,266.816559 478.351257,266.920227 
	C469.024902,267.169800 459.685730,266.902771 450.355042,267.050293 
	C447.209106,267.100037 445.849945,266.223694 445.943542,262.842896 
	C446.141846,255.681931 446.177246,248.505646 445.931458,241.347595 
	C445.804321,237.644516 447.379822,236.876999 450.665588,236.946167 
	C458.661804,237.114487 466.668884,236.834167 474.661682,237.069763 
	C478.369110,237.179062 479.218903,235.616562 479.053192,232.329987 
	C478.904968,229.390839 479.309692,226.772507 474.826569,226.918625 
	C466.169739,227.200790 457.496613,226.983322 447.903931,226.897156 
M620.497314,254.994858 
	C621.926697,259.229340 623.531311,263.414032 624.751587,267.707977 
	C628.007507,279.164825 625.597290,276.779724 637.667969,276.837463 
	C639.182434,276.844696 641.551819,275.045654 642.098999,273.558746 
	C649.238220,254.158600 656.131531,234.667801 663.060852,215.190628 
	C665.812439,207.456451 668.500793,199.699738 671.552185,191.000137 
	C668.289551,191.000137 665.983276,191.247498 663.751038,190.945999 
	C659.743042,190.404648 657.997070,191.977249 656.795227,195.876999 
	C653.678711,205.989532 649.916199,215.900925 646.549927,225.939011 
	C642.691895,237.443832 638.982971,248.998657 634.886169,261.519135 
	C634.047241,259.112518 633.483582,257.643372 633.019897,256.143341 
	C626.673645,235.613281 620.373840,215.068680 613.930115,194.569275 
	C613.508789,193.229095 612.116943,191.368301 610.992371,191.228256 
	C607.492920,190.792450 603.904846,191.068588 599.636414,191.068588 
	C606.698914,212.808182 613.433716,233.539108 620.497314,254.994858 
M818.015808,241.425385 
	C825.621277,246.204178 827.981873,251.349411 825.918884,258.651428 
	C824.326843,264.286591 818.221497,268.450500 810.544434,267.860321 
	C803.450195,267.314941 796.445984,265.598785 788.983887,264.326996 
	C788.893005,264.534729 788.369873,265.560730 787.986023,266.636414 
	C785.582703,273.371796 785.741943,273.673401 792.600281,276.016998 
	C800.905945,278.855133 809.514465,279.500549 817.969299,277.716278 
	C828.318604,275.532196 836.145996,269.940704 838.640442,258.758453 
	C841.016113,248.108582 835.903870,236.958862 826.025696,232.035446 
	C819.794495,228.929703 813.372681,226.199509 807.195129,222.994980 
	C802.334412,220.473572 799.363770,214.450668 800.394714,210.252380 
	C802.002563,203.704605 806.528320,199.744888 813.238403,200.106079 
	C819.686096,200.453156 826.087219,201.664383 832.962158,202.554581 
	C833.641296,200.416946 834.627686,197.312607 835.578918,194.318665 
	C828.507751,189.575409 818.798462,188.166519 807.569519,190.076675 
	C798.075745,191.691650 790.005676,199.588272 788.132629,209.095917 
	C786.398804,217.896774 790.229187,227.015671 798.669006,231.979340 
	C804.626648,235.483185 811.164429,238.000824 818.015808,241.425385 
M344.953766,268.444336 
	C343.277771,272.084961 344.186584,273.923737 348.273590,275.302521 
	C358.242737,278.665680 368.266693,279.927979 378.376556,276.877533 
	C390.629700,273.180359 397.819244,265.156281 396.082825,249.474335 
	C394.852722,238.365204 387.094666,233.174179 377.973114,229.077255 
	C373.168091,226.919113 368.172058,224.980667 363.796112,222.124985 
	C358.331940,218.559143 356.709015,213.486038 358.294861,208.502502 
	C359.748962,203.932831 365.618866,199.741150 371.233307,200.095657 
	C377.399292,200.485001 383.518951,201.608307 390.219330,202.485153 
	C390.998993,200.204056 392.049438,197.130707 393.063751,194.163101 
	C383.602203,187.771759 365.408325,187.318176 356.492798,193.962891 
	C352.785187,196.726166 348.506348,200.438446 347.307892,204.542801 
	C343.109467,218.921188 347.000916,228.470108 362.975555,235.869049 
	C367.328400,237.885162 371.783539,239.679367 376.175018,241.613281 
	C383.013977,244.625000 384.009430,251.057907 383.703461,257.074890 
	C383.434174,262.370544 379.045227,265.685089 373.893616,267.099213 
	C366.232086,269.202393 358.806763,268.178955 351.641571,264.865082 
	C350.080200,264.142944 348.464844,263.537689 346.684021,262.799744 
	C345.988586,264.845612 345.512115,266.247314 344.953766,268.444336 
M482.001282,57.704144 
	C481.429199,53.916416 483.133453,52.779549 486.808136,52.931023 
	C492.963928,53.184772 499.142395,52.850368 505.302948,53.038498 
	C510.171417,53.187172 508.838074,49.756561 508.975494,47.189972 
	C509.119293,44.505074 509.472229,41.906284 505.186279,41.939640 
	C485.688385,42.091400 466.188171,42.080021 446.689880,41.956528 
	C441.822083,41.925697 443.166504,45.253635 443.024719,47.816189 
	C442.875854,50.506435 442.531647,53.238838 446.821899,53.054455 
	C452.477783,52.811390 458.167389,53.254536 463.813507,52.917213 
	C468.087616,52.661858 469.115814,54.272060 469.082550,58.328522 
	C468.906158,79.826073 469.230927,101.329887 468.854919,122.822311 
	C468.747406,128.968719 472.241669,127.855125 475.829681,128.044037 
	C479.784210,128.252274 482.217133,127.972321 482.135345,122.658737 
	C481.807007,101.331444 481.999969,79.996132 482.001282,57.704144 
M907.000000,268.432953 
	C907.000183,247.767853 907.135925,227.101181 906.894165,206.438904 
	C906.841309,201.917450 908.256714,200.647018 912.576538,200.917084 
	C918.054626,201.259552 923.578064,200.820404 929.067383,201.056763 
	C932.724426,201.214233 933.233459,199.303925 933.006470,196.426102 
	C932.810364,193.940033 933.909973,190.931778 929.423279,190.960022 
	C910.425476,191.079697 891.426270,191.068695 872.428284,190.969177 
	C868.311279,190.947601 869.067993,193.679367 869.010254,196.075394 
	C868.949463,198.597519 868.573425,201.194687 872.580261,201.039276 
	C877.738647,200.839188 882.910889,200.995834 888.077148,201.000183 
	C894.994751,201.006027 894.998535,201.006592 894.999268,208.085938 
	C895.001587,229.417679 894.955627,250.749695 895.091187,272.080597 
	C895.101501,273.695343 896.043152,276.377045 897.147644,276.737518 
	C904.239380,279.052277 906.989685,276.842987 907.000000,268.432953 
M669.498535,127.999992 
	C673.997803,127.998360 678.511047,127.774139 682.992371,128.056595 
	C687.639343,128.349503 687.002014,125.312157 687.001709,122.500351 
	C687.001404,119.689224 687.637207,116.800545 682.994812,116.928123 
	C673.670166,117.184380 664.328613,116.826752 655.003845,117.081322 
	C651.051331,117.189217 649.886780,115.927788 649.920044,111.992577 
	C650.093445,91.497429 650.075256,70.999619 649.966248,50.503571 
	C649.916809,41.201508 651.940308,42.130424 640.999329,41.956772 
	C637.959778,41.908527 636.947327,42.982613 636.957031,46.008080 
	C637.040466,72.003525 637.040466,97.999466 636.957031,123.994911 
	C636.947327,127.024475 637.970032,128.090454 641.004456,128.045090 
	C650.167542,127.908089 659.334045,127.998344 669.498535,127.999992 
M732.000000,99.500000 
	C731.999878,82.169403 731.759583,64.833557 732.137939,47.511227 
	C732.260132,41.916794 729.592163,41.902130 725.502319,41.905701 
	C721.421387,41.909267 718.787537,41.909077 718.862732,47.505348 
	C719.185242,71.497215 718.944885,95.496101 719.027527,119.492020 
	C719.059875,128.883728 717.394287,127.793671 727.495605,128.059418 
	C730.985657,128.151230 732.158508,126.985153 732.062866,123.494576 
	C731.853027,115.834892 731.999207,108.165451 732.000000,99.500000 
M199.426575,14.226906 
	C199.341583,14.409129 199.256607,14.591352 199.171631,14.773576 
	C199.369965,14.731677 199.568298,14.689778 199.426575,14.226906 
z"/>
<path fill="#FCC820" opacity="1.000000" stroke="none" 
	d="
M214.000000,23.100069 
	C214.000000,19.953087 214.000000,17.289795 214.000000,14.078007 
	C221.398926,17.217192 228.551270,20.116215 235.592010,23.264824 
	C255.389969,32.118420 275.125397,41.112034 294.935150,49.938900 
	C297.168396,50.933994 298.070160,52.040741 298.063019,54.594654 
	C297.966644,89.082710 297.996063,123.571106 297.985962,158.059418 
	C297.985809,158.552521 297.878510,159.045593 297.753876,160.118271 
	C291.866791,157.623962 286.106659,155.315155 280.455200,152.765442 
	C259.506134,143.314102 238.620621,133.721207 217.633347,124.356003 
	C214.802856,123.092941 213.911026,121.621422 213.923187,118.551521 
	C214.048340,86.895996 214.000015,55.239780 214.000000,23.100069 
z"/>
<path fill="#1CBAE9" opacity="1.000000" stroke="none" 
	d="
M18.000000,185.000000 
	C18.000000,169.084396 18.000000,153.668793 18.000000,137.630630 
	C31.706781,143.730103 44.728447,149.486069 57.717262,155.315231 
	C71.485573,161.494217 85.251274,167.681412 98.928452,174.057343 
	C100.273071,174.684189 101.865501,176.651840 101.871704,178.003891 
	C102.033104,213.143539 101.999458,248.284073 101.999458,283.939117 
	C96.294464,281.489410 90.917801,279.251343 85.598564,276.884216 
	C64.407997,267.454163 43.242027,257.968811 22.047665,248.547302 
	C19.345045,247.345886 17.814716,246.078735 17.867912,242.488983 
	C18.149361,223.496170 18.000010,204.496979 18.000000,185.000000 
z"/>
<path fill="#76B942" opacity="1.000000" stroke="none" 
	d="
M116.166496,158.999115 
	C116.121918,123.642616 116.077339,88.286110 116.495010,52.463936 
	C118.573677,51.690746 120.315742,51.671444 121.786697,51.030228 
	C133.827606,45.781418 145.808578,40.395355 157.826202,35.092789 
	C171.817505,28.919363 185.827454,22.788200 199.829315,16.638702 
	C199.875275,51.456573 199.921234,86.274445 199.745590,121.673035 
	C199.327988,122.422722 199.159836,122.615913 199.019516,122.833344 
	C183.610046,129.877533 168.224121,136.973816 152.783279,143.948563 
	C141.509277,149.041107 130.162979,153.973648 118.156906,158.997589 
	C117.032089,159.011475 116.599297,159.005295 116.166496,158.999115 
z"/>
<path fill="#F07D10" opacity="1.000000" stroke="none" 
	d="
M199.833344,142.000854 
	C199.888596,175.958176 199.973969,209.915558 199.888489,243.872528 
	C199.885086,245.224854 198.569870,247.269440 197.341293,247.819199 
	C177.464340,256.713684 157.490082,265.390350 137.567963,274.184479 
	C132.355301,276.485474 127.260780,279.052795 122.078941,281.425598 
	C120.203011,282.284637 118.230354,282.932434 116.025986,283.783051 
	C116.025986,248.506760 116.025986,213.717560 116.462585,178.439407 
	C121.435486,176.006363 125.977188,174.074768 130.507019,172.115707 
	C141.088379,167.539505 151.667542,162.958191 162.241104,158.363983 
	C174.775406,152.917831 187.302902,147.455933 199.833344,142.000854 
z"/>
<path fill="#494948" opacity="1.000000" stroke="none" 
	d="
M457.000000,157.000000 
	C615.737061,157.000000 773.974121,157.000000 932.645386,157.000000 
	C932.751404,159.075119 932.831238,160.637161 932.932007,162.610138 
	C736.001282,162.610138 539.492554,162.610138 342.983765,162.614944 
	C341.309753,157.499680 341.620361,157.012665 347.041138,157.010010 
	C383.527435,156.992111 420.013702,157.000275 457.000000,157.000000 
z"/>
<path fill="#494948" opacity="1.000000" stroke="none" 
	d="
M922.000000,52.041252 
	C922.000000,50.383053 922.150024,49.193779 921.973999,48.054901 
	C921.237915,43.292728 923.049927,41.784733 927.952148,41.819599 
	C932.701782,41.853390 934.164978,43.053001 934.114746,47.953770 
	C933.863770,72.439201 934.048218,96.928856 933.916504,121.416153 
	C933.904846,123.579742 933.331360,126.999878 931.964478,127.662971 
	C927.680969,129.741013 921.762634,127.625755 919.711975,124.407349 
	C907.794373,105.703743 895.834290,87.027206 883.857910,68.361137 
	C883.121582,67.213501 882.123535,66.233780 880.351562,64.094696 
	C880.184937,67.223564 880.014221,68.959419 880.012207,70.695480 
	C879.991882,88.186890 879.834534,105.680885 880.107056,123.168068 
	C880.181213,127.930885 877.907837,128.095596 874.329773,128.077728 
	C870.888306,128.060562 868.867126,127.756287 868.902405,123.328949 
	C869.105652,97.843063 869.059937,72.354424 868.934143,46.867535 
	C868.916504,43.293156 869.841919,42.204460 873.616943,41.820206 
	C879.804749,41.190365 883.241699,43.716095 886.322693,48.738010 
	C896.793396,65.804619 907.613892,82.656738 918.326294,99.574623 
	C919.023438,100.675575 919.935730,101.640312 922.000000,102.523544 
	C922.000000,85.860146 922.000000,69.196754 922.000000,52.041252 
z"/>
<path fill="#494948" opacity="1.000000" stroke="none" 
	d="
M572.000000,212.131317 
	C572.965027,223.335480 568.220703,230.764511 558.064697,235.544342 
	C571.786072,245.932053 568.921753,262.655975 575.784790,276.894958 
	C571.282349,276.894958 567.872131,277.129852 564.531433,276.751129 
	C563.535522,276.638214 562.268188,274.939941 561.922424,273.738586 
	C560.141479,267.552002 558.465881,261.325745 557.039734,255.048340 
	C553.989502,241.623169 545.589355,239.396774 533.502563,240.218094 
	C532.588257,240.280228 531.145935,242.678055 531.115601,244.016571 
	C530.904297,253.341461 530.699158,262.686890 531.117798,271.997589 
	C531.350586,277.173553 528.616638,277.057129 524.994080,277.062988 
	C521.354980,277.068878 518.824341,277.129578 518.879272,271.989502 
	C519.148071,246.835754 519.033752,221.677444 518.959534,196.521027 
	C518.950439,193.450241 519.530945,191.101059 523.072449,191.070786 
	C532.978455,190.986084 542.952820,190.311432 552.773743,191.226730 
	C563.079102,192.187164 572.634521,200.748672 572.000000,212.131317 
M534.739624,230.993683 
	C540.545654,230.127304 546.670227,230.134430 552.073608,228.163956 
	C558.233032,225.917786 560.472534,220.231750 560.026550,213.602432 
	C559.625732,207.645340 556.751709,203.121246 551.130798,201.822464 
	C545.284363,200.471542 539.099121,200.517548 533.048828,200.222260 
	C532.419800,200.191559 531.132446,201.978790 531.114197,202.940796 
	C530.957092,211.233063 530.920532,219.532242 531.143066,227.821426 
	C531.171936,228.894913 532.880798,229.923309 534.739624,230.993683 
z"/>
<path fill="#494948" opacity="1.000000" stroke="none" 
	d="
M813.084534,54.885960 
	C821.450623,79.167290 829.732178,103.060188 838.350342,127.924210 
	C833.734375,127.924210 829.812134,128.179016 825.962280,127.763062 
	C824.861511,127.644119 823.556702,125.734734 823.057190,124.383286 
	C821.163025,119.257980 819.472900,114.051483 817.885132,108.821098 
	C817.056702,106.092117 815.737000,104.837898 812.635559,104.924759 
	C804.477295,105.153229 796.306396,105.109482 788.145020,104.946358 
	C785.135864,104.886208 783.702515,105.955475 782.847656,108.857498 
	C781.446411,113.614235 779.342651,118.166290 777.984436,122.932709 
	C776.910217,126.702621 775.130859,128.642365 770.988464,128.051620 
	C768.898804,127.753609 766.731445,127.999588 763.805725,127.999588 
	C767.421387,117.446297 770.769104,107.616463 774.156738,97.800354 
	C780.153076,80.424843 786.192322,63.064110 792.162598,45.679638 
	C792.988525,43.274624 794.007935,41.952404 797.009338,41.903885 
	C808.596680,41.716560 808.593811,41.571754 812.330261,52.625214 
	C812.542480,53.253036 812.776245,53.873596 813.084534,54.885960 
M793.502930,75.994621 
	C791.492859,82.156746 789.482788,88.318878 787.416870,94.652161 
	C796.326233,94.652161 804.382629,94.652161 813.067322,94.652161 
	C808.852539,82.139015 804.810547,70.138618 800.768494,58.138222 
	C800.303406,58.226128 799.838379,58.314034 799.373352,58.401939 
	C797.526123,64.024590 795.678833,69.647232 793.502930,75.994621 
z"/>
<path fill="#494948" opacity="1.000000" stroke="none" 
	d="
M604.656006,121.335014 
	C605.331970,123.589317 605.841736,125.489784 606.339294,127.344734 
	C605.797180,127.615211 605.520935,127.864944 605.231445,127.881378 
	C592.942017,128.579071 592.941956,128.576477 589.111755,117.012482 
	C585.132996,104.999992 585.132935,104.999992 572.312195,105.000000 
	C567.481384,105.000008 562.633789,105.248550 557.825134,104.922241 
	C553.909485,104.656540 551.742126,105.685867 550.824585,109.824066 
	C549.861633,114.167038 547.863831,118.272545 546.761353,122.594849 
	C545.677368,126.844734 543.498474,128.766510 539.018250,128.051529 
	C537.087341,127.743385 535.066345,127.999916 532.211731,127.999916 
	C533.623962,124.062874 534.866882,120.727554 536.020264,117.361557 
	C544.070312,93.868111 552.162415,70.388664 560.073364,46.848412 
	C561.245911,43.359306 562.807861,41.828106 566.727783,41.899414 
	C577.048340,42.087166 576.977783,41.914909 580.320007,51.568226 
	C588.335754,74.719994 596.428223,97.845230 604.656006,121.335014 
M563.175354,72.702217 
	C560.847412,79.885468 558.519409,87.068726 556.050049,94.688370 
	C564.760681,94.688370 572.923096,94.688370 581.846680,94.688370 
	C577.587402,82.391335 573.508484,70.614944 569.429565,58.838562 
	C568.793579,58.902077 568.157654,58.965591 567.521667,59.029102 
	C566.185852,63.344276 564.850098,67.659447 563.175354,72.702217 
z"/>
<path fill="#494948" opacity="1.000000" stroke="none" 
	d="
M368.667328,58.632061 
	C370.220245,54.022217 371.738220,49.811192 372.950623,45.513939 
	C373.721283,42.782452 375.263550,41.999912 377.997406,41.941856 
	C389.258820,41.702721 389.257629,41.617920 392.957184,52.293385 
	C401.082123,75.738686 409.210327,99.182861 417.321808,122.632812 
	C417.850189,124.160301 418.248108,125.732925 418.909271,127.970192 
	C414.816620,127.970192 411.172943,128.270096 407.626282,127.814590 
	C406.307465,127.645210 404.652191,125.923515 404.120148,124.537422 
	C402.046387,119.135094 400.546448,113.509720 398.403534,108.138672 
	C397.857666,106.770500 395.757629,105.190193 394.325562,105.144241 
	C385.678589,104.866776 377.012146,104.841743 368.367859,105.158463 
	C366.803131,105.215790 364.562561,106.928482 363.923645,108.426888 
	C361.917480,113.131378 360.315063,118.040497 358.965759,122.982170 
	C357.924347,126.796227 356.045197,128.625809 351.944824,128.050995 
	C349.853088,127.757759 347.686340,127.999619 344.661407,127.999619 
	C352.783478,104.491722 360.643250,81.743050 368.667328,58.632061 
M373.502930,78.994514 
	C371.825348,84.139114 370.147766,89.283722 368.426178,94.563248 
	C377.163330,94.563248 385.335266,94.563248 394.058228,94.563248 
	C389.827240,82.047310 385.789917,70.104355 381.752625,58.161404 
	C381.274750,58.278923 380.796906,58.396446 380.319031,58.513969 
	C378.156555,65.099274 375.994080,71.684578 373.502930,78.994514 
z"/>
<path fill="#494948" opacity="1.000000" stroke="none" 
	d="
M736.918945,227.000000 
	C740.137451,227.909454 744.798584,224.439346 745.105591,230.902359 
	C745.330444,235.635391 744.063782,237.382248 739.084106,237.110016 
	C731.441467,236.692184 723.757385,237.091476 716.094116,236.959457 
	C713.166443,236.909027 711.881470,237.776428 711.952454,240.916702 
	C712.118103,248.245300 712.147827,255.584183 711.941895,262.910736 
	C711.844543,266.374481 713.355286,267.090790 716.421936,267.046570 
	C725.752014,266.911987 735.090393,267.179565 744.415039,266.917358 
	C748.379272,266.805878 749.166199,268.408264 749.087891,271.921906 
	C749.015015,275.190552 748.746399,277.160217 744.576050,277.086365 
	C731.082092,276.847229 717.580872,276.938660 704.083496,277.040710 
	C701.146362,277.062897 699.943604,276.197418 699.954346,273.074188 
	C700.044067,247.078049 700.036255,221.081360 699.960876,195.085114 
	C699.952332,192.151306 700.797180,190.922363 703.924316,190.952545 
	C716.921326,191.077988 729.923035,191.156143 742.917053,190.922440 
	C747.474304,190.840469 746.872375,193.540695 747.052734,196.417648 
	C747.265503,199.812424 746.160583,201.151871 742.574707,201.066742 
	C733.747559,200.857147 724.910950,201.083862 716.080627,200.958633 
	C713.137878,200.916901 711.861267,201.803360 711.953735,204.930420 
	C712.130981,210.924347 712.164978,216.933182 711.943359,222.924179 
	C711.814514,226.407578 713.384094,227.115250 716.436279,227.044998 
	C723.098511,226.891663 729.766724,226.999100 736.918945,227.000000 
z"/>
<path fill="#494948" opacity="1.000000" stroke="none" 
	d="
M448.367096,226.935074 
	C457.496613,226.983322 466.169739,227.200790 474.826569,226.918625 
	C479.309692,226.772507 478.904968,229.390839 479.053192,232.329987 
	C479.218903,235.616562 478.369110,237.179062 474.661682,237.069763 
	C466.668884,236.834167 458.661804,237.114487 450.665588,236.946167 
	C447.379822,236.876999 445.804321,237.644516 445.931458,241.347595 
	C446.177246,248.505646 446.141846,255.681931 445.943542,262.842896 
	C445.849945,266.223694 447.209106,267.100037 450.355042,267.050293 
	C459.685730,266.902771 469.024902,267.169800 478.351257,266.920227 
	C482.225128,266.816559 483.225159,268.251892 483.085144,271.860291 
	C482.961823,275.037567 482.884247,277.161865 478.638062,277.086029 
	C465.142731,276.845001 451.639374,276.907990 438.141388,277.057526 
	C434.748077,277.095123 433.941681,275.756042 433.952515,272.630920 
	C434.041504,246.965256 434.076752,221.298676 433.921722,195.633636 
	C433.898254,191.748077 435.302429,190.880157 438.877441,190.932114 
	C451.207825,191.111313 463.544128,191.114761 475.874451,190.931976 
	C479.612885,190.876556 481.131226,191.738220 481.151062,195.878128 
	C481.171875,200.213608 479.602692,201.203033 475.615265,201.078445 
	C467.290314,200.818344 458.948975,201.119980 450.619659,200.943283 
	C447.277069,200.872375 445.780304,201.756989 445.936157,205.394028 
	C446.185638,211.216537 445.887726,217.061600 446.091003,222.887695 
	C446.138306,224.243622 447.270782,225.561676 448.367096,226.935074 
z"/>
<path fill="#494948" opacity="1.000000" stroke="none" 
	d="
M620.332886,254.632446 
	C613.433716,233.539108 606.698914,212.808182 599.636414,191.068588 
	C603.904846,191.068588 607.492920,190.792450 610.992371,191.228256 
	C612.116943,191.368301 613.508789,193.229095 613.930115,194.569275 
	C620.373840,215.068680 626.673645,235.613281 633.019897,256.143341 
	C633.483582,257.643372 634.047241,259.112518 634.886169,261.519135 
	C638.982971,248.998657 642.691895,237.443832 646.549927,225.939011 
	C649.916199,215.900925 653.678711,205.989532 656.795227,195.876999 
	C657.997070,191.977249 659.743042,190.404648 663.751038,190.945999 
	C665.983276,191.247498 668.289551,191.000137 671.552185,191.000137 
	C668.500793,199.699738 665.812439,207.456451 663.060852,215.190628 
	C656.131531,234.667801 649.238220,254.158600 642.098999,273.558746 
	C641.551819,275.045654 639.182434,276.844696 637.667969,276.837463 
	C625.597290,276.779724 628.007507,279.164825 624.751587,267.707977 
	C623.531311,263.414032 621.926697,259.229340 620.332886,254.632446 
z"/>
<path fill="#494948" opacity="1.000000" stroke="none" 
	d="
M817.729492,241.192062 
	C811.164429,238.000824 804.626648,235.483185 798.669006,231.979340 
	C790.229187,227.015671 786.398804,217.896774 788.132629,209.095917 
	C790.005676,199.588272 798.075745,191.691650 807.569519,190.076675 
	C818.798462,188.166519 828.507751,189.575409 835.578918,194.318665 
	C834.627686,197.312607 833.641296,200.416946 832.962158,202.554581 
	C826.087219,201.664383 819.686096,200.453156 813.238403,200.106079 
	C806.528320,199.744888 802.002563,203.704605 800.394714,210.252380 
	C799.363770,214.450668 802.334412,220.473572 807.195129,222.994980 
	C813.372681,226.199509 819.794495,228.929703 826.025696,232.035446 
	C835.903870,236.958862 841.016113,248.108582 838.640442,258.758453 
	C836.145996,269.940704 828.318604,275.532196 817.969299,277.716278 
	C809.514465,279.500549 800.905945,278.855133 792.600281,276.016998 
	C785.741943,273.673401 785.582703,273.371796 787.986023,266.636414 
	C788.369873,265.560730 788.893005,264.534729 788.983887,264.326996 
	C796.445984,265.598785 803.450195,267.314941 810.544434,267.860321 
	C818.221497,268.450500 824.326843,264.286591 825.918884,258.651428 
	C827.981873,251.349411 825.621277,246.204178 817.729492,241.192062 
z"/>
<path fill="#494948" opacity="1.000000" stroke="none" 
	d="
M344.994690,268.046692 
	C345.512115,266.247314 345.988586,264.845612 346.684021,262.799744 
	C348.464844,263.537689 350.080200,264.142944 351.641571,264.865082 
	C358.806763,268.178955 366.232086,269.202393 373.893616,267.099213 
	C379.045227,265.685089 383.434174,262.370544 383.703461,257.074890 
	C384.009430,251.057907 383.013977,244.625000 376.175018,241.613281 
	C371.783539,239.679367 367.328400,237.885162 362.975555,235.869049 
	C347.000916,228.470108 343.109467,218.921188 347.307892,204.542801 
	C348.506348,200.438446 352.785187,196.726166 356.492798,193.962891 
	C365.408325,187.318176 383.602203,187.771759 393.063751,194.163101 
	C392.049438,197.130707 390.998993,200.204056 390.219330,202.485153 
	C383.518951,201.608307 377.399292,200.485001 371.233307,200.095657 
	C365.618866,199.741150 359.748962,203.932831 358.294861,208.502502 
	C356.709015,213.486038 358.331940,218.559143 363.796112,222.124985 
	C368.172058,224.980667 373.168091,226.919113 377.973114,229.077255 
	C387.094666,233.174179 394.852722,238.365204 396.082825,249.474335 
	C397.819244,265.156281 390.629700,273.180359 378.376556,276.877533 
	C368.266693,279.927979 358.242737,278.665680 348.273590,275.302521 
	C344.186584,273.923737 343.277771,272.084961 344.994690,268.046692 
z"/>
<path fill="#494948" opacity="1.000000" stroke="none" 
	d="
M482.000763,58.183960 
	C481.999969,79.996132 481.807007,101.331444 482.135345,122.658737 
	C482.217133,127.972321 479.784210,128.252274 475.829681,128.044037 
	C472.241669,127.855125 468.747406,128.968719 468.854919,122.822311 
	C469.230927,101.329887 468.906158,79.826073 469.082550,58.328522 
	C469.115814,54.272060 468.087616,52.661858 463.813507,52.917213 
	C458.167389,53.254536 452.477783,52.811390 446.821899,53.054455 
	C442.531647,53.238838 442.875854,50.506435 443.024719,47.816189 
	C443.166504,45.253635 441.822083,41.925697 446.689880,41.956528 
	C466.188171,42.080021 485.688385,42.091400 505.186279,41.939640 
	C509.472229,41.906284 509.119293,44.505074 508.975494,47.189972 
	C508.838074,49.756561 510.171417,53.187172 505.302948,53.038498 
	C499.142395,52.850368 492.963928,53.184772 486.808136,52.931023 
	C483.133453,52.779549 481.429199,53.916416 482.000763,58.183960 
z"/>
<path fill="#494948" opacity="1.000000" stroke="none" 
	d="
M907.000000,268.919617 
	C906.989685,276.842987 904.239380,279.052277 897.147644,276.737518 
	C896.043152,276.377045 895.101501,273.695343 895.091187,272.080597 
	C894.955627,250.749695 895.001587,229.417679 894.999268,208.085938 
	C894.998535,201.006592 894.994751,201.006027 888.077148,201.000183 
	C882.910889,200.995834 877.738647,200.839188 872.580261,201.039276 
	C868.573425,201.194687 868.949463,198.597519 869.010254,196.075394 
	C869.067993,193.679367 868.311279,190.947601 872.428284,190.969177 
	C891.426270,191.068695 910.425476,191.079697 929.423279,190.960022 
	C933.909973,190.931778 932.810364,193.940033 933.006470,196.426102 
	C933.233459,199.303925 932.724426,201.214233 929.067383,201.056763 
	C923.578064,200.820404 918.054626,201.259552 912.576538,200.917084 
	C908.256714,200.647018 906.841309,201.917450 906.894165,206.438904 
	C907.135925,227.101181 907.000183,247.767853 907.000000,268.919617 
z"/>
<path fill="#494948" opacity="1.000000" stroke="none" 
	d="
M668.998901,128.000000 
	C659.334045,127.998344 650.167542,127.908089 641.004456,128.045090 
	C637.970032,128.090454 636.947327,127.024475 636.957031,123.994911 
	C637.040466,97.999466 637.040466,72.003525 636.957031,46.008080 
	C636.947327,42.982613 637.959778,41.908527 640.999329,41.956772 
	C651.940308,42.130424 649.916809,41.201508 649.966248,50.503571 
	C650.075256,70.999619 650.093445,91.497429 649.920044,111.992577 
	C649.886780,115.927788 651.051331,117.189217 655.003845,117.081322 
	C664.328613,116.826752 673.670166,117.184380 682.994812,116.928123 
	C687.637207,116.800545 687.001404,119.689224 687.001709,122.500351 
	C687.002014,125.312157 687.639343,128.349503 682.992371,128.056595 
	C678.511047,127.774139 673.997803,127.998360 668.998901,128.000000 
z"/>
<path fill="#494948" opacity="1.000000" stroke="none" 
	d="
M732.000000,100.000000 
	C731.999207,108.165451 731.853027,115.834892 732.062866,123.494576 
	C732.158508,126.985153 730.985657,128.151230 727.495605,128.059418 
	C717.394287,127.793671 719.059875,128.883728 719.027527,119.492020 
	C718.944885,95.496101 719.185242,71.497215 718.862732,47.505348 
	C718.787537,41.909077 721.421387,41.909267 725.502319,41.905701 
	C729.592163,41.902130 732.260132,41.916794 732.137939,47.511227 
	C731.759583,64.833557 731.999878,82.169403 732.000000,100.000000 
z"/>
<path fill="#F07D10" opacity="1.000000" stroke="none" 
	d="
M199.903198,141.611420 
	C187.302902,147.455933 174.775406,152.917831 162.241104,158.363983 
	C151.667542,162.958191 141.088379,167.539505 130.507019,172.115707 
	C125.977188,174.074768 121.435486,176.006363 116.532921,177.975464 
	C116.947014,176.623581 117.393425,174.504486 118.557617,173.980652 
	C137.376129,165.513184 156.301804,157.284378 175.167374,148.920731 
	C183.189514,145.364304 191.129135,141.621689 199.542862,137.763474 
	C199.713120,139.132172 199.843094,140.177078 199.903198,141.611420 
z"/>
<path fill="#76B942" opacity="1.000000" stroke="none" 
	d="
M199.845612,16.141108 
	C185.827454,22.788200 171.817505,28.919363 157.826202,35.092789 
	C145.808578,40.395355 133.827606,45.781418 121.786697,51.030228 
	C120.315742,51.671444 118.573677,51.690746 116.561958,51.999592 
	C125.042030,47.694870 133.828491,43.192226 142.813431,39.128433 
	C156.611801,32.887573 170.557068,26.972118 184.417191,20.866819 
	C188.596909,19.025686 192.665695,16.929295 196.871185,15.153198 
	C197.658630,14.820644 198.854507,15.455235 199.845612,16.141108 
z"/>
<path fill="#76B942" opacity="1.000000" stroke="none" 
	d="
M116.196472,159.296417 
	C116.599297,159.005295 117.032089,159.011475 117.789444,159.030090 
	C117.484810,159.226273 116.855629,159.410004 116.196472,159.296417 
z"/>
<path fill="#76B942" opacity="1.000000" stroke="none" 
	d="
M199.266068,122.849678 
	C199.159836,122.615913 199.327988,122.422722 199.678680,122.138977 
	C199.979782,122.401329 199.872864,122.681938 199.266068,122.849678 
z"/>
<path fill="#76B942" opacity="1.000000" stroke="none" 
	d="
M199.596603,14.437393 
	C199.568298,14.689778 199.369965,14.731677 199.171631,14.773575 
	C199.256607,14.591352 199.341583,14.409129 199.596603,14.437393 
z"/>
<path fill="#000000" opacity="1.000000" stroke="none" 
	d="
M534.275513,230.983124 
	C532.880798,229.923309 531.171936,228.894913 531.143066,227.821426 
	C530.920532,219.532242 530.957092,211.233063 531.114197,202.940796 
	C531.132446,201.978790 532.419800,200.191559 533.048828,200.222260 
	C539.099121,200.517548 545.284363,200.471542 551.130798,201.822464 
	C556.751709,203.121246 559.625732,207.645340 560.026550,213.602432 
	C560.472534,220.231750 558.233032,225.917786 552.073608,228.163956 
	C546.670227,230.134430 540.545654,230.127304 534.275513,230.983124 
z"/>
<path fill="#000000" opacity="1.000000" stroke="none" 
	d="
M793.667236,75.632248 
	C795.678833,69.647232 797.526123,64.024590 799.373352,58.401939 
	C799.838379,58.314034 800.303406,58.226128 800.768494,58.138222 
	C804.810547,70.138618 808.852539,82.139015 813.067322,94.652161 
	C804.382629,94.652161 796.326233,94.652161 787.416870,94.652161 
	C789.482788,88.318878 791.492859,82.156746 793.667236,75.632248 
z"/>
<path fill="#000000" opacity="1.000000" stroke="none" 
	d="
M563.344849,72.338425 
	C564.850098,67.659447 566.185852,63.344276 567.521667,59.029102 
	C568.157654,58.965591 568.793579,58.902077 569.429565,58.838562 
	C573.508484,70.614944 577.587402,82.391335 581.846680,94.688370 
	C572.923096,94.688370 564.760681,94.688370 556.050049,94.688370 
	C558.519409,87.068726 560.847412,79.885468 563.344849,72.338425 
z"/>
<path fill="#000000" opacity="1.000000" stroke="none" 
	d="
M373.667267,78.632202 
	C375.994080,71.684578 378.156555,65.099274 380.319031,58.513969 
	C380.796906,58.396446 381.274750,58.278923 381.752625,58.161404 
	C385.789917,70.104355 389.827240,82.047310 394.058228,94.563248 
	C385.335266,94.563248 377.163330,94.563248 368.426178,94.563248 
	C370.147766,89.283722 371.825348,84.139114 373.667267,78.632202 
z"/>
</svg>