<svg version="1.1" id="Layer_1" xmlns="http://www.w3.org/2000/svg" xmlns:xlink="http://www.w3.org/1999/xlink" x="0px" y="0px"
	 width="100%" viewBox="0 0 900 500" enable-background="new 0 0 900 500" xml:space="preserve">
<path fill="none" opacity="1.000000" stroke="#000000" stroke-linecap="round" stroke-linejoin="round" stroke-width="14.000000"
	d="
M349.500000,12.500000 
	C349.500000,85.666664 349.535278,158.833374 349.452606,231.999939 
	C349.442932,240.560471 352.493256,246.850418 360.469574,250.565323 
	C362.331299,251.432373 364.114105,251.493835 366.000000,251.494324 
	C396.833344,251.502319 427.678528,252.011444 458.495270,251.296707 
	C475.363739,250.905472 491.484131,245.790115 505.954834,236.926285 
	C536.752991,218.061356 552.727844,189.539215 557.960083,154.494034 
	C562.443481,124.464890 557.384888,95.825119 542.323853,69.601166 
	C528.377808,45.318501 507.383057,29.310781 480.018402,21.931738 
	C468.006775,18.692724 455.806396,17.694122 443.499451,17.547327 
	C427.335083,17.354525 411.166656,17.499804 395.000000,17.500082 
	C387.037872,17.500219 385.500122,19.037840 385.500092,27.000000 
	C385.499908,74.333336 385.307526,121.667984 385.632385,168.999084 
	C385.715881,181.160873 385.793976,193.333939 386.007751,205.499863 
	C386.104187,210.989426 390.507782,215.899399 396.000458,215.941589 
	C415.499298,216.091324 435.065918,217.004730 454.482330,215.730713 
	C475.911743,214.324585 492.915253,203.512939 503.887085,184.933319 
	C518.944458,159.435242 521.060669,132.072006 512.395447,104.032310 
	C506.579956,85.213921 495.361816,70.211739 477.467834,61.062931 
	C469.708374,57.095699 461.341187,55.171638 452.502960,54.902454 
	C444.504425,54.658848 436.528656,53.693695 428.499725,53.992550 
	C420.989502,54.272099 419.649597,55.131313 419.425201,62.997868 
	C418.531342,94.331543 419.241943,125.667023 419.027863,157.000183 
	C418.994843,161.832153 419.249725,166.671402 419.522705,171.498718 
	C419.816833,176.699844 422.419403,179.323776 428.001251,179.438812 
	C435.331024,179.589859 442.744720,180.184113 449.984619,178.912369 
	C459.836060,177.181854 467.274170,171.748764 471.478638,162.490295 
	C479.107422,145.691208 479.368622,128.785721 471.466217,112.015923 
	C465.733917,99.851326 456.270660,93.672737 442.498230,94.981331 
	C441.845367,95.043365 441.166656,94.833336 440.500000,94.750000 
"/>
<path fill="none" opacity="1.000000" stroke="#000000" stroke-linecap="round" stroke-linejoin="round" stroke-width="7.000000"
	d="
M599.500000,440.500000 
	C598.006714,440.762085 596.988770,440.031921 595.986267,439.013519 
	C588.153198,431.056427 574.060913,430.544495 565.049927,436.081238 
	C554.645325,442.474213 549.313110,454.100250 552.465637,466.508728 
	C556.227234,481.314484 566.715637,487.212097 578.012146,487.739594 
	C585.222778,488.076294 592.174438,484.985931 597.485474,479.485931 
	C599.788391,477.101044 599.570679,474.003906 599.497925,471.000061 
	C599.243408,460.499908 599.240234,460.500000 589.000000,460.500000 
	C585.166687,460.500000 581.333313,460.500000 577.500000,460.500000 
"/>
<path fill="none" opacity="1.000000" stroke="#000000" stroke-linecap="round" stroke-linejoin="round" stroke-width="7.000000"
	d="
M570.500000,381.000000 
	C578.577454,381.475800 586.643982,380.537537 594.779602,381.810913 
	C601.354614,382.840057 611.414001,374.347290 611.991821,368.499207 
	C612.957275,358.729187 608.586060,352.033600 597.971191,349.104279 
	C589.838013,346.859802 581.338135,348.141479 572.999451,348.051117 
	C569.941345,348.018036 568.822388,350.143524 569.004028,352.999756 
	C569.586426,362.157654 569.200867,371.350128 569.535095,380.516937 
	C569.790344,387.516876 569.483887,394.840332 569.000000,402.000000 
"/>
<path fill="none" opacity="1.000000" stroke="#000000" stroke-linecap="round" stroke-linejoin="round" stroke-width="7.000000"
	d="
M299.000000,433.000000 
	C299.000000,449.333344 299.104156,465.667816 298.923950,481.999176 
	C298.881012,485.893829 300.104614,487.143219 304.001312,487.076477 
	C316.164398,486.868073 328.333344,487.000000 340.500000,487.000000 
"/>
<path fill="none" opacity="1.000000" stroke="#000000" stroke-linecap="round" stroke-linejoin="round" stroke-width="8.000000"
	d="
M456.500000,429.500000 
	C456.500000,449.500000 456.500000,469.500000 456.500000,489.500000 
"/>
<path fill="none" opacity="1.000000" stroke="#000000" stroke-linecap="round" stroke-linejoin="round" stroke-width="8.000000"
	d="
M358.500000,429.500000 
	C358.500000,449.500000 358.500000,469.500000 358.500000,489.500000 
"/>
<path fill="none" opacity="1.000000" stroke="#000000" stroke-linecap="round" stroke-linejoin="round" stroke-width="7.000000"
	d="
M407.500000,483.500000 
	C404.473938,482.342560 403.343597,479.437042 402.072021,476.962982 
	C395.087738,463.373901 388.299469,449.683380 381.534149,435.983124 
	C380.441040,433.769470 379.413330,431.885712 376.500000,432.500000 
"/>
<path fill="none" opacity="1.000000" stroke="#000000" stroke-linecap="round" stroke-linejoin="round" stroke-width="8.000000"
	d="
M484.250000,433.500000 
	C484.737885,435.523804 485.566315,437.640869 483.976929,439.480072 
	C481.722260,442.089081 483.621521,444.849762 483.575256,447.501312 
	C483.392059,457.998108 483.456360,468.500275 483.522919,478.999847 
	C483.547211,482.834106 483.833313,486.666656 484.000000,490.500000 
"/>
<path fill="none" opacity="1.000000" stroke="#000000" stroke-linecap="round" stroke-linejoin="round" stroke-width="7.000000"
	d="
M434.500000,432.750000 
	C428.231628,443.279541 423.890198,454.781342 417.988251,465.493530 
	C414.676178,471.505035 412.833069,478.436310 407.861877,483.360565 
	C406.366577,484.841766 408.675751,486.216888 407.000000,487.000000 
"/>
<path fill="none" opacity="1.000000" stroke="#000000" stroke-linecap="round" stroke-linejoin="round" stroke-width="8.000000"
	d="
M358.500000,353.000000 
	C357.130981,355.326202 356.789093,357.840302 356.989410,360.500793 
	C358.092957,375.155426 357.228668,389.834534 357.500000,404.500000 
"/>
<path fill="none" opacity="1.000000" stroke="#000000" stroke-linecap="round" stroke-linejoin="round" stroke-width="8.000000"
	d="
M400.000000,348.000000 
	C401.124329,357.817108 400.186310,367.669220 400.501678,377.499939 
	C400.651367,382.167175 400.083557,386.859375 400.998352,391.500336 
	C401.554565,394.322205 400.088959,396.612610 399.000000,399.000000 
"/>
<path fill="none" opacity="1.000000" stroke="#000000" stroke-linecap="round" stroke-linejoin="round" stroke-width="8.000000"
	d="
M526.500000,433.500000 
	C526.655945,447.666779 526.076904,461.842743 527.008057,475.999481 
	C527.188599,478.744080 526.827271,481.309509 525.000000,483.500000 
"/>
<path fill="none" opacity="1.000000" stroke="#000000" stroke-linecap="round" stroke-linejoin="round" stroke-width="7.000000"
	d="
M485.500000,437.000000 
	C491.328979,439.087494 493.418121,444.867371 496.853088,449.118713 
	C504.490723,458.571503 511.418671,468.606232 518.446350,478.537964 
	C520.473450,481.402679 524.472168,482.281555 525.500000,486.000000 
"/>
<path fill="none" opacity="1.000000" stroke="#000000" stroke-linecap="round" stroke-linejoin="round" stroke-width="7.000000"
	d="
M357.750000,347.500000 
	C357.657562,350.970459 360.496399,352.363770 362.409729,354.578003 
	C367.834076,360.855316 372.971039,367.396393 377.961975,374.028595 
	C383.132904,380.899994 388.082275,387.943420 392.956329,395.030029 
	C394.712067,397.582825 398.450775,397.789429 399.500000,401.000000 
"/>
<path fill="none" opacity="1.000000" stroke="#000000" stroke-linecap="round" stroke-linejoin="round" stroke-width="6.000000"
	d="
M658.000000,350.000000 
	C654.346985,351.177612 653.378235,354.893188 652.196472,357.586212 
	C648.146973,366.814209 642.930725,375.449188 639.188965,384.876526 
	C636.801941,390.890625 633.130676,396.647125 630.000000,402.500000 
"/>
<path fill="none" opacity="1.000000" stroke="#000000" stroke-linecap="round" stroke-linejoin="round" stroke-width="7.000000"
	d="
M307.500000,350.000000 
	C312.170135,354.440643 314.032928,360.581024 316.900146,366.052338 
	C322.571747,376.875061 327.639252,388.013458 333.023224,398.988617 
	C334.096313,401.176056 335.524231,403.128601 338.500000,402.500000 
"/>
<path fill="none" opacity="1.000000" stroke="#000000" stroke-linecap="round" stroke-linejoin="round" stroke-width="7.000000"
	d="
M640.000000,385.000000 
	C642.229187,386.062469 644.395386,386.330475 647.010437,386.162842 
	C654.313721,385.694702 661.686279,385.694702 668.989563,386.162842 
	C671.604614,386.330475 673.770813,386.062469 676.000000,385.000000 
"/>
<path fill="none" opacity="1.000000" stroke="#000000" stroke-linecap="round" stroke-linejoin="round" stroke-width="7.000000"
	d="
M289.000000,385.000000 
	C291.229187,386.062469 293.395386,386.330475 296.010437,386.162872 
	C303.313782,385.694733 310.686218,385.694733 317.989563,386.162842 
	C320.604614,386.330444 322.770813,386.062469 325.000000,385.000000 
"/>
<path fill="none" opacity="1.000000" stroke="#000000" stroke-linecap="round" stroke-linejoin="round" stroke-width="7.000000"
	d="
M307.000000,347.000000 
	C306.704254,347.978485 307.409851,348.963470 306.540314,350.032776 
	C300.951843,356.905457 298.127625,365.313721 294.034698,373.018433 
	C289.384552,381.772003 285.029144,390.681702 280.477112,399.488159 
	C279.485291,401.406982 278.696838,403.299194 279.000000,405.500000 
"/>
<path fill="none" opacity="1.000000" stroke="#000000" stroke-linecap="round" stroke-linejoin="round" stroke-width="7.000000"
	d="
M518.000000,347.000000 
	C517.707458,348.178314 517.971375,349.236115 517.130737,350.581665 
	C510.516693,361.168488 505.224823,372.416260 500.202423,383.869507 
	C497.961609,388.979584 494.514740,393.806274 491.885834,398.941559 
	C490.775024,401.111389 489.807831,403.069061 490.000000,405.500000 
"/>
<path fill="none" opacity="1.000000" stroke="#000000" stroke-linecap="round" stroke-linejoin="round" stroke-width="6.000000"
	d="
M518.500000,350.000000 
	C519.749451,351.435608 521.194336,352.542175 522.096619,354.454407 
	C526.900085,364.634521 532.392090,374.449341 536.812439,384.867432 
	C539.133606,390.338104 542.612061,395.605377 545.471619,401.015015 
	C546.445312,402.856995 548.000793,402.442291 549.500000,402.500000 
"/>
<path fill="none" opacity="1.000000" stroke="#000000" stroke-linecap="round" stroke-linejoin="round" stroke-width="7.000000"
	d="
M536.000000,385.000000 
	C533.624329,386.265991 531.207581,386.222900 528.496399,386.163666 
	C520.842896,385.996399 513.144714,385.378784 505.501099,386.507385 
	C503.854248,386.750519 502.457672,386.023834 501.000000,385.500000 
"/>
<path fill="none" opacity="1.000000" stroke="#000000" stroke-linecap="round" stroke-linejoin="round" stroke-width="7.000000"
	d="
M658.000000,347.000000 
	C658.245056,347.986938 657.748413,348.954224 658.454834,350.029694 
	C665.572632,360.867035 670.555908,372.795258 676.300903,384.350403 
	C679.247620,390.277313 682.217834,396.423126 686.000000,402.000000 
"/>
<path fill="none" opacity="1.000000" stroke="#000000" stroke-linecap="round" stroke-linejoin="round" stroke-width="7.000000"
	d="
M595.000000,383.000000 
	C599.969116,390.636139 606.137268,397.134735 613.500000,402.500000 
"/>
<path fill="none" opacity="1.000000" stroke="#000000" stroke-linecap="round" stroke-linejoin="round" stroke-width="7.000000"
	d="
M428.500000,348.000000 
	C426.116180,348.577454 425.430145,350.068939 425.447174,352.500366 
	C425.552429,367.499634 425.542877,382.500244 425.459778,397.499786 
	C425.445099,400.140717 426.187775,402.076599 428.997437,401.945343 
	C436.830048,401.579529 444.661591,402.746368 452.518280,401.086517 
	C465.781158,398.284546 471.695862,386.363464 471.361115,374.503906 
	C471.060211,363.845337 466.778229,354.701965 456.436829,350.143280 
	C451.715454,348.061981 446.274841,347.882599 440.999695,347.984680 
	C437.001190,348.062103 433.000000,348.000000 429.000000,348.000000 
"/>
<path fill="none" opacity="1.000000" stroke="#000000" stroke-linecap="round" stroke-linejoin="round" stroke-width="7.000000"
	d="
M217.500000,348.000000 
	C215.116180,348.577454 214.430099,350.068939 214.447159,352.500366 
	C214.552399,367.499634 214.542847,382.500244 214.459747,397.499786 
	C214.445129,400.140717 215.187775,402.076599 217.997452,401.945343 
	C225.830063,401.579559 233.665009,402.769073 241.517212,401.079987 
	C255.443817,398.084259 260.560944,385.147369 260.361786,374.502594 
	C260.160980,363.770172 255.319824,354.946533 245.418457,350.169006 
	C240.802628,347.941772 235.274826,347.882568 229.999710,347.984680 
	C226.001205,348.062073 222.000000,348.000000 218.000000,348.000000 
"/>
</svg>