<?xml version="1.0" standalone="no"?>
<!DOCTYPE svg PUBLIC "-//W3C//DTD SVG 20010904//EN"
 "http://www.w3.org/TR/2001/REC-SVG-20010904/DTD/svg10.dtd">
<svg version="1.0" xmlns="http://www.w3.org/2000/svg"
 width="1280.000000pt" height="482.000000pt" viewBox="0 0 1280.000000 482.000000"
 preserveAspectRatio="xMidYMid meet">

<g transform="translate(0.000000,482.000000) scale(0.100000,-0.100000)"
fill="#000000" stroke="none">
<path d="M50 2365 c0 -1889 3 -2365 13 -2365 6 0 273 261 592 580 l580 580
-238 0 -237 0 0 1430 0 1430 1435 0 1435 0 2 -235 3 -235 590 590 590 590
-2383 0 -2382 0 0 -2365z"/>
<path d="M1000 2585 l0 -1185 235 0 235 0 2 238 3 237 238 3 237 2 0 235 0
235 240 0 240 0 2 238 3 237 237 3 238 2 2 238 3 237 238 3 237 2 0 230 0 230
-1195 0 -1195 0 0 -1185z"/>
<path d="M9725 3308 c-229 -15 -899 -23 -1103 -14 -311 15 -311 15 -333 -13
-41 -50 -12 -94 76 -117 116 -30 171 -72 214 -164 l26 -55 0 -840 0 -840 -23
-51 c-29 -63 -74 -108 -149 -148 -31 -17 -65 -43 -76 -57 -17 -24 -18 -30 -6
-55 21 -43 46 -50 140 -43 408 34 637 35 1089 8 284 -18 376 6 496 125 74 74
113 142 155 266 53 161 42 260 -31 260 -31 0 -56 -25 -95 -95 -77 -138 -258
-261 -460 -315 -100 -26 -295 -46 -357 -36 -61 9 -108 42 -133 91 -19 38 -20
60 -20 425 0 370 1 386 21 420 30 52 73 63 224 57 141 -6 206 -22 267 -67 56
-41 80 -82 98 -171 18 -85 31 -102 76 -101 55 1 54 -12 30 337 -5 79 -5 190 1
283 8 136 8 156 -7 178 -13 21 -23 25 -53 22 -36 -3 -38 -6 -82 -95 -56 -112
-76 -135 -159 -176 -65 -32 -67 -32 -218 -32 -145 0 -154 1 -175 23 l-23 23 0
337 c0 384 2 398 72 430 53 24 392 23 503 -2 154 -34 224 -106 256 -259 20
-95 35 -117 79 -117 26 0 39 6 51 25 15 23 15 39 0 212 -9 104 -16 210 -16
236 0 52 -20 101 -45 111 -21 8 -142 6 -310 -6z"/>
<path d="M4375 3285 c-51 -50 -22 -96 76 -123 134 -37 194 -92 224 -207 22
-87 23 -1601 0 -1688 -21 -81 -60 -134 -130 -178 -102 -64 -115 -77 -115 -113
0 -52 29 -71 103 -68 34 1 98 7 142 13 108 15 430 12 644 -5 218 -17 251 -8
251 68 0 38 -29 61 -111 86 -92 28 -137 50 -170 87 -68 73 -79 138 -79 468 0
303 -6 283 112 388 54 47 72 58 91 53 17 -4 109 -134 359 -508 328 -493 404
-595 457 -622 20 -10 96 -13 330 -12 l303 2 19 23 c19 23 25 76 11 98 -4 6
-33 21 -65 33 -65 24 -139 79 -184 136 -63 80 -817 1170 -826 1196 -7 17 -7
33 -1 46 13 28 442 407 569 504 111 84 209 142 310 184 82 34 102 46 110 68 7
20 5 34 -5 53 l-15 27 -425 1 c-234 1 -433 -2 -442 -7 -12 -6 -18 -20 -18 -43
0 -43 33 -70 105 -85 111 -23 133 -100 60 -206 -54 -77 -222 -243 -435 -428
-102 -88 -227 -197 -277 -243 -51 -46 -100 -83 -108 -83 -34 0 -36 35 -33 428
3 382 3 388 26 434 25 50 60 78 133 103 79 28 111 81 73 119 -26 26 -59 29
-203 17 -166 -14 -535 -15 -681 -1 -151 14 -158 13 -185 -15z"/>
<path d="M7033 3298 c-50 -24 -45 -105 7 -120 14 -4 52 -15 84 -25 128 -37
188 -119 207 -283 7 -62 9 -349 7 -835 -4 -832 -1 -801 -79 -889 -23 -26 -60
-56 -83 -68 -78 -39 -106 -66 -106 -102 0 -67 45 -81 195 -60 188 25 417 29
625 9 246 -23 259 -23 282 5 24 29 23 75 -1 99 -11 11 -39 25 -63 30 -68 17
-167 71 -193 106 -14 17 -33 51 -42 76 -17 41 -18 104 -18 899 0 921 -1 897
53 961 14 17 58 46 99 64 85 40 106 68 79 109 -27 42 -50 44 -301 16 -162 -17
-509 -10 -695 14 -19 3 -45 0 -57 -6z"/>
<path d="M10385 3303 c-56 -15 -73 -73 -32 -111 13 -12 46 -26 75 -32 128 -24
203 -98 231 -228 8 -37 11 -295 11 -840 0 -831 -1 -851 -46 -920 -21 -33 -32
-41 -111 -88 -34 -20 -72 -47 -84 -60 -26 -28 -28 -68 -3 -96 18 -19 26 -20
124 -14 58 3 141 10 185 16 156 18 353 12 668 -18 87 -9 113 -2 136 39 34 61
-4 95 -157 139 -58 17 -82 30 -115 63 -68 68 -70 80 -74 454 -4 290 -2 337 12
366 19 41 51 57 111 57 40 0 51 -5 96 -47 73 -68 134 -167 257 -413 265 -530
400 -661 686 -661 217 1 405 87 405 187 0 47 -31 66 -90 56 -113 -20 -169 28
-347 293 -307 460 -419 644 -410 669 3 8 62 33 130 55 68 23 144 54 168 70
130 82 203 236 202 426 0 180 -49 302 -169 421 -120 120 -282 187 -515 215
-104 12 -180 11 -674 -11 -189 -8 -291 -5 -580 14 -38 3 -79 2 -90 -1z m1126
-157 c169 -36 275 -134 334 -310 30 -89 42 -227 27 -306 -43 -230 -169 -329
-443 -347 -122 -8 -185 2 -215 32 l-24 24 0 369 c0 417 4 447 65 501 20 17 48
33 63 37 15 3 32 7 37 9 24 8 95 4 156 -9z"/>
<path d="M3390 3060 l0 -240 -235 0 -235 0 -2 -237 -3 -238 -237 -3 -238 -2 0
-235 0 -235 -240 0 -240 0 0 -240 0 -240 -240 0 -240 0 0 -235 0 -235 1190 0
1190 0 0 1190 0 1190 -235 0 -235 0 0 -240z"/>
</g>
</svg>
