<svg version="1.1" id="Layer_1" xmlns="http://www.w3.org/2000/svg" xmlns:xlink="http://www.w3.org/1999/xlink" x="0px" y="0px"
	 width="100%" viewBox="0 0 875 622" enable-background="new 0 0 875 622" xml:space="preserve">
<path fill="#FFFFFF" opacity="1.000000" stroke="none" 
	d="
M617.000000,623.000000 
	C411.333344,623.000000 206.166672,623.000000 1.000000,623.000000 
	C1.000000,415.666656 1.000000,208.333328 1.000000,1.000000 
	C292.666656,1.000000 584.333313,1.000000 876.000000,1.000000 
	C876.000000,208.333328 876.000000,415.666656 876.000000,623.000000 
	C789.833313,623.000000 703.666687,623.000000 617.000000,623.000000 
M143.500000,393.000916 
	C131.412689,393.000916 119.325378,393.000916 107.389023,393.000916 
	C107.389023,401.475586 107.389023,409.214355 107.389023,417.150970 
	C109.770744,417.150970 111.764938,417.151001 113.759140,417.151001 
	C330.716980,417.151215 547.674805,417.151428 764.632629,417.150940 
	C765.965637,417.150940 767.352417,417.364655 768.614258,417.062134 
	C769.585449,416.829376 770.821838,416.142395 771.217041,415.312775 
	C774.626343,408.156036 777.871277,400.921021 781.488831,393.000916 
	C568.619385,393.000916 356.559692,393.000916 143.500000,393.000916 
M116.558060,107.147575 
	C113.477898,107.147575 110.397743,107.147575 107.387779,107.147575 
	C107.387779,142.881348 107.387779,177.813583 107.387779,212.964539 
	C115.541855,212.964539 123.455605,212.964539 131.893250,212.964539 
	C131.893250,187.966309 131.893250,163.177078 131.893250,138.387848 
	C133.215561,139.612091 133.652069,140.964645 134.067917,142.323532 
	C140.867172,164.542419 147.626785,186.773636 154.539139,208.957275 
	C155.033066,210.542465 156.574127,212.921432 157.743271,212.990707 
	C164.342987,213.381775 170.977875,213.179611 177.440018,213.179611 
	C185.396011,187.403137 193.169693,162.217270 200.943390,137.031403 
	C201.343460,137.120895 201.743530,137.210373 202.143600,137.299866 
	C202.143600,162.541565 202.143600,187.783264 202.143600,212.901459 
	C210.249374,212.901459 217.992126,212.901459 225.705154,212.901459 
	C225.705154,177.559021 225.705154,142.500534 225.705154,107.147865 
	C214.940735,107.147865 204.470825,107.279434 194.007736,107.070053 
	C190.744247,107.004753 189.551727,108.048843 188.624069,111.208069 
	C182.216843,133.028351 175.533463,154.767578 168.924149,176.528412 
	C168.448120,178.095718 167.856140,179.627823 166.893372,182.398468 
	C158.934784,156.328293 151.432800,131.753845 143.921112,107.147614 
	C134.858475,107.147614 126.199615,107.147614 116.558060,107.147575 
M675.996033,180.500000 
	C675.996033,191.283569 675.996033,202.067123 675.996033,212.907333 
	C684.357422,212.907333 692.255432,212.907333 700.754822,212.907333 
	C700.754822,189.511383 700.754822,166.384872 700.754822,143.258377 
	C702.363342,144.542175 703.177490,145.923660 703.910461,147.346970 
	C714.551941,168.011261 725.159180,188.693283 735.865051,209.324142 
	C736.627869,210.794159 738.064209,212.971771 739.239075,213.005157 
	C749.485413,213.296371 759.743408,213.173325 769.811157,213.173325 
	C769.811157,177.479858 769.811157,142.432526 769.811157,107.419792 
	C761.680542,107.419792 753.924927,107.419792 745.760986,107.419792 
	C745.760986,130.552429 745.760986,153.416626 745.760986,176.280823 
	C744.315918,175.257462 743.588257,174.057495 742.953613,172.810226 
	C732.487061,152.243301 722.064209,131.653931 711.510986,111.131630 
	C710.706360,109.566956 709.029907,107.366676 707.702454,107.326653 
	C697.267761,107.012047 686.819336,107.152115 675.996033,107.152115 
	C675.996033,131.590561 675.996033,155.545288 675.996033,180.500000 
M313.997070,304.379608 
	C313.997070,307.030640 313.997070,309.681641 313.997070,312.332672 
	C301.953430,290.557770 290.904053,268.770020 279.738953,247.041779 
	C278.933685,245.474640 277.317902,243.221100 276.022736,243.182709 
	C265.440399,242.868851 254.844681,243.005905 244.334045,243.005905 
	C244.334045,278.680786 244.334045,313.727539 244.334045,348.813934 
	C252.455109,348.813934 260.238098,348.813934 268.638550,348.813934 
	C268.638550,325.313293 268.638550,301.992645 268.638550,278.672028 
	C270.201111,279.590179 270.796143,280.692108 271.369690,281.805145 
	C282.256470,302.932098 293.108246,324.077301 304.092804,345.153290 
	C304.893951,346.690460 306.620392,348.786133 307.973206,348.828796 
	C317.906555,349.141937 327.854309,348.997772 337.867065,348.997772 
	C337.867065,313.421844 337.867065,278.383698 337.867065,243.273178 
	C329.821259,243.273178 322.083923,243.273178 313.997131,243.273178 
	C313.997131,263.502380 313.997131,283.457733 313.997070,304.379608 
M420.753510,345.334259 
	C435.243439,339.995911 444.923035,329.727875 448.576843,314.986206 
	C450.733215,306.285919 451.277954,296.892365 450.826935,287.896820 
	C449.647095,264.364716 433.365204,246.325439 409.955505,244.181915 
	C391.461639,242.488510 372.728821,243.403030 354.101746,243.189255 
	C353.857849,243.186447 353.609436,243.576920 353.396820,243.755508 
	C353.396820,278.699799 353.396820,313.609314 353.396820,349.004395 
	C355.260590,349.004395 356.880402,349.004425 358.500214,349.004425 
	C371.489807,349.004333 384.495026,349.386566 397.463074,348.858032 
	C405.022003,348.549957 412.521515,346.783813 420.753510,345.334259 
M341.093933,136.479309 
	C326.108551,99.180923 276.273956,98.508087 255.087906,118.061844 
	C240.399796,131.618286 236.186630,148.699860 237.905731,167.915741 
	C239.852280,189.673981 254.146286,207.370346 274.505493,213.002319 
	C298.243256,219.568893 322.582855,212.461945 335.090851,194.673355 
	C347.653473,176.807129 348.565430,157.356888 341.093933,136.479309 
M541.763062,136.207031 
	C545.095398,134.455200 548.427734,132.703369 551.765686,130.948563 
	C533.425720,98.441139 488.834076,100.220985 469.236450,117.888840 
	C455.693726,130.098007 451.609222,145.804916 451.945465,163.366287 
	C452.370056,185.543594 464.599335,204.002243 484.372009,211.627121 
	C505.633545,219.826141 530.296875,214.849747 544.608948,198.908157 
	C555.570557,186.698563 558.671021,171.915634 557.516785,155.724899 
	C539.711548,155.724899 522.475403,155.724899 505.264343,155.724899 
	C505.264343,162.587814 505.264343,169.172668 505.264343,176.201904 
	C513.395752,176.201904 521.264587,176.201904 529.546021,176.201904 
	C526.785583,186.161331 520.594849,191.965683 511.198639,193.666611 
	C500.833435,195.542923 491.461304,192.971786 485.131317,183.970108 
	C477.554565,173.195374 476.824097,161.077362 479.903076,148.648315 
	C483.666504,133.456268 495.678253,125.547707 510.913483,128.057785 
	C519.549622,129.480621 525.454468,134.797653 529.763611,142.316635 
	C533.762756,140.313339 537.453247,138.464661 541.763062,136.207031 
M382.002838,187.517151 
	C382.002838,184.063965 382.002838,180.610779 382.002838,176.850281 
	C387.090149,176.850281 391.740997,176.577560 396.329193,176.994522 
	C397.990967,177.145538 400.197723,178.581940 400.970642,180.054062 
	C406.137756,189.895798 410.923706,199.936951 416.005798,209.824768 
	C416.708862,211.192657 418.332977,212.990524 419.580292,213.030197 
	C428.333344,213.308609 437.099396,213.177719 446.661346,213.177719 
	C439.054230,198.978683 431.812195,185.461151 424.498688,171.810196 
	C425.842316,170.999176 426.848999,170.440628 427.805664,169.806641 
	C439.582825,162.001678 444.840851,147.784515 441.458832,132.925446 
	C438.393829,119.458878 428.184052,109.028053 414.194183,108.264366 
	C395.333954,107.234802 376.375275,108.008789 357.341003,108.008789 
	C357.341003,142.749207 357.341003,177.920792 357.341003,213.014023 
	C365.638336,213.014023 373.590881,213.014023 382.002838,213.014023 
	C382.002838,204.740067 382.002838,196.627045 382.002838,187.517151 
M116.738914,297.901520 
	C124.138275,300.285889 131.473038,302.901917 138.955536,304.988098 
	C146.139786,306.991119 153.662964,307.922272 160.652435,310.406860 
	C163.314255,311.353088 165.844757,315.022278 166.751831,317.968689 
	C167.945648,321.846619 165.009094,324.827789 161.696609,326.847198 
	C160.292816,327.703033 158.746140,328.505310 157.159546,328.852020 
	C143.633148,331.807648 131.770981,329.251068 122.348793,318.342224 
	C121.307922,317.137115 118.898956,315.803253 117.742470,316.224762 
	C111.095268,318.647400 104.634438,321.581390 97.918686,324.423096 
	C106.026176,338.733093 117.943550,347.159821 133.595306,349.754150 
	C150.642990,352.579834 167.187851,351.478394 181.660965,340.445312 
	C196.306641,329.280640 200.271133,300.191864 175.221100,290.470673 
	C167.686554,287.546753 159.580292,286.096466 151.736557,283.968750 
	C146.140305,282.450745 140.224655,281.625397 135.029114,279.235382 
	C128.273529,276.127747 128.583298,268.349976 135.158478,264.772522 
	C136.735321,263.914551 138.530365,263.306213 140.298462,262.975616 
	C152.016891,260.784698 161.937897,264.263855 170.417786,272.997925 
	C177.012787,269.424133 183.642151,265.831726 190.651855,262.033234 
	C189.268066,260.283997 188.286774,258.978882 187.239349,257.729156 
	C169.907181,237.049484 134.500748,237.735291 117.840111,248.235382 
	C99.474571,259.809967 99.441154,288.300659 116.738914,297.901520 
M654.398071,179.016571 
	C645.751038,156.216354 637.063416,133.431335 628.513611,110.594734 
	C627.554749,108.033569 626.409729,106.980171 623.532288,107.068031 
	C615.878174,107.301727 608.205933,107.328957 600.553894,107.063400 
	C597.221375,106.947739 595.685852,107.877693 594.468323,111.142609 
	C584.733765,137.246475 574.758118,163.260437 564.853760,189.300980 
	C561.883545,197.110123 558.905396,204.916245 555.825256,213.000885 
	C565.465881,213.000885 574.426208,213.000885 583.552490,213.000885 
	C586.164490,205.600281 588.738708,198.306763 591.368652,190.855377 
	C603.894470,190.855377 616.207397,190.766922 628.514465,190.994385 
	C629.723389,191.016739 631.449463,192.753860 631.989075,194.080139 
	C634.176392,199.456314 635.869934,205.033066 638.044922,210.414886 
	C638.521057,211.592758 640.206787,213.031296 641.369629,213.062241 
	C649.836670,213.287476 658.312439,213.183411 667.314819,213.183411 
	C663.014160,201.701523 658.893555,190.700500 654.398071,179.016571 
M475.234955,278.732147 
	C466.418610,301.987610 457.602295,325.243103 448.595428,349.001099 
	C457.418945,349.001099 465.566071,349.127045 473.700897,348.867584 
	C474.945648,348.827881 476.731598,347.248230 477.243958,345.970490 
	C479.406982,340.576263 481.012268,334.956909 483.214172,329.580750 
	C483.799530,328.151550 485.761383,326.350403 487.124695,326.321930 
	C499.268280,326.068359 511.419434,326.174316 523.660950,326.174316 
	C526.063232,332.833618 528.289490,339.272614 530.754944,345.618622 
	C531.260925,346.920898 532.634216,348.812714 533.654785,348.842896 
	C542.348572,349.100220 551.053223,348.990173 560.299194,348.990173 
	C547.029602,314.038483 534.094543,279.869873 520.968811,245.774658 
	C520.472473,244.485336 518.153564,243.170135 516.642761,243.120483 
	C508.654236,242.858032 500.645752,243.188416 492.658783,242.903397 
	C489.476898,242.789841 488.327271,244.128448 487.357513,246.776718 
	C483.528687,257.232697 479.527893,267.625702 475.234955,278.732147 
M590.500122,349.005798 
	C606.822449,349.005829 623.145020,349.047974 639.466614,348.938934 
	C641.050903,348.928375 643.531555,348.442352 644.063538,347.397064 
	C647.507324,340.630493 650.525757,333.647522 653.998474,326.046143 
	C634.144409,326.046143 615.081665,326.046143 595.525757,326.046143 
	C595.525757,298.171631 595.525757,270.770874 595.525757,243.282166 
	C586.453796,243.282166 577.887024,243.282166 569.294983,243.282166 
	C569.294983,278.614960 569.294983,313.658844 569.294983,349.005798 
	C576.227783,349.005798 582.863953,349.005798 590.500122,349.005798 
M661.829224,301.500000 
	C661.829224,317.248535 661.829224,332.997070 661.829224,348.998962 
	C686.516113,348.998962 710.494263,349.014648 734.472107,348.940704 
	C735.418213,348.937775 736.870850,348.324432 737.227051,347.582458 
	C740.558716,340.642548 743.702209,333.612305 747.249084,325.843994 
	C726.961792,325.843994 707.718567,325.843994 687.955322,325.843994 
	C687.955322,297.996674 687.955322,270.610718 687.955322,243.293457 
	C678.996826,243.293457 670.572876,243.293457 661.829163,243.293457 
	C661.829163,262.557678 661.829163,281.528839 661.829224,301.500000 
M205.141693,331.498566 
	C205.141693,337.257751 205.141693,343.016937 205.141693,348.661072 
	C213.755127,348.661072 221.656204,348.661072 229.505096,348.661072 
	C229.505096,313.290527 229.505096,278.268494 229.505096,243.338348 
	C221.246078,243.338348 213.344711,243.338348 205.541260,243.338348 
	C205.359268,243.991196 205.198013,244.300079 205.197723,244.609146 
	C205.171143,273.239166 205.156845,301.869232 205.141693,331.498566 
M682.372986,490.268555 
	C682.372986,492.105164 682.372986,493.941772 682.372986,496.458649 
	C681.206055,495.528229 680.891663,495.382141 680.732788,495.135803 
	C675.058777,486.333588 669.392944,477.526031 663.739624,468.710480 
	C659.192139,461.619293 657.157776,460.860596 648.765442,463.156372 
	C648.765442,481.042084 648.765442,498.912384 648.765442,516.750000 
	C652.593750,516.750000 656.023254,516.750000 660.038025,516.750000 
	C660.038025,505.402252 660.038025,494.317719 660.038025,481.917847 
	C666.805603,492.320343 672.790771,501.494354 678.748596,510.686157 
	C683.473328,517.975525 684.305786,518.316650 693.239380,516.351318 
	C693.239380,498.474640 693.239380,480.597931 693.239380,462.681824 
	C689.424255,462.681824 685.999573,462.681824 682.373657,462.681824 
	C682.373657,471.765076 682.373657,480.544037 682.372986,490.268555 
M238.988922,498.545807 
	C241.533813,502.446716 244.620529,506.105011 246.500885,510.303528 
	C249.579895,517.178467 254.637466,518.153809 261.301025,516.575134 
	C261.301025,498.742340 261.301025,480.853668 261.301025,462.749603 
	C257.612915,462.749603 254.237686,462.749603 250.444550,462.749603 
	C250.444550,474.214691 250.444550,485.328461 250.444550,497.718262 
	C243.730896,487.259277 237.725967,477.908173 231.725037,468.554535 
	C227.261185,461.596771 225.393082,460.908264 217.195389,463.162079 
	C217.195389,481.067139 217.195389,498.945374 217.195389,516.766724 
	C220.860855,516.766724 224.131302,516.766724 227.961456,516.766724 
	C227.961456,505.413910 227.961456,494.305542 227.961456,483.197144 
	C228.263000,483.130127 228.564529,483.063110 228.866074,482.996124 
	C232.107483,487.977112 235.348892,492.958099 238.988922,498.545807 
M584.991882,497.287842 
	C589.092896,511.159729 598.006714,518.115417 611.768799,518.182434 
	C625.261292,518.248169 635.113586,511.439972 638.750732,499.537018 
	C642.781799,486.344910 638.444214,472.547699 628.132751,465.762848 
	C619.115356,459.829498 604.838501,459.726959 595.953491,466.001984 
	C585.331665,473.503723 582.759888,484.190613 584.991882,497.287842 
M205.456284,506.859070 
	C212.621445,494.663666 211.753693,479.505371 203.347229,470.016907 
	C195.976349,461.697296 181.631729,458.881561 170.593246,463.587585 
	C159.753799,468.208740 153.940781,478.218475 154.411880,491.451111 
	C154.835739,503.356964 161.695755,513.111938 172.216385,516.769226 
	C184.310181,520.973389 196.698776,517.455872 205.456284,506.859070 
M379.875671,495.314453 
	C382.103516,497.106689 384.982727,498.490601 386.417664,500.779846 
	C389.048218,504.976501 390.705383,509.771545 393.039246,514.173462 
	C393.680298,515.382568 395.207489,516.745667 396.458191,516.887085 
	C399.793274,517.264282 403.199158,517.015381 407.513336,517.015381 
	C402.581299,507.735565 398.139435,499.377960 393.717773,491.058411 
	C400.281006,488.091278 402.827026,483.904999 402.096588,476.518158 
	C401.470306,470.184296 396.909821,464.356171 390.164642,463.483246 
	C381.519501,462.364502 372.716125,462.468689 363.704956,462.032532 
	C363.704956,480.934906 363.704956,498.830078 363.704956,516.742310 
	C367.616852,516.742310 371.216156,516.742310 375.193054,516.742310 
	C375.193054,510.675751 375.340851,504.873199 375.132843,499.083466 
	C375.023163,496.030701 375.977509,494.692383 379.875671,495.314453 
M445.397766,479.503357 
	C445.390106,485.663605 445.557587,491.830383 445.329559,497.982452 
	C445.056763,505.342621 441.766907,508.447113 434.856415,508.390350 
	C427.922455,508.333405 424.476685,505.170502 424.259644,497.982300 
	C424.018524,489.997650 424.195129,482.000427 424.191254,474.008667 
	C424.189453,470.256134 424.190918,466.503601 424.190918,462.673767 
	C419.849457,462.673767 416.255981,462.673767 412.819153,462.673767 
	C412.819153,476.533142 412.243439,490.147736 413.031311,503.682922 
	C413.517456,512.034729 421.562378,517.509155 431.393341,518.134827 
	C444.269379,518.954285 453.024719,514.630066 455.729919,506.058319 
	C456.178284,504.637604 456.652161,503.141968 456.660339,501.678406 
	C456.732605,488.747711 456.702301,475.816406 456.702301,462.763245 
	C452.953674,462.763245 449.402740,462.763245 445.398041,462.763245 
	C445.398041,468.250427 445.398041,473.378174 445.397766,479.503357 
M302.391571,513.993896 
	C312.028076,505.007050 310.677551,493.154510 299.102539,486.897491 
	C295.176758,484.775299 290.682312,483.682770 286.827820,481.460388 
	C284.846771,480.318207 282.078522,477.093384 282.533020,475.926239 
	C283.360077,473.802551 286.316376,471.160004 288.400146,471.146240 
	C293.168701,471.114685 297.946869,472.537537 303.735809,473.546631 
	C304.637970,472.334595 306.372589,470.004150 308.262451,467.465179 
	C300.193665,461.296936 291.580261,460.080902 282.433197,462.475372 
	C275.520569,464.284912 271.336823,469.232452 270.854370,475.308258 
	C270.273193,482.627930 272.992889,487.453400 280.033875,490.886688 
	C283.910217,492.776855 288.231934,493.852478 291.881622,496.070679 
	C293.994507,497.354828 296.831482,500.652435 296.389557,502.201416 
	C295.686462,504.665985 292.808807,506.991638 290.291168,508.294250 
	C288.499634,509.221252 285.675659,508.790680 283.512878,508.214203 
	C280.196014,507.330078 277.051544,505.799255 273.555542,504.434235 
	C271.967590,506.738159 270.326050,509.119904 268.726044,511.441315 
	C278.313629,519.436096 291.319427,520.471680 302.391571,513.993896 
M492.431396,508.129242 
	C485.055298,508.261932 479.434875,505.337677 476.655365,498.319427 
	C473.639465,490.704254 473.785767,483.007141 479.599762,476.845490 
	C487.387482,468.592255 496.520203,470.387604 505.593475,475.306396 
	C507.366394,472.721283 508.927795,470.444580 510.434418,468.247711 
	C500.556488,458.608093 481.262115,459.246063 470.976624,469.180115 
	C460.518188,479.281189 459.813934,498.891876 469.521240,509.708160 
	C479.235352,520.532104 498.889374,521.305603 511.049652,511.105865 
	C509.504730,508.690613 507.937317,506.240143 506.693329,504.295349 
	C501.818237,505.676422 497.560852,506.882538 492.431396,508.129242 
M145.044373,463.244720 
	C142.455719,462.663757 139.894638,461.842926 137.273849,461.541870 
	C123.221512,459.927826 111.021309,467.021027 106.498192,479.292053 
	C101.763802,492.136292 105.912659,506.880554 116.178879,513.695679 
	C126.880234,520.799622 143.627655,519.635986 152.966507,510.967468 
	C151.425217,508.564178 149.863159,506.128571 148.356552,503.779388 
	C134.984467,509.927032 126.567932,509.393097 120.918678,502.341339 
	C115.740059,495.877075 115.529747,484.790649 120.457558,478.036896 
	C125.857666,470.635834 133.703247,469.738129 147.693863,475.045013 
	C149.252243,472.829773 150.846634,470.563385 152.860016,467.701355 
	C150.209366,466.170929 147.977158,464.882111 145.044373,463.244720 
M325.516907,462.406219 
	C321.424744,462.406219 317.332550,462.406219 313.254944,462.406219 
	C313.254944,465.896149 313.254944,468.661499 313.254944,471.959991 
	C318.567078,471.959991 323.632568,471.959991 329.121094,471.959991 
	C329.121094,487.235260 329.121094,501.972504 329.121094,516.685303 
	C333.311432,516.685303 337.038879,516.685303 341.201538,516.685303 
	C341.201538,501.618073 341.201538,486.874817 341.201538,471.613251 
	C346.703918,471.613251 351.769623,471.613251 356.711609,471.613251 
	C356.711609,468.320618 356.711609,465.560608 356.711609,462.406494 
	C346.448273,462.406494 336.480286,462.406494 325.516907,462.406219 
M517.052124,462.415894 
	C516.200073,465.334869 515.348083,468.253845 514.228027,472.091125 
	C520.873962,472.091125 525.925476,472.091125 531.416077,472.091125 
	C531.416077,487.392120 531.416077,502.108063 531.416077,516.786255 
	C535.502136,516.786255 539.111633,516.786255 543.196533,516.786255 
	C543.196533,501.847534 543.196533,487.133118 543.196533,471.843140 
	C548.720276,471.843140 553.776245,471.843140 558.970703,471.843140 
	C558.970703,468.484009 558.970703,465.711731 558.970703,462.390503 
	C545.152771,462.390503 531.552795,462.390503 517.052124,462.415894 
M565.987549,493.500000 
	C565.987549,501.247650 565.987549,508.995300 565.987549,516.773376 
	C570.192322,516.773376 573.779358,516.773376 577.612549,516.773376 
	C577.612549,498.682648 577.612549,480.830994 577.612549,462.759277 
	C573.651245,462.759277 569.945801,462.759277 565.987549,462.759277 
	C565.987549,472.907257 565.987549,482.703613 565.987549,493.500000 
z"/>
<path fill="#1ACFF2" opacity="1.000000" stroke="none" 
	d="
M144.000000,393.000916 
	C356.559692,393.000916 568.619385,393.000916 781.488831,393.000916 
	C777.871277,400.921021 774.626343,408.156036 771.217041,415.312775 
	C770.821838,416.142395 769.585449,416.829376 768.614258,417.062134 
	C767.352417,417.364655 765.965637,417.150940 764.632629,417.150940 
	C547.674805,417.151428 330.716980,417.151215 113.759140,417.151001 
	C111.764938,417.151001 109.770744,417.150970 107.389023,417.150970 
	C107.389023,409.214355 107.389023,401.475586 107.389023,393.000916 
	C119.325378,393.000916 131.412689,393.000916 144.000000,393.000916 
z"/>
<path fill="#030303" opacity="1.000000" stroke="none" 
	d="
M117.049408,107.147598 
	C126.199615,107.147614 134.858475,107.147614 143.921112,107.147614 
	C151.432800,131.753845 158.934784,156.328293 166.893372,182.398468 
	C167.856140,179.627823 168.448120,178.095718 168.924149,176.528412 
	C175.533463,154.767578 182.216843,133.028351 188.624069,111.208069 
	C189.551727,108.048843 190.744247,107.004753 194.007736,107.070053 
	C204.470825,107.279434 214.940735,107.147865 225.705154,107.147865 
	C225.705154,142.500534 225.705154,177.559021 225.705154,212.901459 
	C217.992126,212.901459 210.249374,212.901459 202.143600,212.901459 
	C202.143600,187.783264 202.143600,162.541565 202.143600,137.299866 
	C201.743530,137.210373 201.343460,137.120895 200.943390,137.031403 
	C193.169693,162.217270 185.396011,187.403137 177.440018,213.179611 
	C170.977875,213.179611 164.342987,213.381775 157.743271,212.990707 
	C156.574127,212.921432 155.033066,210.542465 154.539139,208.957275 
	C147.626785,186.773636 140.867172,164.542419 134.067917,142.323532 
	C133.652069,140.964645 133.215561,139.612091 131.893250,138.387848 
	C131.893250,163.177078 131.893250,187.966309 131.893250,212.964539 
	C123.455605,212.964539 115.541855,212.964539 107.387779,212.964539 
	C107.387779,177.813583 107.387779,142.881348 107.387779,107.147575 
	C110.397743,107.147575 113.477898,107.147575 117.049408,107.147598 
z"/>
<path fill="#020303" opacity="1.000000" stroke="none" 
	d="
M675.996033,180.000000 
	C675.996033,155.545288 675.996033,131.590561 675.996033,107.152115 
	C686.819336,107.152115 697.267761,107.012047 707.702454,107.326653 
	C709.029907,107.366676 710.706360,109.566956 711.510986,111.131630 
	C722.064209,131.653931 732.487061,152.243301 742.953613,172.810226 
	C743.588257,174.057495 744.315918,175.257462 745.760986,176.280823 
	C745.760986,153.416626 745.760986,130.552429 745.760986,107.419792 
	C753.924927,107.419792 761.680542,107.419792 769.811157,107.419792 
	C769.811157,142.432526 769.811157,177.479858 769.811157,213.173325 
	C759.743408,213.173325 749.485413,213.296371 739.239075,213.005157 
	C738.064209,212.971771 736.627869,210.794159 735.865051,209.324142 
	C725.159180,188.693283 714.551941,168.011261 703.910461,147.346970 
	C703.177490,145.923660 702.363342,144.542175 700.754822,143.258377 
	C700.754822,166.384872 700.754822,189.511383 700.754822,212.907333 
	C692.255432,212.907333 684.357422,212.907333 675.996033,212.907333 
	C675.996033,202.067123 675.996033,191.283569 675.996033,180.000000 
z"/>
<path fill="#4F5A5A" opacity="1.000000" stroke="none" 
	d="
M313.997101,303.896362 
	C313.997131,283.457733 313.997131,263.502380 313.997131,243.273178 
	C322.083923,243.273178 329.821259,243.273178 337.867065,243.273178 
	C337.867065,278.383698 337.867065,313.421844 337.867065,348.997772 
	C327.854309,348.997772 317.906555,349.141937 307.973206,348.828796 
	C306.620392,348.786133 304.893951,346.690460 304.092804,345.153290 
	C293.108246,324.077301 282.256470,302.932098 271.369690,281.805145 
	C270.796143,280.692108 270.201111,279.590179 268.638550,278.672028 
	C268.638550,301.992645 268.638550,325.313293 268.638550,348.813934 
	C260.238098,348.813934 252.455109,348.813934 244.334045,348.813934 
	C244.334045,313.727539 244.334045,278.680786 244.334045,243.005905 
	C254.844681,243.005905 265.440399,242.868851 276.022736,243.182709 
	C277.317902,243.221100 278.933685,245.474640 279.738953,247.041779 
	C290.904053,268.770020 301.953430,290.557770 313.997070,312.332672 
	C313.997070,309.681641 313.997070,307.030640 313.997101,303.896362 
z"/>
<path fill="#505B5B" opacity="1.000000" stroke="none" 
	d="
M420.400635,345.503967 
	C412.521515,346.783813 405.022003,348.549957 397.463074,348.858032 
	C384.495026,349.386566 371.489807,349.004333 358.500214,349.004425 
	C356.880402,349.004425 355.260590,349.004395 353.396820,349.004395 
	C353.396820,313.609314 353.396820,278.699799 353.396820,243.755508 
	C353.609436,243.576920 353.857849,243.186447 354.101746,243.189255 
	C372.728821,243.403030 391.461639,242.488510 409.955505,244.181915 
	C433.365204,246.325439 449.647095,264.364716 450.826935,287.896820 
	C451.277954,296.892365 450.733215,306.285919 448.576843,314.986206 
	C444.923035,329.727875 435.243439,339.995911 420.400635,345.503967 
M378.856415,323.363678 
	C379.821808,324.290314 380.765259,325.990906 381.756104,326.018921 
	C388.574829,326.211853 395.430481,326.421173 402.222137,325.919617 
	C410.977234,325.273041 417.653625,320.888855 421.431305,312.801910 
	C425.926361,303.179291 426.157654,293.180817 423.151703,283.114319 
	C420.240662,273.365662 413.492218,267.422668 403.520538,266.395294 
	C395.503021,265.569244 387.332550,266.228149 378.853119,266.228149 
	C378.853119,285.156952 378.853119,303.769867 378.856415,323.363678 
z"/>
<path fill="#030303" opacity="1.000000" stroke="none" 
	d="
M341.272400,136.821823 
	C348.565430,157.356888 347.653473,176.807129 335.090851,194.673355 
	C322.582855,212.461945 298.243256,219.568893 274.505493,213.002319 
	C254.146286,207.370346 239.852280,189.673981 237.905731,167.915741 
	C236.186630,148.699860 240.399796,131.618286 255.087906,118.061844 
	C276.273956,98.508087 326.108551,99.180923 341.272400,136.821823 
M285.382111,129.462036 
	C277.977722,131.056519 272.142639,135.015854 268.617523,141.703217 
	C262.015839,154.227066 261.853699,167.048218 268.938843,179.333847 
	C276.837555,193.030212 296.220612,196.093658 308.482971,186.082596 
	C318.831879,177.633682 322.386902,159.763199 316.531372,145.624664 
	C311.431091,133.309738 301.425964,127.903816 285.382111,129.462036 
z"/>
<path fill="#030404" opacity="1.000000" stroke="none" 
	d="
M541.453369,136.411499 
	C537.453247,138.464661 533.762756,140.313339 529.763611,142.316635 
	C525.454468,134.797653 519.549622,129.480621 510.913483,128.057785 
	C495.678253,125.547707 483.666504,133.456268 479.903076,148.648315 
	C476.824097,161.077362 477.554565,173.195374 485.131317,183.970108 
	C491.461304,192.971786 500.833435,195.542923 511.198639,193.666611 
	C520.594849,191.965683 526.785583,186.161331 529.546021,176.201904 
	C521.264587,176.201904 513.395752,176.201904 505.264343,176.201904 
	C505.264343,169.172668 505.264343,162.587814 505.264343,155.724899 
	C522.475403,155.724899 539.711548,155.724899 557.516785,155.724899 
	C558.671021,171.915634 555.570557,186.698563 544.608948,198.908157 
	C530.296875,214.849747 505.633545,219.826141 484.372009,211.627121 
	C464.599335,204.002243 452.370056,185.543594 451.945465,163.366287 
	C451.609222,145.804916 455.693726,130.098007 469.236450,117.888840 
	C488.834076,100.220985 533.425720,98.441139 551.765686,130.948563 
	C548.427734,132.703369 545.095398,134.455200 541.453369,136.411499 
z"/>
<path fill="#020202" opacity="1.000000" stroke="none" 
	d="
M382.002838,188.015594 
	C382.002838,196.627045 382.002838,204.740067 382.002838,213.014023 
	C373.590881,213.014023 365.638336,213.014023 357.341003,213.014023 
	C357.341003,177.920792 357.341003,142.749207 357.341003,108.008789 
	C376.375275,108.008789 395.333954,107.234802 414.194183,108.264366 
	C428.184052,109.028053 438.393829,119.458878 441.458832,132.925446 
	C444.840851,147.784515 439.582825,162.001678 427.805664,169.806641 
	C426.848999,170.440628 425.842316,170.999176 424.498688,171.810196 
	C431.812195,185.461151 439.054230,198.978683 446.661346,213.177719 
	C437.099396,213.177719 428.333344,213.308609 419.580292,213.030197 
	C418.332977,212.990524 416.708862,211.192657 416.005798,209.824768 
	C410.923706,199.936951 406.137756,189.895798 400.970642,180.054062 
	C400.197723,178.581940 397.990967,177.145538 396.329193,176.994522 
	C391.740997,176.577560 387.090149,176.850281 382.002838,176.850281 
	C382.002838,180.610779 382.002838,184.063965 382.002838,188.015594 
M416.587646,141.039368 
	C415.557587,135.452469 412.544708,131.050446 406.805237,130.592636 
	C398.639526,129.941269 390.383057,130.427109 382.310028,130.427109 
	C382.310028,139.247482 382.310028,147.639038 382.310028,156.156723 
	C389.252991,156.156723 395.883270,156.182709 402.513275,156.150574 
	C412.276978,156.103256 416.622955,151.704758 416.587646,141.039368 
z"/>
<path fill="#505B5B" opacity="1.000000" stroke="none" 
	d="
M116.426605,297.707977 
	C99.441154,288.300659 99.474571,259.809967 117.840111,248.235382 
	C134.500748,237.735291 169.907181,237.049484 187.239349,257.729156 
	C188.286774,258.978882 189.268066,260.283997 190.651855,262.033234 
	C183.642151,265.831726 177.012787,269.424133 170.417786,272.997925 
	C161.937897,264.263855 152.016891,260.784698 140.298462,262.975616 
	C138.530365,263.306213 136.735321,263.914551 135.158478,264.772522 
	C128.583298,268.349976 128.273529,276.127747 135.029114,279.235382 
	C140.224655,281.625397 146.140305,282.450745 151.736557,283.968750 
	C159.580292,286.096466 167.686554,287.546753 175.221100,290.470673 
	C200.271133,300.191864 196.306641,329.280640 181.660965,340.445312 
	C167.187851,351.478394 150.642990,352.579834 133.595306,349.754150 
	C117.943550,347.159821 106.026176,338.733093 97.918686,324.423096 
	C104.634438,321.581390 111.095268,318.647400 117.742470,316.224762 
	C118.898956,315.803253 121.307922,317.137115 122.348793,318.342224 
	C131.770981,329.251068 143.633148,331.807648 157.159546,328.852020 
	C158.746140,328.505310 160.292816,327.703033 161.696609,326.847198 
	C165.009094,324.827789 167.945648,321.846619 166.751831,317.968689 
	C165.844757,315.022278 163.314255,311.353088 160.652435,310.406860 
	C153.662964,307.922272 146.139786,306.991119 138.955536,304.988098 
	C131.473038,302.901917 124.138275,300.285889 116.426605,297.707977 
z"/>
<path fill="#030303" opacity="1.000000" stroke="none" 
	d="
M654.585571,179.358032 
	C658.893555,190.700500 663.014160,201.701523 667.314819,213.183411 
	C658.312439,213.183411 649.836670,213.287476 641.369629,213.062241 
	C640.206787,213.031296 638.521057,211.592758 638.044922,210.414886 
	C635.869934,205.033066 634.176392,199.456314 631.989075,194.080139 
	C631.449463,192.753860 629.723389,191.016739 628.514465,190.994385 
	C616.207397,190.766922 603.894470,190.855377 591.368652,190.855377 
	C588.738708,198.306763 586.164490,205.600281 583.552490,213.000885 
	C574.426208,213.000885 565.465881,213.000885 555.825256,213.000885 
	C558.905396,204.916245 561.883545,197.110123 564.853760,189.300980 
	C574.758118,163.260437 584.733765,137.246475 594.468323,111.142609 
	C595.685852,107.877693 597.221375,106.947739 600.553894,107.063400 
	C608.205933,107.328957 615.878174,107.301727 623.532288,107.068031 
	C626.409729,106.980171 627.554749,108.033569 628.513611,110.594734 
	C637.063416,133.431335 645.751038,156.216354 654.585571,179.358032 
M599.254883,170.110809 
	C607.459961,170.110809 615.664978,170.110809 624.282349,170.110809 
	C619.903320,156.150665 615.757996,142.935379 611.144714,128.228348 
	C606.639893,142.989182 602.542236,156.415878 599.254883,170.110809 
z"/>
<path fill="#4F5A5A" opacity="1.000000" stroke="none" 
	d="
M475.412903,278.387085 
	C479.527893,267.625702 483.528687,257.232697 487.357513,246.776718 
	C488.327271,244.128448 489.476898,242.789841 492.658783,242.903397 
	C500.645752,243.188416 508.654236,242.858032 516.642761,243.120483 
	C518.153564,243.170135 520.472473,244.485336 520.968811,245.774658 
	C534.094543,279.869873 547.029602,314.038483 560.299194,348.990173 
	C551.053223,348.990173 542.348572,349.100220 533.654785,348.842896 
	C532.634216,348.812714 531.260925,346.920898 530.754944,345.618622 
	C528.289490,339.272614 526.063232,332.833618 523.660950,326.174316 
	C511.419434,326.174316 499.268280,326.068359 487.124695,326.321930 
	C485.761383,326.350403 483.799530,328.151550 483.214172,329.580750 
	C481.012268,334.956909 479.406982,340.576263 477.243958,345.970490 
	C476.731598,347.248230 474.945648,348.827881 473.700897,348.867584 
	C465.566071,349.127045 457.418945,349.001099 448.595428,349.001099 
	C457.602295,325.243103 466.418610,301.987610 475.412903,278.387085 
M492.189423,305.974121 
	C500.384308,305.974121 508.579163,305.974121 517.230957,305.974121 
	C512.863586,292.100677 508.738739,278.997437 504.613861,265.894165 
	C504.183838,265.903870 503.753845,265.913605 503.323853,265.923309 
	C499.336578,279.197632 495.349304,292.471924 492.189423,305.974121 
z"/>
<path fill="#505B5B" opacity="1.000000" stroke="none" 
	d="
M590.000122,349.005798 
	C582.863953,349.005798 576.227783,349.005798 569.294983,349.005798 
	C569.294983,313.658844 569.294983,278.614960 569.294983,243.282166 
	C577.887024,243.282166 586.453796,243.282166 595.525757,243.282166 
	C595.525757,270.770874 595.525757,298.171631 595.525757,326.046143 
	C615.081665,326.046143 634.144409,326.046143 653.998474,326.046143 
	C650.525757,333.647522 647.507324,340.630493 644.063538,347.397064 
	C643.531555,348.442352 641.050903,348.928375 639.466614,348.938934 
	C623.145020,349.047974 606.822449,349.005829 590.000122,349.005798 
z"/>
<path fill="#4F5A5A" opacity="1.000000" stroke="none" 
	d="
M661.829224,301.000000 
	C661.829163,281.528839 661.829163,262.557678 661.829163,243.293457 
	C670.572876,243.293457 678.996826,243.293457 687.955322,243.293457 
	C687.955322,270.610718 687.955322,297.996674 687.955322,325.843994 
	C707.718567,325.843994 726.961792,325.843994 747.249084,325.843994 
	C743.702209,333.612305 740.558716,340.642548 737.227051,347.582458 
	C736.870850,348.324432 735.418213,348.937775 734.472107,348.940704 
	C710.494263,349.014648 686.516113,348.998962 661.829224,348.998962 
	C661.829224,332.997070 661.829224,317.248535 661.829224,301.000000 
z"/>
<path fill="#515C5C" opacity="1.000000" stroke="none" 
	d="
M205.141724,330.998901 
	C205.156845,301.869232 205.171143,273.239166 205.197723,244.609146 
	C205.198013,244.300079 205.359268,243.991196 205.541260,243.338348 
	C213.344711,243.338348 221.246078,243.338348 229.505096,243.338348 
	C229.505096,278.268494 229.505096,313.290527 229.505096,348.661072 
	C221.656204,348.661072 213.755127,348.661072 205.141693,348.661072 
	C205.141693,343.016937 205.141693,337.257751 205.141724,330.998901 
z"/>
<path fill="#586363" opacity="1.000000" stroke="none" 
	d="
M682.373291,489.795776 
	C682.373657,480.544037 682.373657,471.765076 682.373657,462.681824 
	C685.999573,462.681824 689.424255,462.681824 693.239380,462.681824 
	C693.239380,480.597931 693.239380,498.474640 693.244751,516.352661 
	C684.305786,518.316650 683.473328,517.975525 678.748596,510.686157 
	C672.790771,501.494354 666.805603,492.320343 660.038025,481.917847 
	C660.038025,494.317719 660.038025,505.402252 660.038025,516.750000 
	C656.023254,516.750000 652.593750,516.750000 648.765442,516.750000 
	C648.765442,498.912384 648.765442,481.042084 648.765442,463.156372 
	C657.157776,460.860596 659.192139,461.619293 663.739624,468.710480 
	C669.392944,477.526031 675.058777,486.333588 680.732788,495.135803 
	C680.891663,495.382141 681.206055,495.528229 682.372986,496.458649 
	C682.372986,493.941772 682.372986,492.105164 682.373291,489.795776 
z"/>
<path fill="#556060" opacity="1.000000" stroke="none" 
	d="
M238.789612,498.242432 
	C235.348892,492.958099 232.107483,487.977112 228.866074,482.996124 
	C228.564529,483.063110 228.263000,483.130127 227.961456,483.197144 
	C227.961456,494.305542 227.961456,505.413910 227.961456,516.766724 
	C224.131302,516.766724 220.860855,516.766724 217.195389,516.766724 
	C217.195389,498.945374 217.195389,481.067139 217.195389,463.162079 
	C225.393082,460.908264 227.261185,461.596771 231.725037,468.554535 
	C237.725967,477.908173 243.730896,487.259277 250.444550,497.718262 
	C250.444550,485.328461 250.444550,474.214691 250.444550,462.749603 
	C254.237686,462.749603 257.612915,462.749603 261.301025,462.749603 
	C261.301025,480.853668 261.301025,498.742340 261.301025,516.575134 
	C254.637466,518.153809 249.579895,517.178467 246.500885,510.303528 
	C244.620529,506.105011 241.533813,502.446716 238.789612,498.242432 
z"/>
<path fill="#525D5D" opacity="1.000000" stroke="none" 
	d="
M584.928589,496.872192 
	C582.759888,484.190613 585.331665,473.503723 595.953491,466.001984 
	C604.838501,459.726959 619.115356,459.829498 628.132751,465.762848 
	C638.444214,472.547699 642.781799,486.344910 638.750732,499.537018 
	C635.113586,511.439972 625.261292,518.248169 611.768799,518.182434 
	C598.006714,518.115417 589.092896,511.159729 584.928589,496.872192 
M605.953308,472.038971 
	C597.278198,477.260468 593.917053,488.734253 598.141602,498.705566 
	C601.015747,505.489532 607.074890,509.414307 613.734802,508.805878 
	C620.421387,508.195038 625.516357,503.857697 626.833862,496.470123 
	C627.600037,492.174744 627.747375,487.467834 626.834106,483.235046 
	C624.749878,473.575500 616.452332,469.155792 605.953308,472.038971 
z"/>
<path fill="#525D5D" opacity="1.000000" stroke="none" 
	d="
M205.245728,507.154968 
	C196.698776,517.455872 184.310181,520.973389 172.216385,516.769226 
	C161.695755,513.111938 154.835739,503.356964 154.411880,491.451111 
	C153.940781,478.218475 159.753799,468.208740 170.593246,463.587585 
	C181.631729,458.881561 195.976349,461.697296 203.347229,470.016907 
	C211.753693,479.505371 212.621445,494.663666 205.245728,507.154968 
M181.746765,508.820007 
	C188.445114,508.999817 193.391373,506.119324 195.917053,499.925385 
	C199.248886,491.754517 199.278870,483.590698 193.609985,476.354736 
	C188.301453,469.578735 178.287399,468.780151 172.411835,474.549133 
	C166.330307,480.520325 165.804993,488.161163 167.474625,495.885132 
	C169.003067,502.955902 173.515457,507.550079 181.746765,508.820007 
z"/>
<path fill="#556060" opacity="1.000000" stroke="none" 
	d="
M379.475647,495.265076 
	C375.977509,494.692383 375.023163,496.030701 375.132843,499.083466 
	C375.340851,504.873199 375.193054,510.675751 375.193054,516.742310 
	C371.216156,516.742310 367.616852,516.742310 363.704956,516.742310 
	C363.704956,498.830078 363.704956,480.934906 363.704956,462.032532 
	C372.716125,462.468689 381.519501,462.364502 390.164642,463.483246 
	C396.909821,464.356171 401.470306,470.184296 402.096588,476.518158 
	C402.827026,483.904999 400.281006,488.091278 393.717773,491.058411 
	C398.139435,499.377960 402.581299,507.735565 407.513336,517.015381 
	C403.199158,517.015381 399.793274,517.264282 396.458191,516.887085 
	C395.207489,516.745667 393.680298,515.382568 393.039246,514.173462 
	C390.705383,509.771545 389.048218,504.976501 386.417664,500.779846 
	C384.982727,498.490601 382.103516,497.106689 379.475647,495.265076 
M375.173584,479.492737 
	C375.173584,481.608307 375.173584,483.723846 375.173584,486.226166 
	C380.573822,486.208313 385.992432,487.466736 389.115814,482.499298 
	C390.306183,480.606079 390.305695,476.576508 389.045563,474.796448 
	C385.592651,469.918884 380.223083,472.267090 375.173859,471.972992 
	C375.173859,474.602539 375.173859,476.569214 375.173584,479.492737 
z"/>
<path fill="#545F5F" opacity="1.000000" stroke="none" 
	d="
M445.397888,479.004639 
	C445.398041,473.378174 445.398041,468.250427 445.398041,462.763245 
	C449.402740,462.763245 452.953674,462.763245 456.702301,462.763245 
	C456.702301,475.816406 456.732605,488.747711 456.660339,501.678406 
	C456.652161,503.141968 456.178284,504.637604 455.729919,506.058319 
	C453.024719,514.630066 444.269379,518.954285 431.393341,518.134827 
	C421.562378,517.509155 413.517456,512.034729 413.031311,503.682922 
	C412.243439,490.147736 412.819153,476.533142 412.819153,462.673767 
	C416.255981,462.673767 419.849457,462.673767 424.190918,462.673767 
	C424.190918,466.503601 424.189453,470.256134 424.191254,474.008667 
	C424.195129,482.000427 424.018524,489.997650 424.259644,497.982300 
	C424.476685,505.170502 427.922455,508.333405 434.856415,508.390350 
	C441.766907,508.447113 445.056763,505.342621 445.329559,497.982452 
	C445.557587,491.830383 445.390106,485.663605 445.397888,479.004639 
z"/>
<path fill="#535E5E" opacity="1.000000" stroke="none" 
	d="
M302.095459,514.216064 
	C291.319427,520.471680 278.313629,519.436096 268.726044,511.441315 
	C270.326050,509.119904 271.967590,506.738159 273.555542,504.434235 
	C277.051544,505.799255 280.196014,507.330078 283.512878,508.214203 
	C285.675659,508.790680 288.499634,509.221252 290.291168,508.294250 
	C292.808807,506.991638 295.686462,504.665985 296.389557,502.201416 
	C296.831482,500.652435 293.994507,497.354828 291.881622,496.070679 
	C288.231934,493.852478 283.910217,492.776855 280.033875,490.886688 
	C272.992889,487.453400 270.273193,482.627930 270.854370,475.308258 
	C271.336823,469.232452 275.520569,464.284912 282.433197,462.475372 
	C291.580261,460.080902 300.193665,461.296936 308.262451,467.465179 
	C306.372589,470.004150 304.637970,472.334595 303.735809,473.546631 
	C297.946869,472.537537 293.168701,471.114685 288.400146,471.146240 
	C286.316376,471.160004 283.360077,473.802551 282.533020,475.926239 
	C282.078522,477.093384 284.846771,480.318207 286.827820,481.460388 
	C290.682312,483.682770 295.176758,484.775299 299.102539,486.897491 
	C310.677551,493.154510 312.028076,505.007050 302.095459,514.216064 
z"/>
<path fill="#535E5E" opacity="1.000000" stroke="none" 
	d="
M492.867432,508.108948 
	C497.560852,506.882538 501.818237,505.676422 506.693329,504.295349 
	C507.937317,506.240143 509.504730,508.690613 511.049652,511.105865 
	C498.889374,521.305603 479.235352,520.532104 469.521240,509.708160 
	C459.813934,498.891876 460.518188,479.281189 470.976624,469.180115 
	C481.262115,459.246063 500.556488,458.608093 510.434418,468.247711 
	C508.927795,470.444580 507.366394,472.721283 505.593475,475.306396 
	C496.520203,470.387604 487.387482,468.592255 479.599762,476.845490 
	C473.785767,483.007141 473.639465,490.704254 476.655365,498.319427 
	C479.434875,505.337677 485.055298,508.261932 492.867432,508.108948 
z"/>
<path fill="#535E5E" opacity="1.000000" stroke="none" 
	d="
M145.394653,463.419006 
	C147.977158,464.882111 150.209366,466.170929 152.860016,467.701355 
	C150.846634,470.563385 149.252243,472.829773 147.693863,475.045013 
	C133.703247,469.738129 125.857666,470.635834 120.457558,478.036896 
	C115.529747,484.790649 115.740059,495.877075 120.918678,502.341339 
	C126.567932,509.393097 134.984467,509.927032 148.356552,503.779388 
	C149.863159,506.128571 151.425217,508.564178 152.966507,510.967468 
	C143.627655,519.635986 126.880234,520.799622 116.178879,513.695679 
	C105.912659,506.880554 101.763802,492.136292 106.498192,479.292053 
	C111.021309,467.021027 123.221512,459.927826 137.273849,461.541870 
	C139.894638,461.842926 142.455719,462.663757 145.394653,463.419006 
z"/>
<path fill="#535E5E" opacity="1.000000" stroke="none" 
	d="
M326.014618,462.406372 
	C336.480286,462.406494 346.448273,462.406494 356.711609,462.406494 
	C356.711609,465.560608 356.711609,468.320618 356.711609,471.613251 
	C351.769623,471.613251 346.703918,471.613251 341.201538,471.613251 
	C341.201538,486.874817 341.201538,501.618073 341.201538,516.685303 
	C337.038879,516.685303 333.311432,516.685303 329.121094,516.685303 
	C329.121094,501.972504 329.121094,487.235260 329.121094,471.959991 
	C323.632568,471.959991 318.567078,471.959991 313.254944,471.959991 
	C313.254944,468.661499 313.254944,465.896149 313.254944,462.406219 
	C317.332550,462.406219 321.424744,462.406219 326.014618,462.406372 
z"/>
<path fill="#556060" opacity="1.000000" stroke="none" 
	d="
M517.502441,462.403198 
	C531.552795,462.390503 545.152771,462.390503 558.970703,462.390503 
	C558.970703,465.711731 558.970703,468.484009 558.970703,471.843140 
	C553.776245,471.843140 548.720276,471.843140 543.196533,471.843140 
	C543.196533,487.133118 543.196533,501.847534 543.196533,516.786255 
	C539.111633,516.786255 535.502136,516.786255 531.416077,516.786255 
	C531.416077,502.108063 531.416077,487.392120 531.416077,472.091125 
	C525.925476,472.091125 520.873962,472.091125 514.228027,472.091125 
	C515.348083,468.253845 516.200073,465.334869 517.502441,462.403198 
z"/>
<path fill="#535E5E" opacity="1.000000" stroke="none" 
	d="
M565.987549,493.000000 
	C565.987549,482.703613 565.987549,472.907257 565.987549,462.759277 
	C569.945801,462.759277 573.651245,462.759277 577.612549,462.759277 
	C577.612549,480.830994 577.612549,498.682648 577.612549,516.773376 
	C573.779358,516.773376 570.192322,516.773376 565.987549,516.773376 
	C565.987549,508.995300 565.987549,501.247650 565.987549,493.000000 
z"/>
<path fill="#FEFEFE" opacity="1.000000" stroke="none" 
	d="
M378.854767,322.873230 
	C378.853119,303.769867 378.853119,285.156952 378.853119,266.228149 
	C387.332550,266.228149 395.503021,265.569244 403.520538,266.395294 
	C413.492218,267.422668 420.240662,273.365662 423.151703,283.114319 
	C426.157654,293.180817 425.926361,303.179291 421.431305,312.801910 
	C417.653625,320.888855 410.977234,325.273041 402.222137,325.919617 
	C395.430481,326.421173 388.574829,326.211853 381.756104,326.018921 
	C380.765259,325.990906 379.821808,324.290314 378.854767,322.873230 
z"/>
<path fill="#FDFDFD" opacity="1.000000" stroke="none" 
	d="
M285.798096,129.352905 
	C301.425964,127.903816 311.431091,133.309738 316.531372,145.624664 
	C322.386902,159.763199 318.831879,177.633682 308.482971,186.082596 
	C296.220612,196.093658 276.837555,193.030212 268.938843,179.333847 
	C261.853699,167.048218 262.015839,154.227066 268.617523,141.703217 
	C272.142639,135.015854 277.977722,131.056519 285.798096,129.352905 
z"/>
<path fill="#FBFCFC" opacity="1.000000" stroke="none" 
	d="
M416.658630,141.433014 
	C416.622955,151.704758 412.276978,156.103256 402.513275,156.150574 
	C395.883270,156.182709 389.252991,156.156723 382.310028,156.156723 
	C382.310028,147.639038 382.310028,139.247482 382.310028,130.427109 
	C390.383057,130.427109 398.639526,129.941269 406.805237,130.592636 
	C412.544708,131.050446 415.557587,135.452469 416.658630,141.433014 
z"/>
<path fill="#F9FAFA" opacity="1.000000" stroke="none" 
	d="
M598.849731,169.976685 
	C602.542236,156.415878 606.639893,142.989182 611.144714,128.228348 
	C615.757996,142.935379 619.903320,156.150665 624.282349,170.110809 
	C615.664978,170.110809 607.459961,170.110809 598.849731,169.976685 
z"/>
<path fill="#FBFCFC" opacity="1.000000" stroke="none" 
	d="
M491.775757,305.860168 
	C495.349304,292.471924 499.336578,279.197632 503.323853,265.923309 
	C503.753845,265.913605 504.183838,265.903870 504.613861,265.894165 
	C508.738739,278.997437 512.863586,292.100677 517.230957,305.974121 
	C508.579163,305.974121 500.384308,305.974121 491.775757,305.860168 
z"/>
<path fill="#FCFDFD" opacity="1.000000" stroke="none" 
	d="
M606.325317,471.896942 
	C616.452332,469.155792 624.749878,473.575500 626.834106,483.235046 
	C627.747375,487.467834 627.600037,492.174744 626.833862,496.470123 
	C625.516357,503.857697 620.421387,508.195038 613.734802,508.805878 
	C607.074890,509.414307 601.015747,505.489532 598.141602,498.705566 
	C593.917053,488.734253 597.278198,477.260468 606.325317,471.896942 
z"/>
<path fill="#FCFDFD" opacity="1.000000" stroke="none" 
	d="
M181.340637,508.808655 
	C173.515457,507.550079 169.003067,502.955902 167.474625,495.885132 
	C165.804993,488.161163 166.330307,480.520325 172.411835,474.549133 
	C178.287399,468.780151 188.301453,469.578735 193.609985,476.354736 
	C199.278870,483.590698 199.248886,491.754517 195.917053,499.925385 
	C193.391373,506.119324 188.445114,508.999817 181.340637,508.808655 
z"/>
<path fill="#F9FAFA" opacity="1.000000" stroke="none" 
	d="
M375.173706,479.014313 
	C375.173859,476.569214 375.173859,474.602539 375.173859,471.972992 
	C380.223083,472.267090 385.592651,469.918884 389.045563,474.796448 
	C390.305695,476.576508 390.306183,480.606079 389.115814,482.499298 
	C385.992432,487.466736 380.573822,486.208313 375.173584,486.226166 
	C375.173584,483.723846 375.173584,481.608307 375.173706,479.014313 
z"/>
</svg>