<svg version="1.1" id="Layer_1" xmlns="http://www.w3.org/2000/svg" xmlns:xlink="http://www.w3.org/1999/xlink" x="0px" y="0px"
	 width="100%" viewBox="0 0 1024 359" enable-background="new 0 0 1024 359" xml:space="preserve">
<path fill="#47704C" opacity="1.000000" stroke="none" 
	d="
M1025.000000,5.000000 
	C1025.000000,88.020897 1025.000000,171.041794 1024.645020,254.494125 
	C1022.491150,252.546692 1020.821472,250.053741 1018.855042,247.822250 
	C1017.028259,245.749268 1014.884888,243.955170 1012.578125,241.911041 
	C1010.169495,239.560699 1008.063538,237.337585 1005.941528,234.739502 
	C1004.488953,232.513702 1003.439453,229.977295 1001.557800,228.915405 
	C975.305786,214.100296 944.379456,227.942001 935.001709,253.464676 
	C934.544312,254.709503 933.887817,255.881165 933.323975,257.086884 
	C932.882690,256.982147 932.441345,256.877411 932.000061,256.772644 
	C932.000061,255.019608 932.000122,253.266556 932.000061,251.513519 
	C931.999451,233.390442 932.171570,215.264252 931.844849,197.147034 
	C931.783447,193.741806 930.150085,190.145493 928.474548,187.053284 
	C926.937256,184.216156 925.364319,185.146622 924.633728,188.169601 
	C918.217163,188.183395 912.130066,188.148605 905.884521,187.870117 
	C905.052673,187.385925 904.379211,187.145416 903.705811,186.904907 
	C903.840759,187.618591 903.975647,188.332275 904.062866,189.509583 
	C903.954590,214.081497 903.893921,238.189789 903.454346,262.168579 
	C900.609497,257.477905 898.312683,252.812347 895.593750,248.407349 
	C894.517334,246.663361 892.502686,245.498505 890.943237,244.054810 
	C890.971252,244.039658 890.939575,244.094696 890.926270,243.717575 
	C889.570801,241.908035 888.228577,240.475601 886.656616,238.977509 
	C886.132385,238.727234 885.975952,238.461426 885.941162,237.737900 
	C884.251892,235.256790 882.831726,232.872131 880.862915,231.095566 
	C871.752563,222.874619 848.357788,221.356003 839.909912,228.202576 
	C836.488770,230.975266 832.225159,232.719040 828.911926,227.323914 
	C828.490356,226.637375 827.206238,226.154510 826.311279,226.137787 
	C820.655945,226.032120 814.987183,225.881302 809.345154,226.174789 
	C806.723083,226.311188 804.260559,227.483246 806.065552,231.505478 
	C805.955017,241.445541 805.894165,250.921890 805.456055,260.259155 
	C802.953369,256.884430 801.010925,253.506088 798.638184,250.463257 
	C797.042480,248.416962 794.838196,246.845245 792.941284,245.042953 
	C792.976318,245.024689 792.939575,245.094696 792.926270,244.717575 
	C791.570801,242.908020 790.228577,241.475586 788.574280,239.907089 
	C783.300354,236.775009 778.566589,233.282776 773.333130,230.877838 
	C758.751770,224.177216 744.155945,225.975357 730.546326,233.324707 
	C710.115479,244.357635 704.049744,268.613983 708.337769,287.769806 
	C710.847107,298.980011 716.838989,308.079193 725.060120,316.253784 
	C727.893921,322.617004 733.844910,324.774017 739.247681,326.351807 
	C762.532715,333.151855 788.926697,326.848328 801.101501,302.081421 
	C802.124390,300.000488 804.230408,298.451996 805.905212,297.082764 
	C805.929260,317.006744 805.881287,336.504150 805.375122,356.001099 
	C541.759521,356.000488 278.602173,356.000244 15.444777,355.999908 
	C13.778171,355.999908 12.097848,355.860321 10.447655,356.024475 
	C6.316862,356.435333 4.930178,354.674866 4.938573,350.553192 
	C5.038037,301.721771 4.981180,252.890060 5.091465,204.058701 
	C5.095308,202.357422 6.411885,200.659103 7.425239,199.091949 
	C11.776034,203.271866 15.862681,207.275970 19.851538,211.375214 
	C29.518179,221.309326 39.027283,231.399414 48.813965,241.213135 
	C56.727558,249.148636 65.085938,256.640381 73.005104,264.570557 
	C81.694733,273.272217 90.074715,282.282349 98.665909,291.083649 
	C100.535347,292.998810 102.870262,294.458862 104.745506,296.369293 
	C109.934341,301.655518 114.932617,307.128723 120.121254,312.415100 
	C125.308815,317.700378 129.979507,323.435150 138.998383,322.183197 
	C145.702393,321.252625 152.649612,321.773743 159.468658,322.084351 
	C163.601135,322.272583 165.090698,320.732086 165.035538,316.758362 
	C164.917587,308.260162 165.036987,299.758881 164.958099,291.259796 
	C164.946686,290.030823 164.766006,288.437408 164.006042,287.637024 
	C154.435089,277.557526 144.823975,267.513000 135.050507,257.630219 
	C129.612427,252.131348 123.736038,247.067123 118.269279,241.595139 
	C112.564911,235.885284 107.247833,229.787491 101.521530,224.100861 
	C93.977730,216.609299 86.131187,209.423447 78.540833,201.977707 
	C69.801720,193.405060 61.152485,184.738708 52.603325,175.977310 
	C51.614346,174.963776 51.075916,173.086624 51.067017,171.605453 
	C50.962879,154.273132 50.966324,136.939774 51.059818,119.607323 
	C51.067932,118.103256 51.465160,116.158058 52.442127,115.168808 
	C67.546524,99.874405 82.738098,84.664879 98.080986,69.610458 
	C98.938637,68.768936 102.007355,68.711487 102.834351,69.523727 
	C121.726990,88.079185 140.450607,106.806717 159.968369,126.262230 
	C152.880554,133.102875 145.955902,139.554367 139.298721,146.270950 
	C131.345612,154.295013 123.842964,162.775330 115.721916,170.619812 
	C110.091408,176.058533 107.605186,182.173096 107.914993,189.953476 
	C108.288490,199.333221 113.752533,207.365128 122.871475,211.464371 
	C131.901596,215.523697 142.947388,212.320679 147.904480,206.697220 
	C151.683243,202.410461 155.950195,198.554092 159.998840,194.505127 
	C169.072769,185.430450 178.084946,176.292877 187.242813,167.303711 
	C192.581757,162.063141 195.020462,155.784378 195.007874,148.397461 
	C194.981766,133.064514 194.808990,117.728035 195.086136,102.400055 
	C195.211746,95.452286 192.601517,90.082939 187.871964,85.360870 
	C166.524551,64.047211 145.194000,42.716637 123.882584,21.366999 
	C118.831955,16.307314 113.878716,11.150413 109.274231,5.879103 
	C112.637619,5.479986 115.607445,5.030119 118.577316,5.029806 
	C420.718201,4.997939 722.859131,5.000001 1025.000000,5.000000 
M601.461853,97.276825 
	C600.988953,98.222473 600.516052,99.168121 599.999329,100.707993 
	C599.702026,101.154938 599.404724,101.601883 598.521912,101.688599 
	C596.997070,99.765480 595.611328,97.705688 593.900818,95.965012 
	C592.661194,94.703461 590.991150,93.864876 589.234253,92.747910 
	C589.234253,92.747910 589.155029,92.465981 589.367249,91.745354 
	C588.213562,90.517319 587.059937,89.289284 585.976501,88.024521 
	C585.976501,88.024521 585.939514,88.094627 585.913696,87.343292 
	C585.006531,85.865234 584.413757,84.000771 583.144348,82.968002 
	C568.012329,70.656631 551.353027,70.203156 533.948608,77.146027 
	C532.657471,77.661079 531.996216,79.754959 530.760803,81.747467 
	C525.828308,85.904831 520.218323,89.487755 516.104553,94.339325 
	C507.585175,104.386620 504.529663,116.660355 506.220490,129.525040 
	C507.185669,136.868378 509.396698,144.432785 512.837280,150.952820 
	C515.988098,156.923660 521.545288,161.624664 526.183350,167.567169 
	C527.583435,168.906418 528.834656,170.461258 530.408691,171.548737 
	C538.552185,177.175049 547.710571,178.162781 557.404907,178.127945 
	C574.755432,178.065598 587.457336,170.560486 596.539307,156.095535 
	C597.591614,154.419403 599.567139,153.322937 601.727356,152.266174 
	C611.572449,167.664627 625.412476,175.110153 643.907227,175.162109 
	C660.408264,175.208450 677.524414,164.002304 683.311829,148.047882 
	C683.800415,146.700897 683.024902,143.595764 682.105713,143.249893 
	C676.409119,141.106384 670.503418,139.518616 664.691223,137.753647 
	C660.386169,150.423874 653.086182,154.421432 637.617126,152.999023 
	C628.839417,152.191879 621.213379,143.341217 619.654968,131.999939 
	C639.979797,131.999939 660.281250,131.891525 680.579773,132.088730 
	C684.786926,132.129608 686.424744,130.493484 685.958862,126.667877 
	C685.093994,119.565605 684.626953,112.327431 682.849426,105.441360 
	C678.735107,89.502052 664.163025,77.785271 647.190674,76.999168 
	C636.800293,76.517914 626.546936,76.842773 616.510681,81.802818 
	C612.199402,82.157127 605.198730,89.068718 604.029114,94.025139 
	C604.029114,94.025139 604.097900,94.057304 603.464172,94.273552 
	C602.996460,95.213715 602.528748,96.153877 602.029175,97.025230 
	C602.029175,97.025230 602.097900,97.057281 601.461853,97.276825 
M288.976868,251.917282 
	C288.976868,275.502380 288.976868,299.087463 288.976868,323.000000 
	C295.042267,323.000000 300.532532,322.686981 305.969116,323.092987 
	C310.862793,323.458405 312.147888,321.716095 312.106995,316.927032 
	C311.919373,294.949432 312.111115,272.968597 312.467407,250.742584 
	C312.660126,250.567902 312.833740,250.375931 313.916962,250.023148 
	C320.172272,250.023148 326.427551,250.023148 332.680603,250.023148 
	C332.680603,243.028809 332.680603,236.646210 332.680603,229.833344 
	C325.905609,229.833344 319.447266,229.833344 312.742523,229.532623 
	C312.567871,229.339874 312.375916,229.166275 312.023315,228.100967 
	C312.016205,225.606445 311.793396,223.090408 312.039551,220.621140 
	C313.070496,210.279358 316.039215,205.591766 329.204865,207.702682 
	C332.579834,208.243790 333.835388,206.550339 333.948364,203.740158 
	C334.128571,199.257126 334.323090,194.724411 333.819061,190.291428 
	C333.642914,188.742325 331.496368,186.289536 330.118958,186.197113 
	C323.661621,185.763840 317.024963,185.177658 310.701569,186.195007 
	C299.473572,188.001434 288.323700,200.124130 288.936005,211.563538 
	C289.246307,217.360947 288.888885,223.194092 288.532593,229.257416 
	C288.339874,229.432098 288.166260,229.624069 287.085114,229.976807 
	C282.159058,229.976807 277.233002,229.976807 272.317322,229.976807 
	C272.317322,236.972275 272.317322,243.353149 272.317322,250.166656 
	C277.758087,250.166656 282.884613,250.166656 288.257477,250.467377 
	C288.432129,250.660126 288.624084,250.833725 288.976868,251.917282 
M313.467407,120.742592 
	C313.660126,120.567909 313.833740,120.375931 314.917328,120.023132 
	C325.080719,120.015411 335.247681,120.174278 345.406494,119.954948 
	C356.420380,119.717155 365.062592,114.258118 371.882324,106.150070 
	C379.003082,97.684113 381.721100,87.636208 381.066772,76.492516 
	C380.212891,61.950947 373.778748,50.998260 361.222473,43.698097 
	C354.302704,39.674969 346.698547,38.036182 338.752380,38.013901 
	C322.308319,37.967796 305.864014,38.000000 289.273529,38.000000 
	C289.273529,82.870560 289.273529,127.252792 289.273529,171.999969 
	C295.505249,171.999969 301.485168,171.742081 307.430389,172.085251 
	C311.830627,172.339249 313.158234,170.887695 313.099060,166.462234 
	C312.896362,151.307480 313.111084,136.147110 313.467407,120.742592 
M553.917358,271.023132 
	C564.002686,270.682312 574.093567,270.455475 584.171997,269.971436 
	C596.427429,269.382874 605.913574,263.514465 612.992798,253.777603 
	C619.820496,244.386627 621.317200,233.418594 619.769348,222.393768 
	C618.463379,213.091995 614.043152,204.638382 606.727417,198.427353 
	C598.368713,191.330750 587.980957,188.726578 577.381287,188.345093 
	C561.839233,187.785721 546.261169,188.236465 530.698486,188.231049 
	C528.121338,188.230164 526.955444,189.216827 526.959351,191.997482 
	C527.018616,234.292816 527.029175,276.588348 526.947815,318.883606 
	C526.941162,322.327057 528.410461,323.140289 531.482605,323.043854 
	C536.639526,322.881989 541.818787,322.770691 546.963013,323.073486 
	C550.967651,323.309235 552.120667,321.880859 552.082642,317.935669 
	C551.935059,302.621765 552.111084,287.304749 552.467407,271.742523 
	C552.660217,271.567902 552.833862,271.375946 553.917358,271.023132 
M682.179321,289.335266 
	C681.467407,290.225861 680.433594,291.008301 680.092407,292.023499 
	C675.761169,304.912018 658.074463,306.480469 648.590332,301.351685 
	C640.716309,297.093536 637.740234,290.381531 636.100952,281.935150 
	C658.162781,281.935150 679.931580,281.935150 701.596558,281.935150 
	C704.744080,273.910248 702.415588,266.248230 700.795349,258.925995 
	C698.353638,247.890747 692.448730,238.605927 682.114197,233.064941 
	C668.608521,225.823761 654.595459,224.507401 640.177612,230.377167 
	C628.556946,235.108154 620.533508,243.343933 615.947937,255.004196 
	C612.350525,264.151642 612.202026,273.822266 613.214783,283.211884 
	C614.546387,295.556702 619.695801,306.474579 629.880005,314.429413 
	C640.842651,322.992279 653.010498,325.935730 666.898193,324.144348 
	C684.868286,321.826477 695.868774,311.910034 702.103394,294.511383 
	C695.549805,292.644897 689.234497,290.846252 682.179321,289.335266 
M419.983093,137.788742 
	C419.797394,142.168457 418.642120,146.771103 419.589294,150.890320 
	C424.387573,171.758026 448.692993,180.780487 466.202881,171.309860 
	C470.140137,169.180313 473.882141,166.689835 477.842621,164.287506 
	C478.182098,171.999603 478.182098,171.999664 485.678589,171.999969 
	C489.009064,172.000107 492.339569,172.013947 495.669952,171.996735 
	C500.855316,171.969925 501.585236,171.027893 501.011658,165.738800 
	C500.569458,161.661346 500.075012,157.563782 500.045288,153.471954 
	C499.932648,137.986084 500.046021,122.498703 499.984436,107.012245 
	C499.940186,95.884995 490.821320,82.322823 480.566986,79.363533 
	C469.712646,76.231071 458.660797,74.806732 447.317200,77.911224 
	C433.640228,81.654297 424.652618,89.796806 421.213715,103.652565 
	C420.691986,105.754745 420.100281,108.360825 423.681915,109.034492 
	C427.656342,109.782036 431.572357,110.845451 435.505737,111.804382 
	C439.875610,112.869705 442.690369,112.842415 444.276703,107.046051 
	C447.108368,96.699257 465.605377,92.777618 472.960693,100.775146 
	C474.969849,102.959755 475.419250,106.938217 475.691162,110.168625 
	C475.787903,111.317596 473.403931,113.505592 471.864624,113.822762 
	C463.906342,115.462540 455.898346,117.083115 447.825714,117.895576 
	C434.917114,119.194748 425.264313,124.718483 419.983093,137.788742 
M424.001587,283.534668 
	C424.001312,278.356567 424.294525,273.158203 423.938049,268.004730 
	C423.253815,258.112976 419.454956,249.321671 412.609589,242.211380 
	C399.497375,228.591660 383.088409,224.240494 365.054230,228.234558 
	C348.675049,231.862091 337.079254,242.158691 331.424286,258.230835 
	C327.975342,268.033173 328.069031,278.235016 330.037964,288.346497 
	C332.539429,301.193085 339.715942,310.988739 350.549164,318.130341 
	C360.605286,324.759644 371.508667,326.452301 383.541016,325.175171 
	C403.788605,323.026031 422.217285,305.062408 424.001587,283.534668 
M703.044800,169.546677 
	C711.216492,174.536758 720.299377,174.364822 729.338745,173.951187 
	C738.186096,173.546341 746.182190,170.134781 751.792664,163.477829 
	C766.790161,145.683090 757.933167,122.341415 736.213806,117.029015 
	C730.074585,115.527390 723.851257,114.372574 717.684570,112.978912 
	C712.166321,111.731819 708.858704,106.411018 710.945557,102.290062 
	C713.391907,97.459274 718.967957,95.057190 724.289001,95.594452 
	C732.643799,96.438057 737.192383,100.958252 738.529175,109.269005 
	C745.228149,107.303314 751.561584,105.444878 758.138367,103.515038 
	C757.544250,97.261734 755.013184,92.130058 751.101501,87.618515 
	C739.855713,74.648468 714.591858,73.806305 701.457275,82.934578 
	C690.868896,90.293304 687.192993,100.625275 689.260376,112.460129 
	C691.214478,123.646065 699.542847,130.056244 710.252747,133.013947 
	C716.177551,134.650162 722.254456,135.748901 728.283447,136.989655 
	C731.872009,137.728180 737.058899,142.323135 736.889893,145.495895 
	C736.656006,149.886627 734.295959,152.738480 729.793396,154.166092 
	C718.898132,157.620560 710.450806,152.735947 706.049622,139.773972 
	C699.408691,141.659485 692.748962,143.550308 685.610046,145.577209 
	C687.887878,156.052704 692.920532,164.127899 703.044800,169.546677 
M410.000000,61.500031 
	C410.000000,53.747879 410.000000,45.995728 410.000000,38.357719 
	C401.956604,38.357719 394.570007,38.357719 387.329041,38.357719 
	C387.329041,83.060036 387.329041,127.403961 387.329041,171.999954 
	C393.294647,171.999954 398.952393,171.713135 404.565674,172.089661 
	C409.152557,172.397339 410.100677,170.563568 410.082764,166.339172 
	C409.935944,131.726624 410.000000,97.113182 410.000000,61.500031 
M487.000000,236.633606 
	C486.997192,228.997971 486.985291,228.743164 479.383392,229.098602 
	C475.042847,229.301544 470.543274,229.930984 466.492188,231.404480 
	C462.557129,232.835770 459.103546,235.590683 454.987793,238.031677 
	C454.987793,235.260223 454.987793,232.849731 454.987793,230.255554 
	C447.193909,230.255554 439.797211,230.255554 432.266022,230.255554 
	C432.266022,261.214539 432.266022,291.917419 432.266022,322.999664 
	C438.483337,322.999664 444.447357,322.851135 450.399139,323.056763 
	C453.832245,323.175385 455.137360,322.057495 455.064240,318.501526 
	C454.872650,309.181763 454.875214,299.853210 455.041718,290.532440 
	C455.162384,283.778717 455.322021,276.991669 456.099121,270.293121 
	C456.903473,263.359619 461.796143,255.873047 469.586029,254.981400 
	C472.167175,254.685959 474.736542,254.092300 477.319366,254.041046 
	C488.365631,253.821869 486.892120,255.405136 486.996704,244.596085 
	C487.019257,242.265366 487.000000,239.934265 487.000000,236.633606 
z"/>
<path fill="#47704C" opacity="1.000000" stroke="none" 
	d="
M7.116613,198.959412 
	C6.411885,200.659103 5.095308,202.357422 5.091465,204.058701 
	C4.981180,252.890060 5.038037,301.721771 4.938573,350.553192 
	C4.930178,354.674866 6.316862,356.435333 10.447655,356.024475 
	C12.097848,355.860321 13.778171,355.999908 15.444777,355.999908 
	C278.602173,356.000244 541.759521,356.000488 805.565857,356.334167 
	C814.093262,359.608917 821.924927,357.788116 830.073120,356.635040 
	C830.073120,342.849884 830.073120,329.259888 830.073120,315.777588 
	C830.543457,315.623627 830.760376,315.477692 830.851257,315.534271 
	C831.958557,316.223480 833.052612,316.934296 834.139954,317.654938 
	C847.144165,326.273529 861.216492,326.574524 874.727661,320.418762 
	C892.841248,312.166107 898.986633,295.640289 899.837830,277.092499 
	C900.375305,265.380463 897.172485,254.191833 890.915222,244.069977 
	C892.502686,245.498505 894.517334,246.663361 895.593750,248.407349 
	C898.312683,252.812347 900.609497,257.477905 903.526367,262.563202 
	C903.929321,274.060913 903.881348,285.034546 903.437134,296.064148 
	C901.934998,297.405884 900.427429,298.517365 899.782959,300.003235 
	C888.379089,326.294312 866.610901,332.280518 842.346558,325.885010 
	C839.759033,325.203003 837.382935,323.719055 834.000061,322.198792 
	C834.000061,331.636963 833.992859,340.240845 834.002197,348.844727 
	C834.009949,355.982941 834.018616,355.997162 841.221069,355.997620 
	C902.480713,356.001587 963.740356,355.999969 1025.000000,356.000000 
	C1025.000000,357.333069 1025.000000,358.666107 1025.000000,359.999390 
	C683.737549,359.999573 342.475037,359.999573 1.106279,359.999573 
	C1.106279,240.429016 1.106279,120.857903 1.106279,1.143394 
	C342.333282,1.143394 683.666626,1.143394 1025.000000,1.143394 
	C1025.000000,2.000918 1025.000000,3.000459 1025.000000,4.500000 
	C722.859131,5.000001 420.718201,4.997939 118.577316,5.029806 
	C115.607445,5.030119 112.637619,5.479986 108.926926,5.712320 
	C101.581505,2.333949 96.850197,3.223719 90.014923,8.707970 
	C89.682678,4.100245 86.451408,5.037153 83.972519,5.031843 
	C59.807827,4.980078 35.641850,5.123085 11.479096,4.900146 
	C6.467620,4.853907 4.847465,6.322033 4.897182,11.413917 
	C5.129853,35.243141 4.993031,59.075912 5.015530,82.907387 
	C5.017171,84.646042 5.235682,86.384499 5.456435,89.645706 
	C10.059671,85.358078 13.477692,81.859070 17.249466,78.795616 
	C19.106504,77.287315 21.617970,76.584763 23.874390,75.890648 
	C19.806868,80.147537 15.867263,84.232285 11.547983,87.865700 
	C5.802715,92.698669 3.712482,98.430344 3.832977,106.061790 
	C4.260939,133.166489 3.876972,160.283264 4.138648,187.392197 
	C4.175956,191.257156 6.077741,195.104126 7.116613,198.959412 
z"/>
<path fill="#47704C" opacity="1.000000" stroke="none" 
	d="
M1025.000000,355.531342 
	C963.740356,355.999969 902.480713,356.001587 841.221069,355.997620 
	C834.018616,355.997162 834.009949,355.982941 834.002197,348.844727 
	C833.992859,340.240845 834.000061,331.636963 834.000061,322.198792 
	C837.382935,323.719055 839.759033,325.203003 842.346558,325.885010 
	C866.610901,332.280518 888.379089,326.294312 899.782959,300.003235 
	C900.427429,298.517365 901.934998,297.405884 903.509033,296.472198 
	C903.998901,304.844696 904.020691,312.865112 904.062622,321.281250 
	C904.291321,324.730835 905.969360,326.033142 908.979309,326.003723 
	C915.107971,325.943756 921.237976,325.936279 927.366577,325.994873 
	C930.811340,326.027771 932.037964,324.253632 932.007019,321.030396 
	C931.944885,314.570435 931.965698,308.109100 932.015015,301.648865 
	C932.034241,299.129364 932.222473,296.611145 932.333740,294.092346 
	C934.464050,296.725677 935.231750,299.628204 936.744568,302.068817 
	C937.794434,303.762482 939.869873,304.820404 941.626404,306.207214 
	C941.765747,306.252106 941.844971,306.533966 941.739014,306.895264 
	C942.793213,308.489990 943.953430,309.723419 945.405518,311.073822 
	C946.811707,312.421539 947.926025,313.652313 949.058228,315.250732 
	C950.394714,317.199158 951.452881,319.148956 953.077881,320.295441 
	C959.390320,324.749237 966.255981,327.590179 974.154236,328.401642 
	C992.952026,330.332886 1008.613525,325.347351 1020.068054,309.558807 
	C1021.198792,308.000183 1023.332031,307.168884 1025.000000,306.000000 
	C1025.000000,322.354218 1025.000000,338.708466 1025.000000,355.531342 
z"/>
<path fill="#47704C" opacity="1.000000" stroke="none" 
	d="
M1025.000000,305.536804 
	C1023.332031,307.168884 1021.198792,308.000183 1020.068054,309.558807 
	C1008.613525,325.347351 992.952026,330.332886 974.154236,328.401642 
	C966.255981,327.590179 959.390320,324.749237 953.077881,320.295441 
	C951.452881,319.148956 950.394714,317.199158 949.418091,315.306824 
	C960.945984,322.279755 972.688843,326.214783 986.499512,324.205658 
	C998.683472,322.433258 1008.395813,317.271881 1015.582275,307.618683 
	C1018.343323,303.909821 1019.787292,299.220459 1021.989075,294.650604 
	C1015.460510,292.668884 1010.201843,291.114014 1004.972900,289.464783 
	C1002.921936,288.817902 1002.013489,288.648315 1000.676575,291.294281 
	C992.956787,306.573395 972.732117,309.196320 962.965210,296.443787 
	C964.634094,296.602570 966.037354,296.593994 967.123108,297.176849 
	C973.977905,300.856628 981.185791,300.758118 988.426208,299.063812 
	C994.664978,297.603912 997.832214,293.021942 999.819336,286.519714 
	C986.498474,286.519714 973.742126,286.519714 960.509460,286.519714 
	C961.231201,290.122986 961.867615,293.300354 962.177734,296.349854 
	C959.643250,291.771027 957.434998,287.320129 954.674988,281.756866 
	C978.261353,281.756866 1000.075378,281.756866 1021.661194,281.756866 
	C1023.157227,267.170197 1021.431091,253.820724 1012.880859,242.038300 
	C1014.884888,243.955170 1017.028259,245.749268 1018.855042,247.822250 
	C1020.821472,250.053741 1022.491150,252.546692 1024.645020,254.962784 
	C1025.000000,265.020905 1025.000000,275.041779 1024.538696,285.531342 
	C1020.418762,286.000000 1016.760071,286.000000 1013.101440,286.000000 
	C1013.047913,286.452332 1012.994324,286.904694 1012.940735,287.357025 
	C1016.960510,289.238037 1020.980225,291.119019 1025.000000,293.000000 
	C1025.000000,297.024536 1025.000000,301.049103 1025.000000,305.536804 
z"/>
<path fill="#47704C" opacity="1.000000" stroke="none" 
	d="
M1025.000000,292.562500 
	C1020.980225,291.119019 1016.960510,289.238037 1012.940735,287.357025 
	C1012.994324,286.904694 1013.047913,286.452332 1013.101440,286.000000 
	C1016.760071,286.000000 1020.418762,286.000000 1024.538696,286.000000 
	C1025.000000,288.041656 1025.000000,290.083344 1025.000000,292.562500 
z"/>
<path fill="#FFFFFF" opacity="1.000000" stroke="none" 
	d="
M7.425238,199.091949 
	C6.077741,195.104126 4.175956,191.257156 4.138648,187.392197 
	C3.876972,160.283264 4.260939,133.166489 3.832977,106.061790 
	C3.712482,98.430344 5.802715,92.698669 11.547983,87.865700 
	C15.867263,84.232285 19.806868,80.147537 23.874855,75.878761 
	C23.834223,75.493820 23.842960,75.471878 24.094181,75.280685 
	C30.352619,69.021141 36.359840,62.952785 42.639145,56.641098 
	C44.392776,54.649700 45.739685,52.761978 47.381054,51.179710 
	C52.355949,46.383923 57.561447,41.823868 62.464302,36.957569 
	C71.734596,27.756403 80.856506,18.405737 90.040077,9.117195 
	C96.850197,3.223719 101.581505,2.333949 108.533379,5.871444 
	C113.878716,11.150413 118.831955,16.307314 123.882584,21.366999 
	C145.194000,42.716637 166.524551,64.047211 187.871964,85.360870 
	C192.601517,90.082939 195.211746,95.452286 195.086136,102.400055 
	C194.808990,117.728035 194.981766,133.064514 195.007874,148.397461 
	C195.020462,155.784378 192.581757,162.063141 187.242813,167.303711 
	C178.084946,176.292877 169.072769,185.430450 159.998840,194.505127 
	C155.950195,198.554092 151.683243,202.410461 147.904480,206.697220 
	C142.947388,212.320679 131.901596,215.523697 122.871475,211.464371 
	C113.752533,207.365128 108.288490,199.333221 107.914993,189.953476 
	C107.605186,182.173096 110.091408,176.058533 115.721916,170.619812 
	C123.842964,162.775330 131.345612,154.295013 139.298721,146.270950 
	C145.955902,139.554367 152.880554,133.102875 159.968369,126.262230 
	C140.450607,106.806717 121.726990,88.079185 102.834351,69.523727 
	C102.007355,68.711487 98.938637,68.768936 98.080986,69.610458 
	C82.738098,84.664879 67.546524,99.874405 52.442127,115.168808 
	C51.465160,116.158058 51.067932,118.103256 51.059818,119.607323 
	C50.966324,136.939774 50.962879,154.273132 51.067017,171.605453 
	C51.075916,173.086624 51.614346,174.963776 52.603325,175.977310 
	C61.152485,184.738708 69.801720,193.405060 78.540833,201.977707 
	C86.131187,209.423447 93.977730,216.609299 101.521530,224.100861 
	C107.247833,229.787491 112.564911,235.885284 118.269279,241.595139 
	C123.736038,247.067123 129.612427,252.131348 135.050507,257.630219 
	C144.823975,267.513000 154.435089,277.557526 164.006042,287.637024 
	C164.766006,288.437408 164.946686,290.030823 164.958099,291.259796 
	C165.036987,299.758881 164.917587,308.260162 165.035538,316.758362 
	C165.090698,320.732086 163.601135,322.272583 159.468658,322.084351 
	C152.649612,321.773743 145.702393,321.252625 138.998383,322.183197 
	C129.979507,323.435150 125.308815,317.700378 120.121254,312.415100 
	C114.932617,307.128723 109.934341,301.655518 104.745506,296.369293 
	C102.870262,294.458862 100.535347,292.998810 98.665909,291.083649 
	C90.074715,282.282349 81.694733,273.272217 73.005104,264.570557 
	C65.085938,256.640381 56.727558,249.148636 48.813965,241.213135 
	C39.027283,231.399414 29.518179,221.309326 19.851538,211.375214 
	C15.862681,207.275970 11.776034,203.271866 7.425238,199.091949 
z"/>
<path fill="#FFFFFF" opacity="1.000000" stroke="none" 
	d="
M890.943237,244.054810 
	C897.172485,254.191833 900.375305,265.380463 899.837830,277.092499 
	C898.986633,295.640289 892.841248,312.166107 874.727661,320.418762 
	C861.216492,326.574524 847.144165,326.273529 834.139954,317.654938 
	C833.052612,316.934296 831.958557,316.223480 830.851257,315.534271 
	C830.760376,315.477692 830.543457,315.623627 830.073120,315.777588 
	C830.073120,329.259888 830.073120,342.849884 830.073120,356.635040 
	C821.924927,357.788116 814.093262,359.608917 806.024048,356.334564 
	C805.881287,336.504150 805.929260,317.006744 805.977295,296.699036 
	C805.929382,284.058563 805.881348,272.228394 805.833252,260.398254 
	C805.894165,250.921890 805.955017,241.445541 806.439148,231.313309 
	C814.197937,230.657440 821.533447,230.657440 829.209351,230.657440 
	C829.209351,233.303070 829.209351,235.870255 829.209351,238.691284 
	C840.154297,229.622040 851.394836,224.512054 870.037476,230.115433 
	C875.639526,231.799225 880.666870,235.394714 885.957520,238.114441 
	C885.975952,238.461426 886.132385,238.727234 886.790588,239.285843 
	C888.416077,241.138123 889.677795,242.616409 890.939575,244.094696 
	C890.939575,244.094696 890.971252,244.039658 890.943237,244.054810 
M831.056458,265.813934 
	C828.022583,273.862396 829.033020,281.811523 832.250000,289.443451 
	C837.316711,301.463562 849.980225,306.459320 862.077332,301.440582 
	C879.501160,294.211975 880.391602,265.149811 867.557007,254.055450 
	C856.033508,244.094376 835.826355,248.791855 831.056458,265.813934 
z"/>
<path fill="#FFFFFF" opacity="1.000000" stroke="none" 
	d="
M552.166626,271.988892 
	C552.111084,287.304749 551.935059,302.621765 552.082642,317.935669 
	C552.120667,321.880859 550.967651,323.309235 546.963013,323.073486 
	C541.818787,322.770691 536.639526,322.881989 531.482605,323.043854 
	C528.410461,323.140289 526.941162,322.327057 526.947815,318.883606 
	C527.029175,276.588348 527.018616,234.292816 526.959351,191.997482 
	C526.955444,189.216827 528.121338,188.230164 530.698486,188.231049 
	C546.261169,188.236465 561.839233,187.785721 577.381287,188.345093 
	C587.980957,188.726578 598.368713,191.330750 606.727417,198.427353 
	C614.043152,204.638382 618.463379,213.091995 619.769348,222.393768 
	C621.317200,233.418594 619.820496,244.386627 612.992798,253.777603 
	C605.913574,263.514465 596.427429,269.382874 584.171997,269.971436 
	C574.093567,270.455475 564.002686,270.682312 553.194275,271.063232 
	C552.369690,271.398499 552.268127,271.693695 552.166626,271.988892 
M554.716492,210.002243 
	C553.815613,210.636597 552.137268,211.261032 552.129028,211.906769 
	C551.972961,224.165161 552.013916,236.426056 552.013916,249.000000 
	C560.218994,249.000000 567.852966,249.090622 575.482727,248.949585 
	C578.061707,248.901901 580.765076,248.660385 583.178528,247.830109 
	C591.450500,244.984390 596.820679,236.502884 595.995544,228.115463 
	C595.115784,219.172684 588.729858,211.987701 579.909912,211.095001 
	C571.879883,210.282227 563.762634,210.331161 554.716492,210.002243 
z"/>
<path fill="#FFFFFF" opacity="1.000000" stroke="none" 
	d="
M313.166656,120.988892 
	C313.111084,136.147110 312.896362,151.307480 313.099060,166.462234 
	C313.158234,170.887695 311.830627,172.339249 307.430389,172.085251 
	C301.485168,171.742081 295.505249,171.999969 289.273529,171.999969 
	C289.273529,127.252792 289.273529,82.870560 289.273529,38.000000 
	C305.864014,38.000000 322.308319,37.967796 338.752380,38.013901 
	C346.698547,38.036182 354.302704,39.674969 361.222473,43.698097 
	C373.778748,50.998260 380.212891,61.950947 381.066772,76.492516 
	C381.721100,87.636208 379.003082,97.684113 371.882324,106.150070 
	C365.062592,114.258118 356.420380,119.717155 345.406494,119.954948 
	C335.247681,120.174278 325.080719,120.015411 314.194244,120.063248 
	C313.369659,120.398544 313.268158,120.693718 313.166656,120.988892 
M348.963165,94.552307 
	C354.683685,90.178314 357.706573,84.103912 356.762909,77.232704 
	C355.668945,69.266602 351.433960,62.264854 342.753632,61.105789 
	C333.052460,59.810398 323.146729,60.046680 313.315247,59.615726 
	C313.315247,73.311859 313.315247,86.017540 313.315247,98.996681 
	C320.256256,98.996681 326.934235,99.491585 333.497406,98.836449 
	C338.537598,98.333344 343.433167,96.381119 348.963165,94.552307 
z"/>
<path fill="#FFFFFF" opacity="1.000000" stroke="none" 
	d="
M617.110962,82.045578 
	C626.546936,76.842773 636.800293,76.517914 647.190674,76.999168 
	C664.163025,77.785271 678.735107,89.502052 682.849426,105.441360 
	C684.626953,112.327431 685.093994,119.565605 685.958862,126.667877 
	C686.424744,130.493484 684.786926,132.129608 680.579773,132.088730 
	C660.281250,131.891525 639.979797,131.999939 619.654968,131.999939 
	C621.213379,143.341217 628.839417,152.191879 637.617126,152.999023 
	C653.086182,154.421432 660.386169,150.423874 664.691223,137.753647 
	C670.503418,139.518616 676.409119,141.106384 682.105713,143.249893 
	C683.024902,143.595764 683.800415,146.700897 683.311829,148.047882 
	C677.524414,164.002304 660.408264,175.208450 643.907227,175.162109 
	C625.412476,175.110153 611.572449,167.664627 601.363525,151.734985 
	C599.885986,147.563919 598.656433,143.954849 597.679443,140.278625 
	C594.257324,127.401932 596.299194,114.705833 599.107361,102.048820 
	C599.404724,101.601883 599.702026,101.154938 600.323853,100.279770 
	C601.131592,98.920135 601.614746,97.988716 602.097900,97.057281 
	C602.097900,97.057281 602.029175,97.025230 602.346802,96.931480 
	C603.142273,95.910919 603.620056,94.984108 604.097900,94.057297 
	C604.097900,94.057304 604.029114,94.025139 604.353394,93.925812 
	C608.822144,89.899513 612.966553,85.972549 617.110962,82.045578 
M628.580078,114.000000 
	C639.645325,114.000000 650.710632,114.000000 661.846497,114.000000 
	C659.852783,101.318275 652.030579,96.564522 641.039490,96.193619 
	C630.294983,95.831039 622.087524,103.075516 620.189453,114.000000 
	C622.708984,114.000000 625.160522,114.000000 628.580078,114.000000 
z"/>
<path fill="#FFFFFF" opacity="1.000000" stroke="none" 
	d="
M682.549194,289.191437 
	C689.234497,290.846252 695.549805,292.644897 702.103394,294.511383 
	C695.868774,311.910034 684.868286,321.826477 666.898193,324.144348 
	C653.010498,325.935730 640.842651,322.992279 629.880005,314.429413 
	C619.695801,306.474579 614.546387,295.556702 613.214783,283.211884 
	C612.202026,273.822266 612.350525,264.151642 615.947937,255.004196 
	C620.533508,243.343933 628.556946,235.108154 640.177612,230.377167 
	C654.595459,224.507401 668.608521,225.823761 682.114197,233.064941 
	C692.448730,238.605927 698.353638,247.890747 700.795349,258.925995 
	C702.415588,266.248230 704.744080,273.910248 701.596558,281.935150 
	C679.931580,281.935150 658.162781,281.935150 636.100952,281.935150 
	C637.740234,290.381531 640.716309,297.093536 648.590332,301.351685 
	C658.074463,306.480469 675.761169,304.912018 680.092407,292.023499 
	C680.433594,291.008301 681.467407,290.225861 682.549194,289.191437 
M671.936584,251.413757 
	C664.016174,245.643433 655.470642,245.582001 647.058105,249.631882 
	C641.050903,252.523819 638.744446,258.469452 636.817627,264.778381 
	C651.278503,264.778381 665.029907,264.778381 678.875732,264.778381 
	C678.624634,259.372955 676.611694,255.124023 671.936584,251.413757 
z"/>
<path fill="#FFFFFF" opacity="1.000000" stroke="none" 
	d="
M420.011475,137.375641 
	C425.264313,124.718483 434.917114,119.194748 447.825714,117.895576 
	C455.898346,117.083115 463.906342,115.462540 471.864624,113.822762 
	C473.403931,113.505592 475.787903,111.317596 475.691162,110.168625 
	C475.419250,106.938217 474.969849,102.959755 472.960693,100.775146 
	C465.605377,92.777618 447.108368,96.699257 444.276703,107.046051 
	C442.690369,112.842415 439.875610,112.869705 435.505737,111.804382 
	C431.572357,110.845451 427.656342,109.782036 423.681915,109.034492 
	C420.100281,108.360825 420.691986,105.754745 421.213715,103.652565 
	C424.652618,89.796806 433.640228,81.654297 447.317200,77.911224 
	C458.660797,74.806732 469.712646,76.231071 480.566986,79.363533 
	C490.821320,82.322823 499.940186,95.884995 499.984436,107.012245 
	C500.046021,122.498703 499.932648,137.986084 500.045288,153.471954 
	C500.075012,157.563782 500.569458,161.661346 501.011658,165.738800 
	C501.585236,171.027893 500.855316,171.969925 495.669952,171.996735 
	C492.339569,172.013947 489.009064,172.000107 485.678589,171.999969 
	C478.182098,171.999664 478.182098,171.999603 477.842621,164.287506 
	C473.882141,166.689835 470.140137,169.180313 466.202881,171.309860 
	C448.692993,180.780487 424.387573,171.758026 419.589294,150.890320 
	C418.642120,146.771103 419.797394,142.168457 420.011475,137.375641 
M472.516663,148.006180 
	C476.734955,142.687256 477.819336,136.688477 476.593201,129.989410 
	C468.549469,131.352859 460.728973,132.687897 452.904877,134.001236 
	C448.116547,134.804993 443.653839,139.082413 443.016785,143.521210 
	C442.439545,147.543137 445.475861,153.280365 449.936554,154.177963 
	C454.250885,155.046082 459.054871,154.899460 463.358276,153.930618 
	C466.500946,153.223099 469.180603,150.459030 472.516663,148.006180 
z"/>
<path fill="#FFFFFF" opacity="1.000000" stroke="none" 
	d="
M962.552734,296.549835 
	C972.732117,309.196320 992.956787,306.573395 1000.676575,291.294281 
	C1002.013489,288.648315 1002.921936,288.817902 1004.972900,289.464783 
	C1010.201843,291.114014 1015.460510,292.668884 1021.989075,294.650604 
	C1019.787292,299.220459 1018.343323,303.909821 1015.582275,307.618683 
	C1008.395813,317.271881 998.683472,322.433258 986.499512,324.205658 
	C972.688843,326.214783 960.945984,322.279755 949.400146,314.939148 
	C947.926025,313.652313 946.811707,312.421539 945.281372,310.777832 
	C943.858521,309.087860 942.851746,307.810913 941.844971,306.533966 
	C941.844971,306.533966 941.765747,306.252106 941.440308,305.928528 
	C931.882507,290.082703 929.866577,273.767792 936.011597,256.681854 
	C942.081543,239.804611 954.541748,230.080856 971.818237,227.185104 
	C983.969177,225.148483 995.464844,228.632401 1005.957642,235.114502 
	C1008.063538,237.337585 1010.169495,239.560699 1012.578125,241.911057 
	C1021.431091,253.820724 1023.157227,267.170197 1021.661194,281.756866 
	C1000.075378,281.756866 978.261353,281.756866 954.674988,281.756866 
	C957.434998,287.320129 959.643250,291.771027 962.201050,296.360107 
	C962.550659,296.498291 962.552734,296.549835 962.552734,296.549835 
M995.940674,264.999481 
	C996.768250,264.999481 997.595764,264.999481 998.439880,264.999481 
	C997.393982,253.228851 990.427917,246.883209 976.278809,247.120117 
	C966.590942,247.282349 959.349792,252.542419 956.550964,264.999939 
	C969.408630,264.999939 982.225647,264.999939 995.940674,264.999481 
z"/>
<path fill="#FFFFFF" opacity="1.000000" stroke="none" 
	d="
M424.000824,283.981689 
	C422.217285,305.062408 403.788605,323.026031 383.541016,325.175171 
	C371.508667,326.452301 360.605286,324.759644 350.549164,318.130341 
	C339.715942,310.988739 332.539429,301.193085 330.037964,288.346497 
	C328.069031,278.235016 327.975342,268.033173 331.424286,258.230835 
	C337.079254,242.158691 348.675049,231.862091 365.054230,228.234558 
	C383.088409,224.240494 399.497375,228.591660 412.609589,242.211380 
	C419.454956,249.321671 423.253815,258.112976 423.938049,268.004730 
	C424.294525,273.158203 424.001312,278.356567 424.000824,283.981689 
M357.921295,293.540039 
	C366.167358,305.679047 382.190948,307.545380 392.667694,297.693878 
	C402.888824,288.082794 402.679810,275.984344 398.953278,263.663818 
	C394.690186,249.569382 377.502655,244.955597 365.769104,251.162979 
	C350.483551,259.249451 350.035370,282.154846 357.921295,293.540039 
z"/>
<path fill="#FFFFFF" opacity="1.000000" stroke="none" 
	d="
M725.042175,315.885223 
	C716.838989,308.079193 710.847107,298.980011 708.337769,287.769806 
	C704.049744,268.613983 710.115479,244.357635 730.546326,233.324707 
	C744.155945,225.975357 758.751770,224.177216 773.333130,230.877838 
	C778.566589,233.282776 783.300354,236.775009 788.708252,240.215424 
	C790.416077,242.138107 791.677795,243.616409 792.939575,245.094696 
	C792.939575,245.094696 792.976318,245.024689 793.084717,245.365143 
	C801.026306,256.091095 802.517212,267.978027 802.096924,280.576294 
	C801.661377,293.634552 796.408875,304.639648 787.149658,312.993561 
	C774.620911,324.297211 759.158081,327.210632 742.855713,323.227142 
	C736.688171,321.720093 730.966858,318.386353 725.042175,315.885223 
M732.897705,263.540131 
	C726.389954,276.204193 732.124207,292.530304 740.298035,298.920532 
	C750.741943,307.085510 764.550537,305.066101 772.625122,294.913086 
	C778.391418,287.662415 779.376892,279.660828 778.230713,270.593628 
	C777.164185,262.155487 773.332336,256.205078 766.436218,251.909637 
	C755.062988,244.825500 738.652954,249.078491 732.897705,263.540131 
z"/>
<path fill="#FFFFFF" opacity="1.000000" stroke="none" 
	d="
M526.042175,166.885223 
	C521.545288,161.624664 515.988098,156.923660 512.837280,150.952820 
	C509.396698,144.432785 507.185669,136.868378 506.220490,129.525040 
	C504.529663,116.660355 507.585175,104.386620 516.104553,94.339325 
	C520.218323,89.487755 525.828308,85.904831 531.244873,81.381416 
	C532.224854,80.986214 532.794678,81.107643 533.205872,80.905876 
	C543.195190,76.004265 553.611572,76.536644 564.284729,77.854958 
	C572.786072,78.905006 579.172913,83.742584 585.939514,88.094627 
	C585.939514,88.094627 585.976501,88.024521 586.062683,88.338272 
	C587.150879,89.923340 588.152954,91.194664 589.155029,92.465988 
	C589.155029,92.465981 589.234253,92.747910 589.558899,93.069916 
	C591.680786,97.143608 593.403625,100.933372 595.299866,104.634338 
	C596.692078,107.351654 595.787048,108.277107 593.016357,109.138741 
	C588.236206,110.625275 583.707275,112.921906 578.923767,114.393776 
	C577.677002,114.777382 575.620361,113.683197 574.413269,112.688278 
	C573.382812,111.838921 573.062378,110.145256 572.385071,108.847427 
	C564.567200,93.867020 543.876831,95.294273 535.272705,107.746323 
	C529.169983,116.578323 528.285278,126.733177 532.010620,137.207336 
	C537.944824,153.891922 560.811279,158.327698 571.311951,145.097595 
	C573.486450,142.357849 574.972046,139.071411 576.852722,135.906464 
	C582.083984,137.868134 587.130371,140.142731 592.400208,141.621033 
	C596.982056,142.906342 596.542358,145.283066 595.109558,148.609436 
	C591.655640,156.627792 586.346558,163.289139 579.079224,167.881210 
	C564.481201,177.105316 549.041016,177.599457 533.322754,170.684555 
	C530.822571,169.584686 528.465454,168.159821 526.042175,166.885223 
z"/>
<path fill="#FFFFFF" opacity="1.000000" stroke="none" 
	d="
M702.745789,169.310318 
	C692.920532,164.127899 687.887878,156.052704 685.610046,145.577209 
	C692.748962,143.550308 699.408691,141.659485 706.049622,139.773972 
	C710.450806,152.735947 718.898132,157.620560 729.793396,154.166092 
	C734.295959,152.738480 736.656006,149.886627 736.889893,145.495895 
	C737.058899,142.323135 731.872009,137.728180 728.283447,136.989655 
	C722.254456,135.748901 716.177551,134.650162 710.252747,133.013947 
	C699.542847,130.056244 691.214478,123.646065 689.260376,112.460129 
	C687.192993,100.625275 690.868896,90.293304 701.457275,82.934578 
	C714.591858,73.806305 739.855713,74.648468 751.101501,87.618515 
	C755.013184,92.130058 757.544250,97.261734 758.138367,103.515038 
	C751.561584,105.444878 745.228149,107.303314 738.529175,109.269005 
	C737.192383,100.958252 732.643799,96.438057 724.289001,95.594452 
	C718.967957,95.057190 713.391907,97.459274 710.945557,102.290062 
	C708.858704,106.411018 712.166321,111.731819 717.684570,112.978912 
	C723.851257,114.372574 730.074585,115.527390 736.213806,117.029015 
	C757.933167,122.341415 766.790161,145.683090 751.792664,163.477829 
	C746.182190,170.134781 738.186096,173.546341 729.338745,173.951187 
	C720.299377,174.364822 711.216492,174.536758 702.745789,169.310318 
z"/>
<path fill="#FFFFFF" opacity="1.000000" stroke="none" 
	d="
M312.988892,229.833344 
	C319.447266,229.833344 325.905609,229.833344 332.680603,229.833344 
	C332.680603,236.646210 332.680603,243.028809 332.680603,250.023148 
	C326.427551,250.023148 320.172272,250.023148 313.194031,250.063263 
	C312.369629,250.398560 312.268127,250.693741 312.166656,250.988922 
	C312.111115,272.968597 311.919373,294.949432 312.106995,316.927032 
	C312.147888,321.716095 310.862793,323.458405 305.969116,323.092987 
	C300.532532,322.686981 295.042267,323.000000 288.976868,323.000000 
	C288.976868,299.087463 288.976868,275.502380 288.936737,251.194214 
	C288.601440,250.369644 288.306274,250.268158 288.011108,250.166656 
	C282.884613,250.166656 277.758087,250.166656 272.317322,250.166656 
	C272.317322,243.353149 272.317322,236.972275 272.317322,229.976807 
	C277.233002,229.976807 282.159058,229.976807 287.807007,229.936722 
	C288.630371,229.601456 288.731873,229.306274 288.833344,229.011078 
	C288.888885,223.194092 289.246307,217.360947 288.936005,211.563538 
	C288.323700,200.124130 299.473572,188.001434 310.701569,186.195007 
	C317.024963,185.177658 323.661621,185.763840 330.118958,186.197113 
	C331.496368,186.289536 333.642914,188.742325 333.819061,190.291428 
	C334.323090,194.724411 334.128571,199.257126 333.948364,203.740158 
	C333.835388,206.550339 332.579834,208.243790 329.204865,207.702682 
	C316.039215,205.591766 313.070496,210.279358 312.039551,220.621140 
	C311.793396,223.090408 312.016205,225.606445 312.063354,228.814911 
	C312.398560,229.630356 312.693726,229.731857 312.988892,229.833344 
z"/>
<path fill="#FFFFFF" opacity="1.000000" stroke="none" 
	d="
M904.042480,320.885559 
	C904.020691,312.865112 903.998901,304.844696 903.905273,296.416199 
	C903.881348,285.034546 903.929321,274.060913 903.905273,262.692688 
	C903.893921,238.189789 903.954590,214.081497 904.359253,189.486496 
	C905.149841,188.704483 905.596436,188.409164 906.043030,188.113831 
	C912.130066,188.148605 918.217163,188.183395 924.851196,188.514587 
	C929.018738,188.770050 927.971863,191.485764 927.973450,193.385696 
	C928.008179,234.825302 927.999939,276.264923 927.999878,317.704529 
	C927.999878,318.989044 927.999878,320.273529 927.999878,322.000000 
	C923.431274,322.000000 919.306335,322.144348 915.196472,321.957306 
	C911.469910,321.787750 907.759827,321.257050 904.042480,320.885559 
z"/>
<path fill="#FFFFFF" opacity="1.000000" stroke="none" 
	d="
M410.000000,62.000019 
	C410.000000,97.113182 409.935944,131.726624 410.082764,166.339172 
	C410.100677,170.563568 409.152557,172.397339 404.565674,172.089661 
	C398.952393,171.713135 393.294647,171.999954 387.329041,171.999954 
	C387.329041,127.403961 387.329041,83.060036 387.329041,38.357719 
	C394.570007,38.357719 401.956604,38.357719 410.000000,38.357719 
	C410.000000,45.995728 410.000000,53.747879 410.000000,62.000019 
z"/>
<path fill="#47704C" opacity="1.000000" stroke="none" 
	d="
M526.112793,167.226196 
	C528.465454,168.159821 530.822571,169.584686 533.322754,170.684555 
	C549.041016,177.599457 564.481201,177.105316 579.079224,167.881210 
	C586.346558,163.289139 591.655640,156.627792 595.109558,148.609436 
	C596.542358,145.283066 596.982056,142.906342 592.400208,141.621033 
	C587.130371,140.142731 582.083984,137.868134 576.852722,135.906464 
	C574.972046,139.071411 573.486450,142.357849 571.311951,145.097595 
	C560.811279,158.327698 537.944824,153.891922 532.010620,137.207336 
	C528.285278,126.733177 529.169983,116.578323 535.272705,107.746323 
	C543.876831,95.294273 564.567200,93.867020 572.385071,108.847427 
	C573.062378,110.145256 573.382812,111.838921 574.413269,112.688278 
	C575.620361,113.683197 577.677002,114.777382 578.923767,114.393776 
	C583.707275,112.921906 588.236206,110.625275 593.016357,109.138741 
	C595.787048,108.277107 596.692078,107.351654 595.299866,104.634338 
	C593.403625,100.933372 591.680786,97.143608 589.698242,93.114807 
	C590.991150,93.864876 592.661194,94.703461 593.900818,95.965012 
	C595.611328,97.705688 596.997070,99.765480 598.814636,101.868706 
	C596.299194,114.705833 594.257324,127.401932 597.679443,140.278625 
	C598.656433,143.954849 599.885986,147.563919 601.057190,151.580750 
	C599.567139,153.322937 597.591614,154.419403 596.539307,156.095535 
	C587.457336,170.560486 574.755432,178.065598 557.404907,178.127945 
	C547.710571,178.162781 538.552185,177.175049 530.408691,171.548737 
	C528.834656,170.461258 527.583435,168.906418 526.112793,167.226196 
z"/>
<path fill="#FFFFFF" opacity="1.000000" stroke="none" 
	d="
M487.000000,237.118469 
	C487.000000,239.934265 487.019257,242.265366 486.996704,244.596085 
	C486.892120,255.405136 488.365631,253.821869 477.319366,254.041046 
	C474.736542,254.092300 472.167175,254.685959 469.586029,254.981400 
	C461.796143,255.873047 456.903473,263.359619 456.099121,270.293121 
	C455.322021,276.991669 455.162384,283.778717 455.041718,290.532440 
	C454.875214,299.853210 454.872650,309.181763 455.064240,318.501526 
	C455.137360,322.057495 453.832245,323.175385 450.399139,323.056763 
	C444.447357,322.851135 438.483337,322.999664 432.266022,322.999664 
	C432.266022,291.917419 432.266022,261.214539 432.266022,230.255554 
	C439.797211,230.255554 447.193909,230.255554 454.987793,230.255554 
	C454.987793,232.849731 454.987793,235.260223 454.987793,238.031677 
	C459.103546,235.590683 462.557129,232.835770 466.492188,231.404480 
	C470.543274,229.930984 475.042847,229.301544 479.383392,229.098602 
	C486.985291,228.743164 486.997192,228.997971 487.000000,237.118469 
z"/>
<path fill="#47704C" opacity="1.000000" stroke="none" 
	d="
M904.062622,321.281250 
	C907.759827,321.257050 911.469910,321.787750 915.196472,321.957306 
	C919.306335,322.144348 923.431274,322.000000 927.999878,322.000000 
	C927.999878,320.273529 927.999878,318.989044 927.999878,317.704529 
	C927.999939,276.264923 928.008179,234.825302 927.973450,193.385696 
	C927.971863,191.485764 929.018738,188.770050 925.180786,188.466003 
	C925.364319,185.146622 926.937256,184.216156 928.474548,187.053284 
	C930.150085,190.145493 931.783447,193.741806 931.844849,197.147034 
	C932.171570,215.264252 931.999451,233.390442 932.000061,251.513519 
	C932.000122,253.266556 932.000061,255.019608 932.000061,256.772644 
	C932.441345,256.877411 932.882690,256.982147 933.323975,257.086884 
	C933.887817,255.881165 934.544312,254.709503 935.001709,253.464676 
	C944.379456,227.942001 975.305786,214.100296 1001.557800,228.915405 
	C1003.439453,229.977295 1004.488953,232.513702 1005.941467,234.739517 
	C995.464844,228.632401 983.969177,225.148483 971.818237,227.185104 
	C954.541748,230.080856 942.081543,239.804611 936.011597,256.681854 
	C929.866577,273.767792 931.882507,290.082703 941.301025,305.883636 
	C939.869873,304.820404 937.794434,303.762482 936.744568,302.068817 
	C935.231750,299.628204 934.464050,296.725677 932.333740,294.092346 
	C932.222473,296.611145 932.034241,299.129364 932.015015,301.648865 
	C931.965698,308.109100 931.944885,314.570435 932.007019,321.030396 
	C932.037964,324.253632 930.811340,326.027771 927.366577,325.994873 
	C921.237976,325.936279 915.107971,325.943756 908.979309,326.003723 
	C905.969360,326.033142 904.291321,324.730835 904.062622,321.281250 
z"/>
<path fill="#47704C" opacity="1.000000" stroke="none" 
	d="
M725.060120,316.253784 
	C730.966858,318.386353 736.688171,321.720093 742.855713,323.227142 
	C759.158081,327.210632 774.620911,324.297211 787.149658,312.993561 
	C796.408875,304.639648 801.661377,293.634552 802.096924,280.576294 
	C802.517212,267.978027 801.026306,256.091095 793.049683,245.383423 
	C794.838196,246.845245 797.042480,248.416962 798.638184,250.463257 
	C801.010925,253.506088 802.953369,256.884430 805.456116,260.259155 
	C805.881348,272.228394 805.929382,284.058563 805.905396,296.272430 
	C804.230408,298.451996 802.124390,300.000488 801.101501,302.081421 
	C788.926697,326.848328 762.532715,333.151855 739.247681,326.351807 
	C733.844910,324.774017 727.893921,322.617004 725.060120,316.253784 
z"/>
<path fill="#47704C" opacity="1.000000" stroke="none" 
	d="
M885.941162,237.737885 
	C880.666870,235.394714 875.639526,231.799225 870.037476,230.115433 
	C851.394836,224.512054 840.154297,229.622040 829.209351,238.691284 
	C829.209351,235.870255 829.209351,233.303070 829.209351,230.657440 
	C821.533447,230.657440 814.197937,230.657440 806.488770,230.849609 
	C804.260559,227.483246 806.723083,226.311188 809.345154,226.174789 
	C814.987183,225.881302 820.655945,226.032120 826.311279,226.137787 
	C827.206238,226.154510 828.490356,226.637375 828.911926,227.323914 
	C832.225159,232.719040 836.488770,230.975266 839.909912,228.202576 
	C848.357788,221.356003 871.752563,222.874619 880.862915,231.095566 
	C882.831726,232.872131 884.251892,235.256790 885.941162,237.737885 
z"/>
<path fill="#47704C" opacity="1.000000" stroke="none" 
	d="
M585.926636,87.718964 
	C579.172913,83.742584 572.786072,78.905006 564.284729,77.854958 
	C553.611572,76.536644 543.195190,76.004265 533.205872,80.905876 
	C532.794678,81.107643 532.224854,80.986214 531.385498,81.065109 
	C531.996216,79.754959 532.657471,77.661079 533.948608,77.146027 
	C551.353027,70.203156 568.012329,70.656631 583.144348,82.968002 
	C584.413757,84.000771 585.006531,85.865234 585.926636,87.718964 
z"/>
<path fill="#47704C" opacity="1.000000" stroke="none" 
	d="
M616.810791,81.924202 
	C612.966553,85.972549 608.822144,89.899513 604.369385,93.960236 
	C605.198730,89.068718 612.199402,82.157127 616.810791,81.924202 
z"/>
<path fill="#47704C" opacity="1.000000" stroke="none" 
	d="
M890.926270,243.717590 
	C889.677795,242.616409 888.416077,241.138123 887.020386,239.351501 
	C888.228577,240.475601 889.570801,241.908035 890.926270,243.717590 
z"/>
<path fill="#47704C" opacity="1.000000" stroke="none" 
	d="
M792.926270,244.717590 
	C791.677795,243.616409 790.416077,242.138107 789.020386,240.351501 
	C790.228577,241.475586 791.570801,242.908020 792.926270,244.717590 
z"/>
<path fill="#47704C" opacity="1.000000" stroke="none" 
	d="
M589.261108,92.105675 
	C588.152954,91.194664 587.150879,89.923340 586.027588,88.356628 
	C587.059937,89.289284 588.213562,90.517319 589.261108,92.105675 
z"/>
<path fill="#47704C" opacity="1.000000" stroke="none" 
	d="
M905.884521,187.870148 
	C905.596436,188.409164 905.149841,188.704483 904.406860,189.022888 
	C903.975647,188.332275 903.840759,187.618591 903.705811,186.904907 
	C904.379211,187.145416 905.052673,187.385925 905.884521,187.870148 
z"/>
<path fill="#47704C" opacity="1.000000" stroke="none" 
	d="
M603.781006,94.165421 
	C603.620056,94.984108 603.142273,95.910919 602.362732,96.965881 
	C602.528748,96.153877 602.996460,95.213715 603.781006,94.165421 
z"/>
<path fill="#47704C" opacity="1.000000" stroke="none" 
	d="
M601.779907,97.167053 
	C601.614746,97.988716 601.131592,98.920135 600.345764,99.982666 
	C600.516052,99.168121 600.988953,98.222473 601.779907,97.167053 
z"/>
<path fill="#47704C" opacity="1.000000" stroke="none" 
	d="
M312.317017,250.865753 
	C312.268127,250.693741 312.369629,250.398560 312.729675,250.135010 
	C312.833740,250.375931 312.660126,250.567902 312.317017,250.865753 
z"/>
<path fill="#47704C" opacity="1.000000" stroke="none" 
	d="
M552.317017,271.865723 
	C552.268127,271.693695 552.369690,271.398499 552.729736,271.134979 
	C552.833862,271.375946 552.660217,271.567902 552.317017,271.865723 
z"/>
<path fill="#47704C" opacity="1.000000" stroke="none" 
	d="
M288.134277,250.317017 
	C288.306274,250.268158 288.601440,250.369644 288.864990,250.729675 
	C288.624084,250.833725 288.432129,250.660126 288.134277,250.317017 
z"/>
<path fill="#47704C" opacity="1.000000" stroke="none" 
	d="
M313.317017,120.865738 
	C313.268158,120.693718 313.369659,120.398544 313.729675,120.135017 
	C313.833740,120.375931 313.660126,120.567909 313.317017,120.865738 
z"/>
<path fill="#47704C" opacity="1.000000" stroke="none" 
	d="
M288.682983,229.134247 
	C288.731873,229.306274 288.630371,229.601456 288.270325,229.864990 
	C288.166260,229.624069 288.339874,229.432098 288.682983,229.134247 
z"/>
<path fill="#47704C" opacity="1.000000" stroke="none" 
	d="
M312.865723,229.682983 
	C312.693726,229.731857 312.398560,229.630356 312.135010,229.270325 
	C312.375916,229.166275 312.567871,229.339874 312.865723,229.682983 
z"/>
<path fill="#47704C" opacity="1.000000" stroke="none" 
	d="
M90.014923,8.707970 
	C80.856506,18.405737 71.734596,27.756403 62.464302,36.957569 
	C57.561447,41.823868 52.355949,46.383923 47.381054,51.179710 
	C45.739685,52.761978 44.392776,54.649700 42.438210,56.374374 
	C40.958397,56.445145 39.578819,56.147648 39.003555,56.695183 
	C34.237671,61.231373 29.504799,65.817154 25.048304,70.651894 
	C24.063068,71.720749 24.214775,73.837593 23.842960,75.471878 
	C23.842960,75.471878 23.834223,75.493820 23.833757,75.505707 
	C21.617970,76.584763 19.106504,77.287315 17.249466,78.795616 
	C13.477692,81.859070 10.059671,85.358078 5.456435,89.645706 
	C5.235682,86.384499 5.017171,84.646042 5.015530,82.907387 
	C4.993031,59.075912 5.129853,35.243141 4.897182,11.413917 
	C4.847465,6.322033 6.467620,4.853907 11.479096,4.900146 
	C35.641850,5.123085 59.807827,4.980078 83.972519,5.031843 
	C86.451408,5.037153 89.682678,4.100245 90.014923,8.707970 
z"/>
<path fill="#47704C" opacity="1.000000" stroke="none" 
	d="
M941.739014,306.895264 
	C942.851746,307.810913 943.858521,309.087860 944.989502,310.660828 
	C943.953430,309.723419 942.793213,308.489990 941.739014,306.895264 
z"/>
<path fill="#47704C" opacity="1.000000" stroke="none" 
	d="
M962.527344,296.488037 
	C961.867615,293.300354 961.231201,290.122986 960.509460,286.519714 
	C973.742126,286.519714 986.498474,286.519714 999.819336,286.519714 
	C997.832214,293.021942 994.664978,297.603912 988.426208,299.063812 
	C981.185791,300.758118 973.977905,300.856628 967.123108,297.176849 
	C966.037354,296.593994 964.634094,296.602570 962.965210,296.443787 
	C962.552734,296.549835 962.550659,296.498291 962.527344,296.488037 
z"/>
<path fill="#47704C" opacity="1.000000" stroke="none" 
	d="
M24.094181,75.280685 
	C24.214775,73.837593 24.063068,71.720749 25.048304,70.651894 
	C29.504799,65.817154 34.237671,61.231373 39.003555,56.695183 
	C39.578819,56.147648 40.958397,56.445145 42.166122,56.617714 
	C36.359840,62.952785 30.352619,69.021141 24.094181,75.280685 
z"/>
<path fill="#47704C" opacity="1.000000" stroke="none" 
	d="
M831.236694,265.448090 
	C835.826355,248.791855 856.033508,244.094376 867.557007,254.055450 
	C880.391602,265.149811 879.501160,294.211975 862.077332,301.440582 
	C849.980225,306.459320 837.316711,301.463562 832.250000,289.443451 
	C829.033020,281.811523 828.022583,273.862396 831.236694,265.448090 
z"/>
<path fill="#47704C" opacity="1.000000" stroke="none" 
	d="
M555.200195,210.001251 
	C563.762634,210.331161 571.879883,210.282227 579.909912,211.095001 
	C588.729858,211.987701 595.115784,219.172684 595.995544,228.115463 
	C596.820679,236.502884 591.450500,244.984390 583.178528,247.830109 
	C580.765076,248.660385 578.061707,248.901901 575.482727,248.949585 
	C567.852966,249.090622 560.218994,249.000000 552.013916,249.000000 
	C552.013916,236.426056 551.972961,224.165161 552.129028,211.906769 
	C552.137268,211.261032 553.815613,210.636597 555.200195,210.001251 
z"/>
<path fill="#47704C" opacity="1.000000" stroke="none" 
	d="
M348.678101,94.812820 
	C343.433167,96.381119 338.537598,98.333344 333.497406,98.836449 
	C326.934235,99.491585 320.256256,98.996681 313.315247,98.996681 
	C313.315247,86.017540 313.315247,73.311859 313.315247,59.615726 
	C323.146729,60.046680 333.052460,59.810398 342.753632,61.105789 
	C351.433960,62.264854 355.668945,69.266602 356.762909,77.232704 
	C357.706573,84.103912 354.683685,90.178314 348.678101,94.812820 
z"/>
<path fill="#47704C" opacity="1.000000" stroke="none" 
	d="
M628.096069,114.000000 
	C625.160522,114.000000 622.708984,114.000000 620.189453,114.000000 
	C622.087524,103.075516 630.294983,95.831039 641.039490,96.193619 
	C652.030579,96.564522 659.852783,101.318275 661.846497,114.000000 
	C650.710632,114.000000 639.645325,114.000000 628.096069,114.000000 
z"/>
<path fill="#47704C" opacity="1.000000" stroke="none" 
	d="
M672.189636,251.686646 
	C676.611694,255.124023 678.624634,259.372955 678.875732,264.778381 
	C665.029907,264.778381 651.278503,264.778381 636.817627,264.778381 
	C638.744446,258.469452 641.050903,252.523819 647.058105,249.631882 
	C655.470642,245.582001 664.016174,245.643433 672.189636,251.686646 
z"/>
<path fill="#47704C" opacity="1.000000" stroke="none" 
	d="
M472.291656,148.308929 
	C469.180603,150.459030 466.500946,153.223099 463.358276,153.930618 
	C459.054871,154.899460 454.250885,155.046082 449.936554,154.177963 
	C445.475861,153.280365 442.439545,147.543137 443.016785,143.521210 
	C443.653839,139.082413 448.116547,134.804993 452.904877,134.001236 
	C460.728973,132.687897 468.549469,131.352859 476.593201,129.989410 
	C477.819336,136.688477 476.734955,142.687256 472.291656,148.308929 
z"/>
<path fill="#47704C" opacity="1.000000" stroke="none" 
	d="
M995.491699,264.999695 
	C982.225647,264.999939 969.408630,264.999939 956.550964,264.999939 
	C959.349792,252.542419 966.590942,247.282349 976.278809,247.120117 
	C990.427917,246.883209 997.393982,253.228851 998.439880,264.999481 
	C997.595764,264.999481 996.768250,264.999481 995.491699,264.999695 
z"/>
<path fill="#47704C" opacity="1.000000" stroke="none" 
	d="
M357.678406,293.253723 
	C350.035370,282.154846 350.483551,259.249451 365.769104,251.162979 
	C377.502655,244.955597 394.690186,249.569382 398.953278,263.663818 
	C402.679810,275.984344 402.888824,288.082794 392.667694,297.693878 
	C382.190948,307.545380 366.167358,305.679047 357.678406,293.253723 
z"/>
<path fill="#47704C" opacity="1.000000" stroke="none" 
	d="
M732.970337,263.154541 
	C738.652954,249.078491 755.062988,244.825500 766.436218,251.909637 
	C773.332336,256.205078 777.164185,262.155487 778.230713,270.593628 
	C779.376892,279.660828 778.391418,287.662415 772.625122,294.913086 
	C764.550537,305.066101 750.741943,307.085510 740.298035,298.920532 
	C732.124207,292.530304 726.389954,276.204193 732.970337,263.154541 
z"/>
</svg>