<svg version="1.1" id="Layer_1" xmlns="http://www.w3.org/2000/svg" xmlns:xlink="http://www.w3.org/1999/xlink" x="0px" y="0px"
	 width="100%" viewBox="0 0 2999 1920" enable-background="new 0 0 2999 1920" xml:space="preserve">
<path fill="#000000" opacity="1.000000" stroke="none" 
	d="
M1668.000000,1922.000000 
	C1112.000000,1922.000000 557.000000,1922.000000 2.000000,1922.000000 
	C2.000000,1282.000000 2.000000,642.000000 2.000000,2.000000 
	C1002.000000,2.000000 2002.000000,2.000000 3002.000000,2.000000 
	C3002.000000,642.000000 3002.000000,1282.000000 3002.000000,1922.000000 
	C2557.666748,1922.000000 2113.333252,1922.000000 1668.000000,1922.000000 
M865.213684,1442.351807 
	C867.783875,1442.749878 870.354065,1443.147827 872.924255,1443.545898 
	C873.132629,1442.651855 873.340942,1441.757812 873.549316,1440.863647 
	C870.345825,1439.961548 867.142273,1439.059570 862.621033,1437.546997 
	C859.203552,1436.229370 855.763611,1434.966919 852.372437,1433.584595 
	C836.256409,1427.015381 820.732239,1419.369995 807.594360,1407.693115 
	C789.045288,1391.206665 780.777344,1371.010376 785.059875,1346.008667 
	C787.900208,1329.426147 795.147888,1315.069458 805.515442,1302.139404 
	C821.378113,1282.355957 841.135681,1266.901978 862.965515,1254.611694 
	C895.462402,1236.315796 928.566345,1219.065674 961.755188,1202.039551 
	C1002.667480,1181.051392 1043.824829,1160.561401 1082.709351,1135.874634 
	C1119.470947,1112.535767 1153.263916,1085.665771 1181.780640,1052.562866 
	C1210.307861,1019.447693 1230.285889,981.767822 1241.026123,939.350586 
	C1252.564941,893.778809 1253.107910,847.727661 1245.837769,801.516052 
	C1233.588257,723.651489 1196.613525,659.427734 1137.953125,607.263428 
	C1103.555298,576.674744 1064.957886,552.678589 1023.268433,533.416382 
	C973.413391,510.381256 921.487854,493.887390 867.535645,483.731262 
	C865.523987,483.352600 863.428345,483.419952 861.371887,483.279449 
	C861.208496,483.927002 861.045044,484.574524 860.881653,485.222076 
	C865.439331,486.832153 869.982483,488.484894 874.557190,490.044952 
	C893.981812,496.668854 912.088501,505.709442 927.410767,519.593628 
	C945.860352,536.311523 953.515747,556.787231 948.709106,581.638245 
	C946.060974,595.329346 940.587341,607.735107 932.416138,618.865601 
	C916.988953,639.879883 896.778870,655.599060 874.942078,669.348450 
	C839.915649,691.402649 802.734009,709.469849 765.755676,727.889893 
	C729.661377,745.869690 693.610962,763.915283 659.340820,785.269409 
	C620.718384,809.335693 584.641968,836.490601 554.521118,870.984802 
	C521.366333,908.953308 499.303833,952.364563 489.584717,1001.926514 
	C481.810974,1041.567749 481.756683,1081.351929 487.637360,1121.198975 
	C499.420288,1201.039185 536.952576,1266.729126 597.111267,1319.959106 
	C637.487549,1355.685059 683.519348,1382.108521 733.083496,1402.698364 
	C775.362427,1420.261719 818.924377,1433.593628 865.213684,1442.351807 
M2268.039795,738.802246 
	C2215.163086,756.541748 2175.635254,790.251221 2151.349609,840.254761 
	C2117.700928,909.537231 2114.049561,981.446167 2139.811035,1053.825562 
	C2161.767822,1115.515015 2204.012451,1159.364746 2265.527832,1182.640503 
	C2323.682129,1204.644531 2382.310059,1203.151611 2440.334229,1180.885864 
	C2460.346436,1173.206421 2478.986572,1162.876343 2496.225830,1150.134766 
	C2509.885986,1140.038208 2513.104492,1128.435913 2506.090332,1113.449707 
	C2502.857178,1106.541382 2498.988525,1099.809326 2494.550781,1093.611206 
	C2485.574951,1081.075073 2471.440186,1078.771362 2458.458252,1087.112061 
	C2456.497070,1088.372070 2454.604004,1089.739014 2452.689697,1091.071411 
	C2415.158203,1117.194458 2373.859375,1127.329956 2328.526855,1120.311401 
	C2263.313721,1110.214966 2215.372314,1061.717896 2206.156250,996.540955 
	C2203.867188,980.355042 2203.867188,980.329651 2219.918213,980.327942 
	C2308.580322,980.318604 2397.242676,980.323486 2485.904785,980.319824 
	C2489.571045,980.319641 2493.243164,980.406433 2496.902832,980.242188 
	C2514.321533,979.460510 2525.406494,968.312683 2525.571533,950.818115 
	C2525.656006,941.853943 2524.949951,932.869141 2524.318604,923.913635 
	C2522.072510,892.040100 2514.992920,861.288391 2501.263916,832.373657 
	C2477.051025,781.378723 2439.049316,746.482422 2383.019043,733.484619 
	C2344.806152,724.620117 2306.969971,727.126892 2268.039795,738.802246 
M1767.410767,838.551880 
	C1761.423828,883.654724 1774.088623,921.473694 1810.777832,949.996338 
	C1828.842773,964.040161 1849.071411,974.113770 1870.191284,982.501526 
	C1894.028198,991.968323 1918.081909,1000.895203 1941.840088,1010.552002 
	C1955.119873,1015.949890 1967.958984,1022.475159 1978.951050,1031.912842 
	C1988.315796,1039.953613 1995.054932,1049.691284 1996.156494,1062.441528 
	C1998.376953,1088.145386 1985.643799,1108.689697 1961.676514,1118.573975 
	C1946.264282,1124.930054 1930.197388,1126.908081 1913.709106,1126.126709 
	C1878.479126,1124.457397 1846.830811,1112.171753 1817.353149,1093.462524 
	C1813.144409,1090.791382 1808.863892,1088.120972 1804.326660,1086.102051 
	C1792.603027,1080.885376 1780.924316,1083.477905 1772.749146,1093.306641 
	C1768.075317,1098.925781 1763.723633,1104.905151 1759.941528,1111.154663 
	C1751.872681,1124.487427 1754.366577,1139.542480 1766.941772,1148.366943 
	C1779.172607,1156.949707 1791.798584,1165.250122 1805.120728,1171.943604 
	C1842.107910,1190.527222 1881.570801,1198.506348 1922.997314,1197.790405 
	C1950.683838,1197.311768 1977.380737,1192.646973 2002.588745,1181.193604 
	C2026.704468,1170.236450 2046.881470,1154.290283 2061.337646,1131.671265 
	C2077.086182,1107.030518 2082.027100,1079.838379 2079.317139,1051.265503 
	C2076.559082,1022.185547 2063.811768,998.000000 2041.490479,978.748840 
	C2025.369385,964.845154 2007.122681,954.580627 1987.708130,946.538269 
	C1961.560669,935.706848 1934.917114,926.079224 1908.601929,915.643860 
	C1894.331421,909.984863 1880.611206,903.208679 1868.509277,893.491333 
	C1850.332520,878.896118 1845.140381,858.801331 1852.850952,837.038269 
	C1859.217529,819.068665 1873.740479,809.777283 1891.012451,804.733704 
	C1918.078491,796.830139 1945.261475,798.878052 1971.693237,807.405334 
	C1986.180176,812.078979 2000.092041,818.808777 2013.801392,825.550537 
	C2031.367432,834.188965 2044.529053,831.184326 2054.937500,814.836365 
	C2057.799316,810.341858 2060.647217,805.815002 2063.129883,801.106995 
	C2071.243408,785.718872 2068.324707,773.666382 2054.022217,763.932617 
	C2035.094360,751.051208 2014.265381,742.250366 1992.213013,736.454346 
	C1963.623169,728.940002 1934.610352,726.588562 1905.086426,729.479126 
	C1881.993530,731.740112 1859.646362,736.570374 1838.679565,746.573486 
	C1800.226440,764.919067 1774.652832,793.610657 1767.410767,838.551880 
M1479.728271,973.101624 
	C1485.809326,975.822266 1491.802124,978.764893 1497.986938,981.224609 
	C1523.677368,991.442017 1549.515869,1001.293030 1575.116089,1011.729797 
	C1588.402710,1017.146606 1601.103271,1023.811340 1611.741699,1033.801147 
	C1618.700317,1040.335449 1623.903076,1047.882324 1626.197266,1057.257446 
	C1632.020264,1081.052002 1619.417236,1105.904053 1595.539551,1117.234131 
	C1575.243774,1126.864380 1553.743774,1127.690186 1531.940430,1125.034790 
	C1501.943970,1121.381714 1474.718628,1110.226196 1449.339233,1094.095947 
	C1444.028564,1090.720703 1438.479492,1087.438599 1432.610107,1085.286743 
	C1422.352539,1081.525879 1412.446655,1083.314331 1405.196777,1091.677612 
	C1399.131470,1098.674316 1393.649536,1106.415283 1389.235352,1114.546753 
	C1383.062988,1125.916626 1386.089600,1138.530762 1395.846313,1147.114502 
	C1398.337524,1149.306396 1401.130493,1151.167847 1403.857300,1153.077881 
	C1436.683105,1176.070679 1473.042480,1190.260376 1512.698364,1195.459229 
	C1549.438110,1200.275879 1585.792603,1198.811035 1621.161011,1186.175537 
	C1673.608643,1167.438477 1713.317139,1121.687378 1710.603760,1060.391235 
	C1708.871704,1021.265869 1691.887451,991.773438 1660.607056,969.582703 
	C1642.542847,956.767700 1622.591553,947.553162 1602.049561,939.549744 
	C1578.770142,930.479675 1555.183350,922.133362 1532.255005,912.254456 
	C1520.451050,907.168579 1508.880005,900.595520 1498.776367,892.685730 
	C1467.628784,868.301514 1477.972900,823.639893 1509.723022,809.582703 
	C1517.560303,806.112915 1525.978638,803.303650 1534.412231,801.949646 
	C1564.496338,797.119812 1593.473511,802.109619 1621.302368,813.996155 
	C1630.171631,817.784424 1638.583740,822.628784 1647.328125,826.727356 
	C1663.138062,834.137512 1675.906616,830.411316 1685.211060,815.804993 
	C1688.074097,811.310364 1690.797363,806.720520 1693.430420,802.086609 
	C1702.316528,786.448425 1699.184814,773.440308 1684.165039,763.329895 
	C1682.783691,762.400085 1681.347412,761.550110 1679.920898,760.689270 
	C1649.413696,742.279724 1616.365723,732.185730 1580.845459,729.308777 
	C1543.695312,726.299805 1507.625000,730.108704 1473.214722,744.883789 
	C1447.823120,755.786438 1426.700195,772.139648 1412.648193,796.471863 
	C1397.138550,823.328186 1393.620605,852.246155 1399.053345,882.383118 
	C1402.939941,903.943665 1412.862305,922.404114 1428.400269,938.066895 
	C1442.951660,952.735107 1460.039551,963.428284 1479.728271,973.101624 
z"/>
<path fill="#002D71" opacity="1.000000" stroke="none" 
	d="
M864.001770,1441.823730 
	C818.924377,1433.593628 775.362427,1420.261719 733.083496,1402.698364 
	C683.519348,1382.108521 637.487549,1355.685059 597.111267,1319.959106 
	C536.952576,1266.729126 499.420288,1201.039185 487.637360,1121.198975 
	C481.756683,1081.351929 481.810974,1041.567749 489.584717,1001.926514 
	C499.303833,952.364563 521.366333,908.953308 554.521118,870.984802 
	C584.641968,836.490601 620.718384,809.335693 659.340820,785.269409 
	C693.610962,763.915283 729.661377,745.869690 765.755676,727.889893 
	C802.734009,709.469849 839.915649,691.402649 874.942078,669.348450 
	C896.778870,655.599060 916.988953,639.879883 932.416138,618.865601 
	C940.587341,607.735107 946.060974,595.329346 948.709106,581.638245 
	C953.515747,556.787231 945.860352,536.311523 927.410767,519.593628 
	C912.088501,505.709442 893.981812,496.668854 874.557190,490.044952 
	C869.982483,488.484894 865.439331,486.832153 860.881653,485.222076 
	C861.045044,484.574524 861.208496,483.927002 861.371887,483.279449 
	C863.428345,483.419952 865.523987,483.352600 867.535645,483.731262 
	C921.487854,493.887390 973.413391,510.381256 1023.268433,533.416382 
	C1064.957886,552.678589 1103.555298,576.674744 1137.953125,607.263428 
	C1196.613525,659.427734 1233.588257,723.651489 1245.837769,801.516052 
	C1253.107910,847.727661 1252.564941,893.778809 1241.026123,939.350586 
	C1230.285889,981.767822 1210.307861,1019.447693 1181.780640,1052.562866 
	C1153.263916,1085.665771 1119.470947,1112.535767 1082.709351,1135.874634 
	C1043.824829,1160.561401 1002.667480,1181.051392 961.755188,1202.039551 
	C928.566345,1219.065674 895.462402,1236.315796 862.965515,1254.611694 
	C841.135681,1266.901978 821.378113,1282.355957 805.515442,1302.139404 
	C795.147888,1315.069458 787.900208,1329.426147 785.059875,1346.008667 
	C780.777344,1371.010376 789.045288,1391.206665 807.594360,1407.693115 
	C820.732239,1419.369995 836.256409,1427.015381 852.372437,1433.584595 
	C855.763611,1434.966919 859.203552,1436.229370 863.297607,1438.463135 
	C863.983398,1440.194092 863.992615,1441.008911 864.001770,1441.823730 
M611.902283,1280.985229 
	C612.336121,1281.204590 612.770020,1281.423828 613.203918,1281.643188 
	C613.231567,1280.806030 613.259277,1279.968872 612.903809,1277.674072 
	C603.434631,1254.560303 598.922302,1230.672119 599.481201,1205.544434 
	C600.014587,1181.563477 606.490601,1159.614624 618.184021,1138.982178 
	C634.417236,1110.339722 657.557373,1087.962158 683.268005,1068.024536 
	C719.223083,1040.142700 758.627625,1017.757629 798.875854,996.892700 
	C845.313599,972.819031 892.250366,949.709229 938.745789,925.745117 
	C974.008484,907.570435 1008.381531,887.812195 1040.376465,864.207886 
	C1067.339233,844.316040 1091.996582,822.085938 1110.329224,793.629150 
	C1124.521606,771.598938 1132.722656,747.574402 1133.620728,721.294983 
	C1134.816284,686.309509 1122.522095,655.885254 1100.607910,629.339355 
	C1071.533936,594.120422 1034.017456,570.381897 992.545715,552.403809 
	C990.941589,551.708435 988.943115,551.922424 987.231140,551.724609 
	C986.860352,553.102661 986.474609,553.757812 986.554626,554.350037 
	C991.306335,589.518555 980.602905,620.147278 958.838196,647.328308 
	C941.139465,669.431702 919.363037,687.082031 895.150452,701.371094 
	C869.351807,716.596313 842.954773,730.845886 816.467163,744.856079 
	C779.954895,764.168701 742.758789,782.208374 706.504211,801.982605 
	C664.243042,825.032959 624.633240,852.021851 591.287537,887.249512 
	C566.247498,913.702820 546.792480,943.619629 535.012817,978.341736 
	C524.936523,1008.042908 521.304871,1038.551147 521.603699,1069.796021 
	C522.107788,1122.518555 534.163330,1172.087158 561.084839,1217.633667 
	C574.862549,1240.943115 590.831360,1262.627930 611.902283,1280.985229 
z"/>
<path fill="#002D71" opacity="1.000000" stroke="none" 
	d="
M2268.794434,738.536621 
	C2306.969971,727.126892 2344.806152,724.620117 2383.019043,733.484619 
	C2439.049316,746.482422 2477.051025,781.378723 2501.263916,832.373657 
	C2514.992920,861.288391 2522.072510,892.040100 2524.318604,923.913635 
	C2524.949951,932.869141 2525.656006,941.853943 2525.571533,950.818115 
	C2525.406494,968.312683 2514.321533,979.460510 2496.902832,980.242188 
	C2493.243164,980.406433 2489.571045,980.319641 2485.904785,980.319824 
	C2397.242676,980.323486 2308.580322,980.318604 2219.918213,980.327942 
	C2203.867188,980.329651 2203.867188,980.355042 2206.156250,996.540955 
	C2215.372314,1061.717896 2263.313721,1110.214966 2328.526855,1120.311401 
	C2373.859375,1127.329956 2415.158203,1117.194458 2452.689697,1091.071411 
	C2454.604004,1089.739014 2456.497070,1088.372070 2458.458252,1087.112061 
	C2471.440186,1078.771362 2485.574951,1081.075073 2494.550781,1093.611206 
	C2498.988525,1099.809326 2502.857178,1106.541382 2506.090332,1113.449707 
	C2513.104492,1128.435913 2509.885986,1140.038208 2496.225830,1150.134766 
	C2478.986572,1162.876343 2460.346436,1173.206421 2440.334229,1180.885864 
	C2382.310059,1203.151611 2323.682129,1204.644531 2265.527832,1182.640503 
	C2204.012451,1159.364746 2161.767822,1115.515015 2139.811035,1053.825562 
	C2114.049561,981.446167 2117.700928,909.537231 2151.349609,840.254761 
	C2175.635254,790.251221 2215.163086,756.541748 2268.794434,738.536621 
M2299.000000,914.333435 
	C2343.602539,914.333008 2388.205078,914.335327 2432.807617,914.326782 
	C2436.135498,914.326172 2439.480469,914.447083 2442.787109,914.160583 
	C2448.454102,913.669495 2449.900879,912.191528 2449.255859,906.523804 
	C2445.468262,873.230530 2432.762451,844.198242 2406.843994,822.174133 
	C2381.853760,800.938904 2352.560791,793.838684 2320.249756,797.574036 
	C2262.727051,804.224060 2218.095703,846.793091 2208.971924,904.055786 
	C2208.524170,906.866760 2208.914307,909.811157 2208.914307,912.595642 
	C2210.328125,913.185974 2211.231201,913.888855 2212.139160,913.894897 
	C2240.426025,914.083008 2268.712891,914.203186 2299.000000,914.333435 
z"/>
<path fill="#002D71" opacity="1.000000" stroke="none" 
	d="
M1767.514893,837.676147 
	C1774.652832,793.610657 1800.226440,764.919067 1838.679565,746.573486 
	C1859.646362,736.570374 1881.993530,731.740112 1905.086426,729.479126 
	C1934.610352,726.588562 1963.623169,728.940002 1992.213013,736.454346 
	C2014.265381,742.250366 2035.094360,751.051208 2054.022217,763.932617 
	C2068.324707,773.666382 2071.243408,785.718872 2063.129883,801.106995 
	C2060.647217,805.815002 2057.799316,810.341858 2054.937500,814.836365 
	C2044.529053,831.184326 2031.367432,834.188965 2013.801392,825.550537 
	C2000.092041,818.808777 1986.180176,812.078979 1971.693237,807.405334 
	C1945.261475,798.878052 1918.078491,796.830139 1891.012451,804.733704 
	C1873.740479,809.777283 1859.217529,819.068665 1852.850952,837.038269 
	C1845.140381,858.801331 1850.332520,878.896118 1868.509277,893.491333 
	C1880.611206,903.208679 1894.331421,909.984863 1908.601929,915.643860 
	C1934.917114,926.079224 1961.560669,935.706848 1987.708130,946.538269 
	C2007.122681,954.580627 2025.369385,964.845154 2041.490479,978.748840 
	C2063.811768,998.000000 2076.559082,1022.185547 2079.317139,1051.265503 
	C2082.027100,1079.838379 2077.086182,1107.030518 2061.337646,1131.671265 
	C2046.881470,1154.290283 2026.704468,1170.236450 2002.588745,1181.193604 
	C1977.380737,1192.646973 1950.683838,1197.311768 1922.997314,1197.790405 
	C1881.570801,1198.506348 1842.107910,1190.527222 1805.120728,1171.943604 
	C1791.798584,1165.250122 1779.172607,1156.949707 1766.941772,1148.366943 
	C1754.366577,1139.542480 1751.872681,1124.487427 1759.941528,1111.154663 
	C1763.723633,1104.905151 1768.075317,1098.925781 1772.749146,1093.306641 
	C1780.924316,1083.477905 1792.603027,1080.885376 1804.326660,1086.102051 
	C1808.863892,1088.120972 1813.144409,1090.791382 1817.353149,1093.462524 
	C1846.830811,1112.171753 1878.479126,1124.457397 1913.709106,1126.126709 
	C1930.197388,1126.908081 1946.264282,1124.930054 1961.676514,1118.573975 
	C1985.643799,1108.689697 1998.376953,1088.145386 1996.156494,1062.441528 
	C1995.054932,1049.691284 1988.315796,1039.953613 1978.951050,1031.912842 
	C1967.958984,1022.475159 1955.119873,1015.949890 1941.840088,1010.552002 
	C1918.081909,1000.895203 1894.028198,991.968323 1870.191284,982.501526 
	C1849.071411,974.113770 1828.842773,964.040161 1810.777832,949.996338 
	C1774.088623,921.473694 1761.423828,883.654724 1767.514893,837.676147 
z"/>
<path fill="#002D71" opacity="1.000000" stroke="none" 
	d="
M1479.062622,972.756226 
	C1460.039551,963.428284 1442.951660,952.735107 1428.400269,938.066895 
	C1412.862305,922.404114 1402.939941,903.943665 1399.053345,882.383118 
	C1393.620605,852.246155 1397.138550,823.328186 1412.648193,796.471863 
	C1426.700195,772.139648 1447.823120,755.786438 1473.214722,744.883789 
	C1507.625000,730.108704 1543.695312,726.299805 1580.845459,729.308777 
	C1616.365723,732.185730 1649.413696,742.279724 1679.920898,760.689270 
	C1681.347412,761.550110 1682.783691,762.400085 1684.165039,763.329895 
	C1699.184814,773.440308 1702.316528,786.448425 1693.430420,802.086609 
	C1690.797363,806.720520 1688.074097,811.310364 1685.211060,815.804993 
	C1675.906616,830.411316 1663.138062,834.137512 1647.328125,826.727356 
	C1638.583740,822.628784 1630.171631,817.784424 1621.302368,813.996155 
	C1593.473511,802.109619 1564.496338,797.119812 1534.412231,801.949646 
	C1525.978638,803.303650 1517.560303,806.112915 1509.723022,809.582703 
	C1477.972900,823.639893 1467.628784,868.301514 1498.776367,892.685730 
	C1508.880005,900.595520 1520.451050,907.168579 1532.255005,912.254456 
	C1555.183350,922.133362 1578.770142,930.479675 1602.049561,939.549744 
	C1622.591553,947.553162 1642.542847,956.767700 1660.607056,969.582703 
	C1691.887451,991.773438 1708.871704,1021.265869 1710.603760,1060.391235 
	C1713.317139,1121.687378 1673.608643,1167.438477 1621.161011,1186.175537 
	C1585.792603,1198.811035 1549.438110,1200.275879 1512.698364,1195.459229 
	C1473.042480,1190.260376 1436.683105,1176.070679 1403.857300,1153.077881 
	C1401.130493,1151.167847 1398.337524,1149.306396 1395.846313,1147.114502 
	C1386.089600,1138.530762 1383.062988,1125.916626 1389.235352,1114.546753 
	C1393.649536,1106.415283 1399.131470,1098.674316 1405.196777,1091.677612 
	C1412.446655,1083.314331 1422.352539,1081.525879 1432.610107,1085.286743 
	C1438.479492,1087.438599 1444.028564,1090.720703 1449.339233,1094.095947 
	C1474.718628,1110.226196 1501.943970,1121.381714 1531.940430,1125.034790 
	C1553.743774,1127.690186 1575.243774,1126.864380 1595.539551,1117.234131 
	C1619.417236,1105.904053 1632.020264,1081.052002 1626.197266,1057.257446 
	C1623.903076,1047.882324 1618.700317,1040.335449 1611.741699,1033.801147 
	C1601.103271,1023.811340 1588.402710,1017.146606 1575.116089,1011.729797 
	C1549.515869,1001.293030 1523.677368,991.442017 1497.986938,981.224609 
	C1491.802124,978.764893 1485.809326,975.822266 1479.062622,972.756226 
z"/>
<path fill="#002155" opacity="1.000000" stroke="none" 
	d="
M864.607727,1442.087769 
	C863.992615,1441.008911 863.983398,1440.194092 863.956543,1438.768311 
	C867.142273,1439.059570 870.345825,1439.961548 873.549316,1440.863647 
	C873.340942,1441.757812 873.132629,1442.651855 872.924255,1443.545898 
	C870.354065,1443.147827 867.783875,1442.749878 864.607727,1442.087769 
z"/>
<path fill="#000000" opacity="1.000000" stroke="none" 
	d="
M611.687561,1280.291138 
	C590.831360,1262.627930 574.862549,1240.943115 561.084839,1217.633667 
	C534.163330,1172.087158 522.107788,1122.518555 521.603699,1069.796021 
	C521.304871,1038.551147 524.936523,1008.042908 535.012817,978.341736 
	C546.792480,943.619629 566.247498,913.702820 591.287537,887.249512 
	C624.633240,852.021851 664.243042,825.032959 706.504211,801.982605 
	C742.758789,782.208374 779.954895,764.168701 816.467163,744.856079 
	C842.954773,730.845886 869.351807,716.596313 895.150452,701.371094 
	C919.363037,687.082031 941.139465,669.431702 958.838196,647.328308 
	C980.602905,620.147278 991.306335,589.518555 986.554626,554.350037 
	C986.474609,553.757812 986.860352,553.102661 987.231140,551.724609 
	C988.943115,551.922424 990.941589,551.708435 992.545715,552.403809 
	C1034.017456,570.381897 1071.533936,594.120422 1100.607910,629.339355 
	C1122.522095,655.885254 1134.816284,686.309509 1133.620728,721.294983 
	C1132.722656,747.574402 1124.521606,771.598938 1110.329224,793.629150 
	C1091.996582,822.085938 1067.339233,844.316040 1040.376465,864.207886 
	C1008.381531,887.812195 974.008484,907.570435 938.745789,925.745117 
	C892.250366,949.709229 845.313599,972.819031 798.875854,996.892700 
	C758.627625,1017.757629 719.223083,1040.142700 683.268005,1068.024536 
	C657.557373,1087.962158 634.417236,1110.339722 618.184021,1138.982178 
	C606.490601,1159.614624 600.014587,1181.563477 599.481201,1205.544434 
	C598.922302,1230.672119 603.434631,1254.560303 612.693481,1278.689941 
	C612.483154,1279.705811 611.687561,1280.291138 611.687561,1280.291138 
z"/>
<path fill="#000000" opacity="1.000000" stroke="none" 
	d="
M612.885071,1279.418701 
	C613.259277,1279.968872 613.231567,1280.806030 613.203857,1281.643188 
	C612.770020,1281.423828 612.336121,1281.204590 611.794922,1280.638184 
	C611.687561,1280.291138 612.483154,1279.705811 612.885071,1279.418701 
z"/>
<path fill="#000000" opacity="1.000000" stroke="none" 
	d="
M2298.000000,914.333618 
	C2268.712891,914.203186 2240.426025,914.083008 2212.139160,913.894897 
	C2211.231201,913.888855 2210.328125,913.185974 2208.914307,912.595642 
	C2208.914307,909.811157 2208.524170,906.866760 2208.971924,904.055786 
	C2218.095703,846.793091 2262.727051,804.224060 2320.249756,797.574036 
	C2352.560791,793.838684 2381.853760,800.938904 2406.843994,822.174133 
	C2432.762451,844.198242 2445.468262,873.230530 2449.255859,906.523804 
	C2449.900879,912.191528 2448.454102,913.669495 2442.787109,914.160583 
	C2439.480469,914.447083 2436.135498,914.326172 2432.807617,914.326782 
	C2388.205078,914.335327 2343.602539,914.333008 2298.000000,914.333618 
z"/>
</svg>