<svg version="1.1" id="Layer_1" xmlns="http://www.w3.org/2000/svg" xmlns:xlink="http://www.w3.org/1999/xlink" x="0px" y="0px"
	 width="100%" viewBox="0 0 1417 477" enable-background="new 0 0 1417 477" xml:space="preserve">
<path fill="#000000" opacity="1.000000" stroke="none" 
	d="
M892.000000,478.000000 
	C594.705811,478.000000 297.911652,478.000000 1.058731,478.000000 
	C1.058731,319.060150 1.058731,160.120270 1.058731,1.090190 
	C473.210876,1.090190 945.421814,1.090190 1417.816406,1.090190 
	C1417.816406,159.999832 1417.816406,318.999908 1417.816406,478.000000 
	C1242.786865,478.000000 1067.643433,478.000000 892.000000,478.000000 
M131.142105,277.499939 
	C131.118195,300.996704 131.214417,324.494446 131.021149,347.989838 
	C130.920181,360.263641 124.544868,368.427368 113.064156,371.592712 
	C109.964684,372.447235 106.718208,372.768555 103.623367,373.319672 
	C103.623367,380.670349 103.623367,387.620575 103.623367,394.667389 
	C146.709991,394.667389 189.577316,394.667389 232.712341,394.667389 
	C232.712341,388.358795 232.718735,382.382080 232.705994,376.405365 
	C232.703903,375.422882 232.617798,374.440552 232.562317,373.287445 
	C229.838821,372.854462 227.257156,372.431244 224.671326,372.035187 
	C214.687073,370.505981 207.525162,363.703613 205.991867,353.773743 
	C205.262894,349.052795 204.916016,344.226166 204.911819,339.446960 
	C204.846710,265.289612 204.866287,191.132156 204.866287,116.974731 
	C204.866287,115.359535 204.866287,113.744339 204.866287,111.912827 
	C214.390991,112.369980 222.486130,115.025627 229.420547,120.837814 
	C239.372986,129.179596 244.969040,140.232666 249.155762,152.232178 
	C249.740295,153.907471 251.522797,156.310013 252.863068,156.385651 
	C260.129639,156.795715 267.431458,156.580231 274.729767,156.580231 
	C274.729767,134.117889 274.729767,112.200111 274.729767,90.254364 
	C203.420990,90.254364 132.357666,90.254364 61.294121,90.254364 
	C61.294121,112.412636 61.294121,134.312439 61.294121,156.584457 
	C67.860168,156.584457 74.172272,156.412201 80.468796,156.650803 
	C84.087234,156.787933 85.821075,155.837006 87.149017,152.049942 
	C90.925583,141.279785 95.844955,130.991669 104.434219,123.028938 
	C111.876862,116.129211 120.536308,112.160843 131.142105,112.015892 
	C131.142105,167.218933 131.142105,221.859436 131.142105,277.499939 
M440.203278,365.685333 
	C425.782166,382.445557 400.388275,383.474030 386.139252,363.401520 
	C381.369141,356.681824 377.828461,348.822601 375.037811,341.015320 
	C367.176270,319.021576 364.961060,295.861115 364.237183,272.807678 
	C363.075562,235.814484 362.545654,198.733353 368.958801,162.014679 
	C371.289703,148.669052 374.729919,135.702652 381.440460,123.750389 
	C391.603668,105.648483 411.787720,101.623322 427.247040,113.322632 
	C436.315918,120.185814 442.972656,129.027115 446.904114,139.439590 
	C451.340851,151.190338 454.394958,163.458725 458.309174,175.417282 
	C458.748810,176.760391 460.839844,178.415710 462.213440,178.461044 
	C470.701263,178.741058 479.203186,178.630814 487.699707,178.562469 
	C488.733856,178.554138 489.763794,178.020752 490.533173,177.804474 
	C489.887115,170.072662 489.366028,162.824875 488.660004,155.595139 
	C487.149414,140.126511 485.334686,124.683517 484.125702,109.192467 
	C483.831177,105.418442 482.756165,103.082832 479.531311,101.392639 
	C450.685059,86.273804 420.127045,80.378311 388.046875,86.440231 
	C352.243134,93.205765 327.158875,114.735359 309.985291,146.290543 
	C294.122803,175.436752 287.897156,207.023972 286.217133,239.716507 
	C285.183594,259.829498 286.697906,279.829163 291.119629,299.513092 
	C296.849304,325.019958 307.237549,348.342346 325.427185,367.479462 
	C346.001160,389.125061 371.774994,399.832489 401.402283,400.595123 
	C411.902344,400.865417 422.593018,399.622345 432.963684,397.767487 
	C452.872040,394.206848 471.686310,387.337463 488.597321,375.940369 
	C489.722626,375.181915 490.730530,373.455933 490.833771,372.106598 
	C491.390717,364.825623 491.574310,357.517151 492.022858,350.226562 
	C492.470673,342.947998 493.165314,335.684418 493.595764,328.405060 
	C494.161926,318.829987 494.575653,309.245941 495.067383,299.416992 
	C484.826965,299.416992 475.077637,299.416992 465.461975,299.416992 
	C463.960999,306.926666 462.731384,314.246490 461.010742,321.449005 
	C457.206299,337.374237 451.961609,352.684753 440.203278,365.685333 
M744.178650,239.568100 
	C744.203369,246.567093 744.415894,253.574097 744.118225,260.559357 
	C744.045654,262.260925 742.705688,264.610504 741.252258,265.435486 
	C732.810059,270.227356 724.079102,274.507996 715.597351,279.233429 
	C699.652527,288.116791 683.207214,296.280426 668.064514,306.383789 
	C643.840027,322.546539 637.524719,342.902557 644.227295,367.674011 
	C650.822571,392.048981 670.462158,402.094696 690.561218,400.584137 
	C710.166565,399.110626 725.788147,389.330780 738.245056,374.308472 
	C740.166626,371.991119 742.283081,369.835358 744.367004,367.541504 
	C745.544983,371.346069 746.469971,374.659210 747.592468,377.904083 
	C753.426147,394.768402 767.091736,401.763367 783.494995,400.662842 
	C799.547363,399.585876 813.092957,392.329102 824.686218,381.409637 
	C825.940369,380.228363 826.842468,378.067871 826.900818,376.327820 
	C827.144531,369.065643 827.003357,361.790558 827.003357,354.501953 
	C824.069336,356.706818 821.438660,359.242157 818.337585,360.895294 
	C812.313354,364.106781 806.985535,361.300110 806.047424,354.594421 
	C805.451172,350.331909 805.040405,346.005402 805.024841,341.705872 
	C804.928650,315.041534 805.036438,288.376434 804.919128,261.712280 
	C804.885498,254.080154 804.409973,246.446045 803.999390,238.820251 
	C802.765381,215.901321 789.283508,202.799805 769.003784,194.975967 
	C750.516724,187.843750 731.255127,188.303558 712.082520,189.382812 
	C698.428040,190.151474 685.203430,193.612137 672.898987,200.079437 
	C647.643494,213.353928 641.747009,242.540924 650.993713,263.849274 
	C669.209778,259.043640 687.437439,254.234955 705.830566,249.382614 
	C705.830566,248.116913 706.042908,246.934830 705.796692,245.857559 
	C703.965271,237.845337 705.275513,230.117630 707.920715,222.551178 
	C710.657104,214.724121 718.137756,210.449203 727.724487,211.002914 
	C735.641785,211.460190 740.202942,215.282455 742.154602,223.904892 
	C743.241333,228.705826 743.514038,233.691010 744.178650,239.568100 
M997.134216,386.470276 
	C997.134216,389.238586 997.134216,392.006897 997.134216,394.668823 
	C1030.449585,394.668823 1063.165771,394.668823 1095.851562,394.668823 
	C1095.851562,388.029633 1095.851562,381.726624 1095.851562,375.235291 
	C1087.024902,374.622620 1081.351562,370.062195 1079.198730,361.630371 
	C1078.349365,358.303436 1078.031738,354.757996 1078.024658,351.310913 
	C1077.845337,264.351837 1077.739746,177.392639 1077.621582,90.433449 
	C1077.619019,88.489319 1077.621338,86.545197 1077.621338,83.902176 
	C1072.636597,84.184883 1068.048828,83.459892 1064.207275,84.828903 
	C1044.760742,91.759148 1025.622070,99.562263 1006.116943,106.312500 
	C1000.422913,108.283051 998.876709,110.887390 999.201294,116.448456 
	C999.401245,119.873817 1000.330688,121.912910 1003.316101,123.420601 
	C1006.543030,125.050308 1009.474915,127.294846 1012.760986,128.768219 
	C1016.070312,130.252045 1017.118042,132.315811 1017.107971,135.945038 
	C1016.979614,182.090698 1017.135071,228.237213 1016.979919,274.382690 
	C1016.891541,300.670013 1016.470581,326.957733 1015.998657,353.241638 
	C1015.741211,367.581909 1010.925964,373.135040 997.134216,375.623322 
	C997.134216,378.872589 997.134216,382.183319 997.134216,386.470276 
M511.127411,385.494629 
	C511.127411,388.595703 511.127411,391.696747 511.127411,394.832458 
	C545.187012,394.832458 578.635071,394.832458 612.207886,394.832458 
	C612.207886,388.268158 612.207886,381.878723 612.207886,375.565857 
	C598.892212,373.177795 594.913269,369.502289 593.935303,356.697449 
	C592.836121,342.305450 592.117798,327.848114 592.083435,313.417206 
	C591.906006,238.934967 592.000916,164.452087 592.000793,89.969444 
	C592.000793,88.056244 592.000854,86.143044 592.000854,83.506866 
	C585.469360,84.150505 579.344910,83.604561 574.082092,85.478416 
	C554.784790,92.349281 535.785461,100.054619 516.642090,107.362434 
	C513.987610,108.375778 513.172607,109.823929 512.879211,112.774513 
	C512.254089,119.059708 514.279907,123.116043 520.179199,125.547256 
	C522.882568,126.661392 525.137390,128.827728 527.797302,130.093094 
	C531.080139,131.654755 532.091248,133.869690 532.084473,137.518631 
	C531.966125,201.170258 532.038269,264.822235 531.954956,328.473938 
	C531.942993,337.611816 531.562134,346.763977 530.942139,355.881683 
	C530.418457,363.581543 528.275146,370.685791 519.979736,373.640839 
	C517.249695,374.613373 514.281372,374.917114 511.127411,375.589447 
	C511.127411,378.569153 511.127411,381.547394 511.127411,385.494629 
M1258.503418,196.013504 
	C1247.422729,201.682373 1238.278809,209.583282 1230.863403,219.587997 
	C1218.192871,236.683075 1211.824097,256.048248 1208.878662,276.950592 
	C1205.637329,299.951141 1206.782959,322.530304 1214.150757,344.528076 
	C1226.452393,381.256378 1254.534424,401.743195 1290.869995,400.663422 
	C1314.700439,399.955231 1335.072632,390.801422 1350.412842,371.931183 
	C1356.449707,364.505066 1360.828003,356.195404 1363.372681,346.796997 
	C1356.704102,343.009277 1350.329346,339.388519 1344.016235,335.802643 
	C1341.846924,338.891266 1340.036621,341.636902 1338.059692,344.256836 
	C1322.774902,364.512970 1295.457275,363.822845 1281.173096,342.884430 
	C1268.584961,324.431946 1267.300659,303.615021 1268.016235,281.772400 
	C1300.068115,281.772400 1331.788818,281.772400 1364.069214,281.772400 
	C1363.327637,273.320404 1363.025024,265.368042 1361.862915,257.543304 
	C1359.227661,239.798935 1353.218628,223.429703 1341.071655,209.742126 
	C1321.796143,188.021729 1286.195679,182.789200 1258.503418,196.013504 
M987.880615,235.210648 
	C988.178589,227.083130 988.748779,218.751526 984.716980,211.398499 
	C981.649475,205.803986 977.254211,200.953842 973.695984,195.608551 
	C967.143555,185.765488 955.134338,186.827927 950.178406,196.159088 
	C942.803223,210.045181 935.943970,224.214523 929.188660,238.417175 
	C925.080933,247.053329 921.581787,255.978943 917.809265,264.774536 
	C917.490356,264.714111 917.171387,264.653656 916.852417,264.593231 
	C916.852417,239.449783 916.852417,214.306351 916.852417,188.488297 
	C911.864685,189.051804 907.161865,188.708908 903.130676,190.191864 
	C886.818848,196.192368 870.779541,202.931107 854.494263,209.007751 
	C849.289612,210.949783 846.167053,213.173523 847.087708,219.417358 
	C847.510559,222.285355 847.838684,224.114029 850.792969,225.381516 
	C855.168518,227.258774 859.189758,229.946274 863.506348,231.982239 
	C866.425354,233.358948 867.492371,235.148697 867.476562,238.484436 
	C867.331665,269.135773 867.473145,299.788452 867.338562,330.439850 
	C867.300659,339.065948 866.511169,347.686035 866.275513,356.314575 
	C865.981934,367.060669 862.240540,373.511932 847.540955,375.527710 
	C847.540955,381.929443 847.540955,388.337585 847.540955,394.809082 
	C881.090332,394.809082 914.344299,394.809082 948.003723,394.809082 
	C948.003723,389.838470 948.003723,385.051666 948.003723,380.264862 
	C948.003723,378.626038 948.003723,376.987244 948.003723,375.393982 
	C936.675476,374.146057 932.112793,370.347076 929.864563,359.575531 
	C928.756226,354.265503 928.159180,348.764008 928.084351,343.338776 
	C927.854675,326.683167 928.555847,309.996857 927.802307,293.372009 
	C927.202271,280.135345 931.295837,268.376068 936.552246,256.811401 
	C938.096680,253.413513 941.196472,250.722595 943.583374,247.707672 
	C946.387939,250.317245 949.486755,252.679443 951.933533,255.589813 
	C956.490906,261.010925 960.395874,266.993347 965.090088,272.282654 
	C968.923645,276.602264 972.665405,276.028656 976.142273,271.348236 
	C977.211426,269.908997 978.096191,268.324585 978.984314,266.760620 
	C984.377930,257.262604 986.197815,246.727158 987.880615,235.210648 
M1098.585693,320.936890 
	C1105.843750,333.091736 1112.667236,345.534729 1120.481323,357.320923 
	C1128.401733,369.267700 1137.172363,380.664429 1145.910278,392.041290 
	C1147.227295,393.756165 1150.363892,394.784607 1152.706665,394.873688 
	C1161.360474,395.202789 1170.041016,394.803864 1178.698120,395.087891 
	C1183.104858,395.232452 1184.752563,393.153870 1184.934448,389.292450 
	C1185.348633,380.495209 1185.502808,371.683319 1186.054443,362.895721 
	C1186.471191,356.259735 1184.151123,350.654510 1180.674927,345.249847 
	C1163.490601,318.532379 1146.334595,291.796448 1129.322754,264.969299 
	C1128.559692,263.766022 1128.648560,261.193146 1129.441528,259.974396 
	C1133.125366,254.312302 1137.038330,248.780334 1141.161499,243.426926 
	C1151.408447,230.123032 1160.655884,215.471725 1179.387573,213.708893 
	C1179.387573,206.706131 1179.387573,200.308228 1179.387573,193.693054 
	C1152.789795,193.693054 1126.565552,193.693054 1100.236450,193.693054 
	C1100.236450,200.540146 1100.236450,207.140732 1100.236450,213.717484 
	C1111.431274,214.692886 1116.369141,218.666733 1117.615479,229.199829 
	C1118.111694,233.392639 1116.852783,238.047363 1115.435059,242.161865 
	C1111.993530,252.149872 1105.693726,260.471497 1098.453735,268.004822 
	C1092.020874,274.698395 1085.231567,281.049164 1078.652954,287.498779 
	C1085.394775,298.864227 1091.766113,309.605194 1098.585693,320.936890 
z"/>
<path fill="#FDFDFE" opacity="1.000000" stroke="none" 
	d="
M131.142105,276.999939 
	C131.142105,221.859436 131.142105,167.218933 131.142105,112.015892 
	C120.536308,112.160843 111.876862,116.129211 104.434219,123.028938 
	C95.844955,130.991669 90.925583,141.279785 87.149017,152.049942 
	C85.821075,155.837006 84.087234,156.787933 80.468796,156.650803 
	C74.172272,156.412201 67.860168,156.584457 61.294121,156.584457 
	C61.294121,134.312439 61.294121,112.412636 61.294121,90.254364 
	C132.357666,90.254364 203.420990,90.254364 274.729767,90.254364 
	C274.729767,112.200111 274.729767,134.117889 274.729767,156.580231 
	C267.431458,156.580231 260.129639,156.795715 252.863068,156.385651 
	C251.522797,156.310013 249.740295,153.907471 249.155762,152.232178 
	C244.969040,140.232666 239.372986,129.179596 229.420547,120.837814 
	C222.486130,115.025627 214.390991,112.369980 204.866287,111.912827 
	C204.866287,113.744339 204.866287,115.359535 204.866287,116.974731 
	C204.866287,191.132156 204.846710,265.289612 204.911819,339.446960 
	C204.916016,344.226166 205.262894,349.052795 205.991867,353.773743 
	C207.525162,363.703613 214.687073,370.505981 224.671326,372.035187 
	C227.257156,372.431244 229.838821,372.854462 232.562317,373.287445 
	C232.617798,374.440552 232.703903,375.422882 232.705994,376.405365 
	C232.718735,382.382080 232.712341,388.358795 232.712341,394.667389 
	C189.577316,394.667389 146.709991,394.667389 103.623367,394.667389 
	C103.623367,387.620575 103.623367,380.670349 103.623367,373.319672 
	C106.718208,372.768555 109.964684,372.447235 113.064156,371.592712 
	C124.544868,368.427368 130.920181,360.263641 131.021149,347.989838 
	C131.214417,324.494446 131.118195,300.996704 131.142105,276.999939 
z"/>
<path fill="#FCFDFD" opacity="1.000000" stroke="none" 
	d="
M440.452087,365.428131 
	C451.961609,352.684753 457.206299,337.374237 461.010742,321.449005 
	C462.731384,314.246490 463.960999,306.926666 465.461975,299.416992 
	C475.077637,299.416992 484.826965,299.416992 495.067383,299.416992 
	C494.575653,309.245941 494.161926,318.829987 493.595764,328.405060 
	C493.165314,335.684418 492.470673,342.947998 492.022858,350.226562 
	C491.574310,357.517151 491.390717,364.825623 490.833771,372.106598 
	C490.730530,373.455933 489.722626,375.181915 488.597321,375.940369 
	C471.686310,387.337463 452.872040,394.206848 432.963684,397.767487 
	C422.593018,399.622345 411.902344,400.865417 401.402283,400.595123 
	C371.774994,399.832489 346.001160,389.125061 325.427185,367.479462 
	C307.237549,348.342346 296.849304,325.019958 291.119629,299.513092 
	C286.697906,279.829163 285.183594,259.829498 286.217133,239.716507 
	C287.897156,207.023972 294.122803,175.436752 309.985291,146.290543 
	C327.158875,114.735359 352.243134,93.205765 388.046875,86.440231 
	C420.127045,80.378311 450.685059,86.273804 479.531311,101.392639 
	C482.756165,103.082832 483.831177,105.418442 484.125702,109.192467 
	C485.334686,124.683517 487.149414,140.126511 488.660004,155.595139 
	C489.366028,162.824875 489.887115,170.072662 490.533173,177.804474 
	C489.763794,178.020752 488.733856,178.554138 487.699707,178.562469 
	C479.203186,178.630814 470.701263,178.741058 462.213440,178.461044 
	C460.839844,178.415710 458.748810,176.760391 458.309174,175.417282 
	C454.394958,163.458725 451.340851,151.190338 446.904114,139.439590 
	C442.972656,129.027115 436.315918,120.185814 427.247040,113.322632 
	C411.787720,101.623322 391.603668,105.648483 381.440460,123.750389 
	C374.729919,135.702652 371.289703,148.669052 368.958801,162.014679 
	C362.545654,198.733353 363.075562,235.814484 364.237183,272.807678 
	C364.961060,295.861115 367.176270,319.021576 375.037811,341.015320 
	C377.828461,348.822601 381.369141,356.681824 386.139252,363.401520 
	C400.388275,383.474030 425.782166,382.445557 440.452087,365.428131 
z"/>
<path fill="#FDFDFE" opacity="1.000000" stroke="none" 
	d="
M744.166138,239.080627 
	C743.514038,233.691010 743.241333,228.705826 742.154602,223.904892 
	C740.202942,215.282455 735.641785,211.460190 727.724487,211.002914 
	C718.137756,210.449203 710.657104,214.724121 707.920715,222.551178 
	C705.275513,230.117630 703.965271,237.845337 705.796692,245.857559 
	C706.042908,246.934830 705.830566,248.116913 705.830566,249.382614 
	C687.437439,254.234955 669.209778,259.043640 650.993713,263.849274 
	C641.747009,242.540924 647.643494,213.353928 672.898987,200.079437 
	C685.203430,193.612137 698.428040,190.151474 712.082520,189.382812 
	C731.255127,188.303558 750.516724,187.843750 769.003784,194.975967 
	C789.283508,202.799805 802.765381,215.901321 803.999390,238.820251 
	C804.409973,246.446045 804.885498,254.080154 804.919128,261.712280 
	C805.036438,288.376434 804.928650,315.041534 805.024841,341.705872 
	C805.040405,346.005402 805.451172,350.331909 806.047424,354.594421 
	C806.985535,361.300110 812.313354,364.106781 818.337585,360.895294 
	C821.438660,359.242157 824.069336,356.706818 827.003357,354.501953 
	C827.003357,361.790558 827.144531,369.065643 826.900818,376.327820 
	C826.842468,378.067871 825.940369,380.228363 824.686218,381.409637 
	C813.092957,392.329102 799.547363,399.585876 783.494995,400.662842 
	C767.091736,401.763367 753.426147,394.768402 747.592468,377.904083 
	C746.469971,374.659210 745.544983,371.346069 744.367004,367.541504 
	C742.283081,369.835358 740.166626,371.991119 738.245056,374.308472 
	C725.788147,389.330780 710.166565,399.110626 690.561218,400.584137 
	C670.462158,402.094696 650.822571,392.048981 644.227295,367.674011 
	C637.524719,342.902557 643.840027,322.546539 668.064514,306.383789 
	C683.207214,296.280426 699.652527,288.116791 715.597351,279.233429 
	C724.079102,274.507996 732.810059,270.227356 741.252258,265.435486 
	C742.705688,264.610504 744.045654,262.260925 744.118225,260.559357 
	C744.415894,253.574097 744.203369,246.567093 744.166138,239.080627 
M728.479858,300.944946 
	C726.600098,302.270050 724.681519,303.543732 722.846863,304.928558 
	C710.602478,314.170776 701.543518,325.106812 702.959045,341.770660 
	C704.057129,354.698090 712.946777,364.706268 727.624756,356.123169 
	C731.862244,353.645233 735.792664,350.624786 739.768921,347.722839 
	C743.232788,345.194855 744.432800,341.807068 744.349365,337.391296 
	C744.082336,323.257843 744.260315,309.116150 744.237000,294.977661 
	C744.234741,293.627167 744.026672,292.277039 743.878052,290.494171 
	C738.515320,294.076355 733.756470,297.255188 728.479858,300.944946 
z"/>
<path fill="#FCFDFD" opacity="1.000000" stroke="none" 
	d="
M997.134216,385.982147 
	C997.134216,382.183319 997.134216,378.872589 997.134216,375.623322 
	C1010.925964,373.135040 1015.741211,367.581909 1015.998657,353.241638 
	C1016.470581,326.957733 1016.891541,300.670013 1016.979919,274.382690 
	C1017.135071,228.237213 1016.979614,182.090698 1017.107971,135.945038 
	C1017.118042,132.315811 1016.070312,130.252045 1012.760986,128.768219 
	C1009.474915,127.294846 1006.543030,125.050308 1003.316101,123.420601 
	C1000.330688,121.912910 999.401245,119.873817 999.201294,116.448456 
	C998.876709,110.887390 1000.422913,108.283051 1006.116943,106.312500 
	C1025.622070,99.562263 1044.760742,91.759148 1064.207275,84.828903 
	C1068.048828,83.459892 1072.636597,84.184883 1077.621338,83.902176 
	C1077.621338,86.545197 1077.619019,88.489319 1077.621582,90.433449 
	C1077.739746,177.392639 1077.845337,264.351837 1078.024658,351.310913 
	C1078.031738,354.757996 1078.349365,358.303436 1079.198730,361.630371 
	C1081.351562,370.062195 1087.024902,374.622620 1095.851562,375.235291 
	C1095.851562,381.726624 1095.851562,388.029633 1095.851562,394.668823 
	C1063.165771,394.668823 1030.449585,394.668823 997.134216,394.668823 
	C997.134216,392.006897 997.134216,389.238586 997.134216,385.982147 
z"/>
<path fill="#FEFEFF" opacity="1.000000" stroke="none" 
	d="
M511.127411,385.010132 
	C511.127411,381.547394 511.127411,378.569153 511.127411,375.589447 
	C514.281372,374.917114 517.249695,374.613373 519.979736,373.640839 
	C528.275146,370.685791 530.418457,363.581543 530.942139,355.881683 
	C531.562134,346.763977 531.942993,337.611816 531.954956,328.473938 
	C532.038269,264.822235 531.966125,201.170258 532.084473,137.518631 
	C532.091248,133.869690 531.080139,131.654755 527.797302,130.093094 
	C525.137390,128.827728 522.882568,126.661392 520.179199,125.547256 
	C514.279907,123.116043 512.254089,119.059708 512.879211,112.774513 
	C513.172607,109.823929 513.987610,108.375778 516.642090,107.362434 
	C535.785461,100.054619 554.784790,92.349281 574.082092,85.478416 
	C579.344910,83.604561 585.469360,84.150505 592.000854,83.506866 
	C592.000854,86.143044 592.000793,88.056244 592.000793,89.969444 
	C592.000916,164.452087 591.906006,238.934967 592.083435,313.417206 
	C592.117798,327.848114 592.836121,342.305450 593.935303,356.697449 
	C594.913269,369.502289 598.892212,373.177795 612.207886,375.565857 
	C612.207886,381.878723 612.207886,388.268158 612.207886,394.832458 
	C578.635071,394.832458 545.187012,394.832458 511.127411,394.832458 
	C511.127411,391.696747 511.127411,388.595703 511.127411,385.010132 
z"/>
<path fill="#FDFDFD" opacity="1.000000" stroke="none" 
	d="
M1258.833984,195.830750 
	C1286.195679,182.789200 1321.796143,188.021729 1341.071655,209.742126 
	C1353.218628,223.429703 1359.227661,239.798935 1361.862915,257.543304 
	C1363.025024,265.368042 1363.327637,273.320404 1364.069214,281.772400 
	C1331.788818,281.772400 1300.068115,281.772400 1268.016235,281.772400 
	C1267.300659,303.615021 1268.584961,324.431946 1281.173096,342.884430 
	C1295.457275,363.822845 1322.774902,364.512970 1338.059692,344.256836 
	C1340.036621,341.636902 1341.846924,338.891266 1344.016235,335.802643 
	C1350.329346,339.388519 1356.704102,343.009277 1363.372681,346.796997 
	C1360.828003,356.195404 1356.449707,364.505066 1350.412842,371.931183 
	C1335.072632,390.801422 1314.700439,399.955231 1290.869995,400.663422 
	C1254.534424,401.743195 1226.452393,381.256378 1214.150757,344.528076 
	C1206.782959,322.530304 1205.637329,299.951141 1208.878662,276.950592 
	C1211.824097,256.048248 1218.192871,236.683075 1230.863403,219.587997 
	C1238.278809,209.583282 1247.422729,201.682373 1258.833984,195.830750 
M1269.003174,255.691833 
	C1269.058228,257.411713 1268.388184,259.357635 1271.461914,259.328125 
	C1283.531738,259.212250 1295.603149,259.280701 1307.996216,259.280701 
	C1307.996216,253.683609 1308.405640,248.524612 1307.903320,243.455948 
	C1307.082031,235.167328 1306.825684,226.716690 1302.274292,219.199417 
	C1296.020264,208.869400 1283.310181,208.052856 1276.648560,217.932770 
	C1274.872803,220.566589 1273.579346,223.806686 1273.035156,226.937164 
	C1271.430664,236.167633 1270.312744,245.482666 1269.003174,255.691833 
z"/>
<path fill="#FCFDFD" opacity="1.000000" stroke="none" 
	d="
M987.853760,235.674744 
	C986.197815,246.727158 984.377930,257.262604 978.984314,266.760620 
	C978.096191,268.324585 977.211426,269.908997 976.142273,271.348236 
	C972.665405,276.028656 968.923645,276.602264 965.090088,272.282654 
	C960.395874,266.993347 956.490906,261.010925 951.933533,255.589813 
	C949.486755,252.679443 946.387939,250.317245 943.583374,247.707672 
	C941.196472,250.722595 938.096680,253.413513 936.552246,256.811401 
	C931.295837,268.376068 927.202271,280.135345 927.802307,293.372009 
	C928.555847,309.996857 927.854675,326.683167 928.084351,343.338776 
	C928.159180,348.764008 928.756226,354.265503 929.864563,359.575531 
	C932.112793,370.347076 936.675476,374.146057 948.003723,375.393982 
	C948.003723,376.987244 948.003723,378.626038 948.003723,380.264862 
	C948.003723,385.051666 948.003723,389.838470 948.003723,394.809082 
	C914.344299,394.809082 881.090332,394.809082 847.540955,394.809082 
	C847.540955,388.337585 847.540955,381.929443 847.540955,375.527710 
	C862.240540,373.511932 865.981934,367.060669 866.275513,356.314575 
	C866.511169,347.686035 867.300659,339.065948 867.338562,330.439850 
	C867.473145,299.788452 867.331665,269.135773 867.476562,238.484436 
	C867.492371,235.148697 866.425354,233.358948 863.506348,231.982239 
	C859.189758,229.946274 855.168518,227.258774 850.792969,225.381516 
	C847.838684,224.114029 847.510559,222.285355 847.087708,219.417358 
	C846.167053,213.173523 849.289612,210.949783 854.494263,209.007751 
	C870.779541,202.931107 886.818848,196.192368 903.130676,190.191864 
	C907.161865,188.708908 911.864685,189.051804 916.852417,188.488297 
	C916.852417,214.306351 916.852417,239.449783 916.852417,264.593231 
	C917.171387,264.653656 917.490356,264.714111 917.809265,264.774536 
	C921.581787,255.978943 925.080933,247.053329 929.188660,238.417175 
	C935.943970,224.214523 942.803223,210.045181 950.178406,196.159088 
	C955.134338,186.827927 967.143555,185.765488 973.695984,195.608551 
	C977.254211,200.953842 981.649475,205.803986 984.716980,211.398499 
	C988.748779,218.751526 988.178589,227.083130 987.853760,235.674744 
z"/>
<path fill="#FCFCFD" opacity="1.000000" stroke="none" 
	d="
M1098.361572,320.641510 
	C1091.766113,309.605194 1085.394775,298.864227 1078.652954,287.498779 
	C1085.231567,281.049164 1092.020874,274.698395 1098.453735,268.004822 
	C1105.693726,260.471497 1111.993530,252.149872 1115.435059,242.161865 
	C1116.852783,238.047363 1118.111694,233.392639 1117.615479,229.199829 
	C1116.369141,218.666733 1111.431274,214.692886 1100.236450,213.717484 
	C1100.236450,207.140732 1100.236450,200.540146 1100.236450,193.693054 
	C1126.565552,193.693054 1152.789795,193.693054 1179.387573,193.693054 
	C1179.387573,200.308228 1179.387573,206.706131 1179.387573,213.708893 
	C1160.655884,215.471725 1151.408447,230.123032 1141.161499,243.426926 
	C1137.038330,248.780334 1133.125366,254.312302 1129.441528,259.974396 
	C1128.648560,261.193146 1128.559692,263.766022 1129.322754,264.969299 
	C1146.334595,291.796448 1163.490601,318.532379 1180.674927,345.249847 
	C1184.151123,350.654510 1186.471191,356.259735 1186.054443,362.895721 
	C1185.502808,371.683319 1185.348633,380.495209 1184.934448,389.292450 
	C1184.752563,393.153870 1183.104858,395.232452 1178.698120,395.087891 
	C1170.041016,394.803864 1161.360474,395.202789 1152.706665,394.873688 
	C1150.363892,394.784607 1147.227295,393.756165 1145.910278,392.041290 
	C1137.172363,380.664429 1128.401733,369.267700 1120.481323,357.320923 
	C1112.667236,345.534729 1105.843750,333.091736 1098.361572,320.641510 
z"/>
<path fill="#000000" opacity="1.000000" stroke="none" 
	d="
M728.738708,300.689453 
	C733.756470,297.255188 738.515320,294.076355 743.878052,290.494171 
	C744.026672,292.277039 744.234741,293.627167 744.237000,294.977661 
	C744.260315,309.116150 744.082336,323.257843 744.349365,337.391296 
	C744.432800,341.807068 743.232788,345.194855 739.768921,347.722839 
	C735.792664,350.624786 731.862244,353.645233 727.624756,356.123169 
	C712.946777,364.706268 704.057129,354.698090 702.959045,341.770660 
	C701.543518,325.106812 710.602478,314.170776 722.846863,304.928558 
	C724.681519,303.543732 726.600098,302.270050 728.738708,300.689453 
z"/>
<path fill="#000000" opacity="1.000000" stroke="none" 
	d="
M1269.003784,255.228210 
	C1270.312744,245.482666 1271.430664,236.167633 1273.035156,226.937164 
	C1273.579346,223.806686 1274.872803,220.566589 1276.648560,217.932770 
	C1283.310181,208.052856 1296.020264,208.869400 1302.274292,219.199417 
	C1306.825684,226.716690 1307.082031,235.167328 1307.903320,243.455948 
	C1308.405640,248.524612 1307.996216,253.683609 1307.996216,259.280701 
	C1295.603149,259.280701 1283.531738,259.212250 1271.461914,259.328125 
	C1268.388184,259.357635 1269.058228,257.411713 1269.003784,255.228210 
z"/>
</svg>